# MagicaVoxel @ Ephtracy

# group
o 

# material
mtllib konbini-9.mtl
usemtl palette

# normals
vn -1 0 0
vn 1 0 0
vn 0 0 1
vn 0 0 -1
vn 0 -1 0
vn 0 1 0

# texcoords
vt 0.896484 0.5
vt 0.900391 0.5
vt 0.904297 0.5
vt 0.916016 0.5

# verts
v -12.8 7.5 12.8
v -12.8 7.5 -7.2
v -12.8 8.6 12.8
v -12.8 8.6 -7.2
v -12.3 8.6 12.2
v -12.3 8.6 -6.7
v -12.3 9.4 12.2
v -12.3 9.4 -6.7
v -12.3 9.6 12.2
v -12.3 9.6 -6.7
v 2.8 6.8 -6.7
v 2.8 6.8 -7
v 2.8 7.5 -6.7
v 2.8 7.5 -7
v 2.8 8.6 -6.7
v 2.8 8.6 -7
v 2.8 9.3 -6.7
v 2.8 9.3 -7
v 2.9 6.7 -6.7
v 2.9 6.7 -7
v 2.9 6.8 -6.7
v 2.9 6.8 -7
v 2.9 9.3 -6.7
v 2.9 9.3 -7
v 2.9 9.4 -6.7
v 2.9 9.4 -7
v 3 6.6 -6.7
v 3 6.6 -7
v 3 6.7 -6.7
v 3 6.7 -7
v 3 9.4 -6.7
v 3 9.4 -7
v 3 9.5 -6.7
v 3 9.5 -7
v 5.6 7.5 -7
v 5.6 7.5 -7.1
v 5.6 8.6 -7
v 5.6 8.6 -7.1
v 5.7 7.5 -7.1
v 5.7 7.5 -7.2
v 5.7 8.6 -7.1
v 5.7 8.6 -7.2
v 11.2 8.6 11.8
v 11.2 8.6 -6.2
v 11.2 9.4 11.8
v 11.2 9.4 -6.2
v 11.2 9.6 11.8
v 11.2 9.6 -6.2
v -11.8 8.6 11.8
v -11.8 8.6 -6.2
v -11.8 9.4 11.8
v -11.8 9.4 -6.2
v -11.8 9.6 11.8
v -11.8 9.6 -6.2
v 2.7 7.5 -7.1
v 2.7 7.5 -7.2
v 2.7 8.6 -7.1
v 2.7 8.6 -7.2
v 2.8 7.5 -7
v 2.8 7.5 -7.1
v 2.8 8.6 -7
v 2.8 8.6 -7.1
v 5.4 6.6 -6.7
v 5.4 6.6 -7
v 5.4 6.7 -6.7
v 5.4 6.7 -7
v 5.4 9.4 -6.7
v 5.4 9.4 -7
v 5.4 9.5 -6.7
v 5.4 9.5 -7
v 5.5 6.7 -6.7
v 5.5 6.7 -7
v 5.5 6.8 -6.7
v 5.5 6.8 -7
v 5.5 9.3 -6.7
v 5.5 9.3 -7
v 5.5 9.4 -6.7
v 5.5 9.4 -7
v 5.6 6.8 -6.7
v 5.6 6.8 -7
v 5.6 7.5 -6.7
v 5.6 7.5 -7
v 5.6 8.6 -6.7
v 5.6 8.6 -7
v 5.6 9.3 -6.7
v 5.6 9.3 -7
v 11.6 8.6 12.2
v 11.6 8.6 7.3
v 11.6 8.6 -6.7
v 11.6 9.4 12.2
v 11.6 9.4 -6.7
v 11.6 9.6 12.2
v 11.6 9.6 -6.7
v 12.2 7.5 12.8
v 12.2 7.5 -7.2
v 12.2 8.6 12.8
v 12.2 8.6 -7.2
v -12.8 7.5 12.8
v -12.8 8.6 12.8
v 12.2 7.5 12.8
v 12.2 8.6 12.8
v -12.3 8.6 12.2
v -12.3 9.4 12.2
v -12.3 9.6 12.2
v 11.6 8.6 12.2
v 11.6 9.4 12.2
v 11.6 9.6 12.2
v -11.8 8.6 -6.2
v -11.8 9.4 -6.2
v -11.8 9.6 -6.2
v 11.2 8.6 -6.2
v 11.2 9.4 -6.2
v 11.2 9.6 -6.2
v 2.8 6.8 -6.7
v 2.8 7.5 -6.7
v 2.9 6.7 -6.7
v 2.9 6.8 -6.7
v 3 6.6 -6.7
v 3 6.7 -6.7
v 5.4 6.6 -6.7
v 5.4 6.7 -6.7
v 5.5 6.7 -6.7
v 5.5 6.8 -6.7
v 5.6 6.8 -6.7
v 5.6 7.5 -6.7
v -11.8 8.6 11.8
v -11.8 9.4 11.8
v -11.8 9.6 11.8
v 11.2 8.6 11.8
v 11.2 9.4 11.8
v 11.2 9.6 11.8
v -12.3 8.6 -6.7
v -12.3 9.4 -6.7
v -12.3 9.6 -6.7
v 2.8 8.6 -6.7
v 2.8 9.3 -6.7
v 2.9 9.3 -6.7
v 2.9 9.4 -6.7
v 3 9.4 -6.7
v 3 9.5 -6.7
v 5.4 9.4 -6.7
v 5.4 9.5 -6.7
v 5.5 9.3 -6.7
v 5.5 9.4 -6.7
v 5.6 8.6 -6.7
v 5.6 9.3 -6.7
v 11.6 8.6 -6.7
v 11.6 9.4 -6.7
v 11.6 9.6 -6.7
v 2.8 6.8 -7
v 2.8 7.5 -7
v 2.8 8.6 -7
v 2.8 9.3 -7
v 2.9 6.7 -7
v 2.9 6.8 -7
v 2.9 9.3 -7
v 2.9 9.4 -7
v 3 6.6 -7
v 3 6.7 -7
v 3 9.4 -7
v 3 9.5 -7
v 5.4 6.6 -7
v 5.4 6.7 -7
v 5.4 9.4 -7
v 5.4 9.5 -7
v 5.5 6.7 -7
v 5.5 6.8 -7
v 5.5 9.3 -7
v 5.5 9.4 -7
v 5.6 6.8 -7
v 5.6 7.5 -7
v 5.6 8.6 -7
v 5.6 9.3 -7
v 2.7 7.5 -7.1
v 2.7 8.6 -7.1
v 2.8 7.5 -7.1
v 2.8 8.6 -7.1
v 5.6 7.5 -7.1
v 5.6 8.6 -7.1
v 5.7 7.5 -7.1
v 5.7 8.6 -7.1
v -12.8 7.5 -7.2
v -12.8 8.6 -7.2
v 2.7 7.5 -7.2
v 2.7 8.6 -7.2
v 5.7 7.5 -7.2
v 5.7 8.6 -7.2
v 12.2 7.5 -7.2
v 12.2 8.6 -7.2
v 3 6.6 -6.7
v 5.4 6.6 -6.7
v 3 6.6 -7
v 5.4 6.6 -7
v 2.9 6.7 -6.7
v 3 6.7 -6.7
v 5.4 6.7 -6.7
v 5.5 6.7 -6.7
v 2.9 6.7 -7
v 3 6.7 -7
v 5.4 6.7 -7
v 5.5 6.7 -7
v 2.8 6.8 -6.7
v 2.9 6.8 -6.7
v 5.5 6.8 -6.7
v 5.6 6.8 -6.7
v 2.8 6.8 -7
v 2.9 6.8 -7
v 5.5 6.8 -7
v 5.6 6.8 -7
v -12.8 7.5 12.8
v 12.2 7.5 12.8
v 2.8 7.5 -6.7
v 5.6 7.5 -6.7
v 2.8 7.5 -7
v 5.6 7.5 -7
v 2.7 7.5 -7.1
v 2.8 7.5 -7.1
v 5.6 7.5 -7.1
v 5.7 7.5 -7.1
v -12.8 7.5 -7.2
v 2.7 7.5 -7.2
v 5.7 7.5 -7.2
v 12.2 7.5 -7.2
v -12.8 8.6 12.8
v 12.2 8.6 12.8
v -12.3 8.6 12.2
v 11.6 8.6 12.2
v 11.7 8.6 12.2
v -11.8 8.6 11.8
v 11.2 8.6 11.8
v 11.6 8.6 7.3
v 11.7 8.6 7.3
v -11.8 8.6 -6.2
v 11.2 8.6 -6.2
v -12.3 8.6 -6.7
v 2.8 8.6 -6.7
v 5.6 8.6 -6.7
v 11.6 8.6 -6.7
v 2.8 8.6 -7
v 5.6 8.6 -7
v 2.7 8.6 -7.1
v 2.8 8.6 -7.1
v 5.6 8.6 -7.1
v 5.7 8.6 -7.1
v -12.8 8.6 -7.2
v 2.7 8.6 -7.2
v 5.7 8.6 -7.2
v 12.2 8.6 -7.2
v 2.8 9.3 -6.7
v 2.9 9.3 -6.7
v 5.5 9.3 -6.7
v 5.6 9.3 -6.7
v 2.8 9.3 -7
v 2.9 9.3 -7
v 5.5 9.3 -7
v 5.6 9.3 -7
v 2.9 9.4 -6.7
v 3 9.4 -6.7
v 5.4 9.4 -6.7
v 5.5 9.4 -6.7
v 2.9 9.4 -7
v 3 9.4 -7
v 5.4 9.4 -7
v 5.5 9.4 -7
v 3 9.5 -6.7
v 5.4 9.5 -6.7
v 3 9.5 -7
v 5.4 9.5 -7
v -12.3 9.6 12.2
v 11.6 9.6 12.2
v -11.8 9.6 11.8
v 11.2 9.6 11.8
v -11.8 9.6 -6.2
v 11.2 9.6 -6.2
v -12.3 9.6 -6.7
v 11.6 9.6 -6.7

# faces
f 3/1/1 2/1/1 1/1/1
f 4/1/1 2/1/1 3/1/1
f 7/2/1 6/2/1 5/2/1
f 8/2/1 6/2/1 7/2/1
f 9/3/1 8/3/1 7/3/1
f 10/3/1 8/3/1 9/3/1
f 13/1/1 12/1/1 11/1/1
f 14/1/1 12/1/1 13/1/1
f 17/1/1 16/1/1 15/1/1
f 18/1/1 16/1/1 17/1/1
f 21/1/1 20/1/1 19/1/1
f 22/1/1 20/1/1 21/1/1
f 25/1/1 24/1/1 23/1/1
f 26/1/1 24/1/1 25/1/1
f 29/1/1 28/1/1 27/1/1
f 30/1/1 28/1/1 29/1/1
f 33/1/1 32/1/1 31/1/1
f 34/1/1 32/1/1 33/1/1
f 37/1/1 36/1/1 35/1/1
f 38/1/1 36/1/1 37/1/1
f 41/1/1 40/1/1 39/1/1
f 42/1/1 40/1/1 41/1/1
f 45/2/1 44/2/1 43/2/1
f 46/2/1 44/2/1 45/2/1
f 47/3/1 46/3/1 45/3/1
f 48/3/1 46/3/1 47/3/1
f 49/2/2 50/2/2 51/2/2
f 51/2/2 50/2/2 52/2/2
f 51/3/2 52/3/2 53/3/2
f 53/3/2 52/3/2 54/3/2
f 55/1/2 56/1/2 57/1/2
f 57/1/2 56/1/2 58/1/2
f 59/1/2 60/1/2 61/1/2
f 61/1/2 60/1/2 62/1/2
f 63/1/2 64/1/2 65/1/2
f 65/1/2 64/1/2 66/1/2
f 67/1/2 68/1/2 69/1/2
f 69/1/2 68/1/2 70/1/2
f 71/1/2 72/1/2 73/1/2
f 73/1/2 72/1/2 74/1/2
f 75/1/2 76/1/2 77/1/2
f 77/1/2 76/1/2 78/1/2
f 79/1/2 80/1/2 81/1/2
f 81/1/2 80/1/2 82/1/2
f 83/1/2 84/1/2 85/1/2
f 85/1/2 84/1/2 86/1/2
f 87/2/2 88/2/2 90/2/2
f 88/2/2 89/2/2 90/2/2
f 90/2/2 89/2/2 91/2/2
f 90/3/2 91/3/2 92/3/2
f 92/3/2 91/3/2 93/3/2
f 94/1/2 95/1/2 96/1/2
f 96/1/2 95/1/2 97/1/2
f 100/1/3 99/1/3 98/1/3
f 101/1/3 99/1/3 100/1/3
f 105/2/3 103/2/3 102/2/3
f 106/3/3 104/3/3 103/3/3
f 106/2/3 103/2/3 105/2/3
f 107/3/3 104/3/3 106/3/3
f 111/2/3 109/2/3 108/2/3
f 112/3/3 110/3/3 109/3/3
f 112/2/3 109/2/3 111/2/3
f 113/3/3 110/3/3 112/3/3
f 117/1/3 115/1/3 114/1/3
f 119/1/3 117/1/3 116/1/3
f 120/1/3 119/1/3 118/1/3
f 121/1/3 117/1/3 119/1/3
f 121/1/3 119/1/3 120/1/3
f 122/1/3 117/1/3 121/1/3
f 123/1/3 115/1/3 117/1/3
f 123/1/3 117/1/3 122/1/3
f 124/1/3 115/1/3 123/1/3
f 125/1/3 115/1/3 124/1/3
f 126/2/4 127/2/4 129/2/4
f 127/3/4 128/3/4 130/3/4
f 129/2/4 127/2/4 130/2/4
f 130/3/4 128/3/4 131/3/4
f 132/2/4 133/2/4 135/2/4
f 135/2/4 133/2/4 136/2/4
f 136/2/4 133/2/4 137/2/4
f 133/3/4 134/3/4 138/3/4
f 137/2/4 133/2/4 138/2/4
f 138/3/4 134/3/4 139/3/4
f 139/3/4 134/3/4 140/3/4
f 140/3/4 134/3/4 142/3/4
f 141/3/4 142/3/4 144/3/4
f 143/2/4 144/2/4 146/2/4
f 145/2/4 146/2/4 147/2/4
f 144/3/4 142/3/4 148/3/4
f 147/2/4 146/2/4 148/2/4
f 146/2/4 144/2/4 148/2/4
f 142/3/4 134/3/4 149/3/4
f 148/3/4 142/3/4 149/3/4
f 150/1/4 151/1/4 155/1/4
f 152/1/4 153/1/4 155/1/4
f 151/1/4 152/1/4 155/1/4
f 155/1/4 153/1/4 156/1/4
f 154/1/4 155/1/4 159/1/4
f 156/1/4 157/1/4 159/1/4
f 155/1/4 156/1/4 159/1/4
f 159/1/4 157/1/4 160/1/4
f 158/1/4 159/1/4 162/1/4
f 160/1/4 161/1/4 162/1/4
f 159/1/4 160/1/4 162/1/4
f 162/1/4 161/1/4 163/1/4
f 163/1/4 161/1/4 164/1/4
f 164/1/4 161/1/4 165/1/4
f 163/1/4 164/1/4 166/1/4
f 166/1/4 164/1/4 167/1/4
f 167/1/4 164/1/4 168/1/4
f 168/1/4 164/1/4 169/1/4
f 167/1/4 168/1/4 170/1/4
f 170/1/4 168/1/4 171/1/4
f 171/1/4 168/1/4 172/1/4
f 172/1/4 168/1/4 173/1/4
f 174/1/4 175/1/4 176/1/4
f 176/1/4 175/1/4 177/1/4
f 178/1/4 179/1/4 180/1/4
f 180/1/4 179/1/4 181/1/4
f 182/1/4 183/1/4 184/1/4
f 184/1/4 183/1/4 185/1/4
f 186/1/4 187/1/4 188/1/4
f 188/1/4 187/1/4 189/1/4
f 192/1/5 191/1/5 190/1/5
f 193/1/5 191/1/5 192/1/5
f 198/1/5 195/1/5 194/1/5
f 199/1/5 195/1/5 198/1/5
f 200/1/5 197/1/5 196/1/5
f 201/1/5 197/1/5 200/1/5
f 206/1/5 203/1/5 202/1/5
f 207/1/5 203/1/5 206/1/5
f 208/1/5 205/1/5 204/1/5
f 209/1/5 205/1/5 208/1/5
f 212/1/5 211/1/5 210/1/5
f 213/1/5 211/1/5 212/1/5
f 214/1/5 212/1/5 210/1/5
f 215/1/5 211/1/5 213/1/5
f 216/1/5 214/1/5 210/1/5
f 217/1/5 214/1/5 216/1/5
f 218/1/5 211/1/5 215/1/5
f 219/1/5 211/1/5 218/1/5
f 220/1/5 216/1/5 210/1/5
f 221/1/5 216/1/5 220/1/5
f 222/1/5 211/1/5 219/1/5
f 223/1/5 211/1/5 222/1/5
f 224/1/6 225/1/6 226/1/6
f 226/1/6 225/1/6 227/1/6
f 227/1/6 225/1/6 228/1/6
f 227/2/6 228/2/6 231/2/6
f 228/1/6 225/1/6 232/1/6
f 231/2/6 228/2/6 232/2/6
f 229/2/6 230/2/6 233/2/6
f 233/2/6 230/2/6 234/2/6
f 224/1/6 226/1/6 235/1/6
f 231/1/6 232/1/6 238/1/6
f 235/1/6 236/1/6 239/1/6
f 237/1/6 238/1/6 240/1/6
f 235/1/6 239/1/6 241/1/6
f 241/1/6 239/1/6 242/1/6
f 240/1/6 238/1/6 243/1/6
f 243/1/6 238/1/6 244/1/6
f 224/1/6 235/1/6 245/1/6
f 235/1/6 241/1/6 245/1/6
f 245/1/6 241/1/6 246/1/6
f 244/1/6 238/1/6 247/1/6
f 232/1/6 225/1/6 248/1/6
f 247/1/6 238/1/6 248/1/6
f 238/1/6 232/1/6 248/1/6
f 249/1/6 250/1/6 253/1/6
f 253/1/6 250/1/6 254/1/6
f 251/1/6 252/1/6 255/1/6
f 255/1/6 252/1/6 256/1/6
f 257/1/6 258/1/6 261/1/6
f 261/1/6 258/1/6 262/1/6
f 259/1/6 260/1/6 263/1/6
f 263/1/6 260/1/6 264/1/6
f 265/1/6 266/1/6 267/1/6
f 267/1/6 266/1/6 268/1/6
f 269/3/6 270/3/6 271/3/6
f 271/3/6 270/3/6 272/3/6
f 269/3/6 271/3/6 273/3/6
f 272/3/6 270/3/6 274/3/6
f 269/3/6 273/3/6 275/3/6
f 273/3/6 274/3/6 275/3/6
f 274/3/6 270/3/6 276/3/6
f 275/3/6 274/3/6 276/3/6
