# MagicaVoxel @ Ephtracy

# group
o 

# material
mtllib konbini-0.mtl
usemtl palette

# normals
vn -1 0 0
vn 1 0 0
vn 0 0 1
vn 0 0 -1
vn 0 -1 0
vn 0 1 0

# texcoords
vt 0.751953 0.5
vt 0.767578 0.5

# verts
v 0.2 1.5 -6.3
v 0.2 1.5 -6.4
v 0.2 5.2 -6.3
v 0.2 5.2 -6.4
v 0.3 1.5 -6.2
v 0.3 1.5 -6.3
v 0.3 1.5 -6.4
v 0.3 1.5 -6.5
v 0.3 5.2 -6.2
v 0.3 5.2 -6.3
v 0.3 5.2 -6.4
v 0.3 5.2 -6.5
v 0.3 5.3 -6.3
v 0.3 5.3 -6.4
v 0.4 5.2 -6.2
v 0.4 5.2 -6.3
v 0.4 5.2 -6.4
v 0.4 5.2 -6.5
v 0.4 5.3 -6.2
v 0.4 5.3 -6.3
v 0.4 5.3 -6.4
v 0.4 5.3 -6.5
v 0.4 5.4 -6.3
v 0.4 5.4 -6.4
v 0.6 3.3 -6.2
v 0.6 3.3 -6.3
v 0.6 3.3 -6.4
v 0.6 3.3 -6.5
v 0.6 3.4 -6.2
v 0.6 3.4 -6.3
v 0.6 3.4 -6.4
v 0.6 3.4 -6.5
v 0.7 3.2 -6.2
v 0.7 3.2 -6.3
v 0.7 3.2 -6.4
v 0.7 3.2 -6.5
v 0.7 3.3 -6.2
v 0.7 3.3 -6.3
v 0.7 3.3 -6.4
v 0.7 3.3 -6.5
v 1 3.3 -6.2
v 1 3.3 -6.3
v 1 3.3 -6.4
v 1 3.3 -6.5
v 1 3.4 -6.2
v 1 3.4 -6.3
v 1 3.4 -6.4
v 1 3.4 -6.5
v 1.1 3.2 -6.2
v 1.1 3.2 -6.3
v 1.1 3.2 -6.4
v 1.1 3.2 -6.5
v 1.1 3.3 -6.2
v 1.1 3.3 -6.3
v 1.1 3.3 -6.4
v 1.1 3.3 -6.5
v 1.4 3.3 -6.2
v 1.4 3.3 -6.3
v 1.4 3.3 -6.4
v 1.4 3.3 -6.5
v 1.4 3.4 -6.2
v 1.4 3.4 -6.3
v 1.4 3.4 -6.4
v 1.4 3.4 -6.5
v 1.5 3.2 -6.2
v 1.5 3.2 -6.3
v 1.5 3.2 -6.4
v 1.5 3.2 -6.5
v 1.5 3.3 -6.2
v 1.5 3.3 -6.3
v 1.5 3.3 -6.4
v 1.5 3.3 -6.5
v 1.8 3.3 -6.2
v 1.8 3.3 -6.3
v 1.8 3.3 -6.4
v 1.8 3.3 -6.5
v 1.8 3.4 -6.2
v 1.8 3.4 -6.3
v 1.8 3.4 -6.4
v 1.8 3.4 -6.5
v 1.9 3.2 -6.2
v 1.9 3.2 -6.3
v 1.9 3.2 -6.4
v 1.9 3.2 -6.5
v 1.9 3.3 -6.2
v 1.9 3.3 -6.3
v 1.9 3.3 -6.4
v 1.9 3.3 -6.5
v 2.2 1.6 -6.2
v 2.2 1.6 -6.3
v 2.2 1.6 -6.4
v 2.2 1.6 -6.5
v 2.2 1.7 -6.3
v 2.2 1.7 -6.4
v 2.2 3.1 -6.2
v 2.2 3.1 -6.3
v 2.2 3.1 -6.4
v 2.2 3.1 -6.5
v 2.2 3.2 -6.2
v 2.2 3.2 -6.3
v 2.2 3.2 -6.4
v 2.2 3.2 -6.5
v 2.2 3.4 -6.2
v 2.2 3.4 -6.3
v 2.2 3.4 -6.4
v 2.2 3.4 -6.5
v 2.2 3.5 -6.2
v 2.2 3.5 -6.3
v 2.2 3.5 -6.4
v 2.2 3.5 -6.5
v 2.2 5.2 -6.2
v 2.2 5.2 -6.5
v 0.4 1.6 -6.2
v 0.4 1.6 -6.3
v 0.4 1.6 -6.4
v 0.4 1.6 -6.5
v 0.4 1.7 -6.3
v 0.4 1.7 -6.4
v 0.4 3.1 -6.2
v 0.4 3.1 -6.3
v 0.4 3.1 -6.4
v 0.4 3.1 -6.5
v 0.4 3.2 -6.2
v 0.4 3.2 -6.3
v 0.4 3.2 -6.4
v 0.4 3.2 -6.5
v 0.4 3.4 -6.2
v 0.4 3.4 -6.3
v 0.4 3.4 -6.4
v 0.4 3.4 -6.5
v 0.4 3.5 -6.2
v 0.4 3.5 -6.3
v 0.4 3.5 -6.4
v 0.4 3.5 -6.5
v 0.4 5.2 -6.2
v 0.4 5.2 -6.5
v 0.8 3.3 -6.2
v 0.8 3.3 -6.3
v 0.8 3.3 -6.4
v 0.8 3.3 -6.5
v 0.8 3.4 -6.2
v 0.8 3.4 -6.3
v 0.8 3.4 -6.4
v 0.8 3.4 -6.5
v 0.9 3.2 -6.2
v 0.9 3.2 -6.3
v 0.9 3.2 -6.4
v 0.9 3.2 -6.5
v 0.9 3.3 -6.2
v 0.9 3.3 -6.3
v 0.9 3.3 -6.4
v 0.9 3.3 -6.5
v 1.2 3.3 -6.2
v 1.2 3.3 -6.3
v 1.2 3.3 -6.4
v 1.2 3.3 -6.5
v 1.2 3.4 -6.2
v 1.2 3.4 -6.3
v 1.2 3.4 -6.4
v 1.2 3.4 -6.5
v 1.3 3.2 -6.2
v 1.3 3.2 -6.3
v 1.3 3.2 -6.4
v 1.3 3.2 -6.5
v 1.3 3.3 -6.2
v 1.3 3.3 -6.3
v 1.3 3.3 -6.4
v 1.3 3.3 -6.5
v 1.6 3.3 -6.2
v 1.6 3.3 -6.3
v 1.6 3.3 -6.4
v 1.6 3.3 -6.5
v 1.6 3.4 -6.2
v 1.6 3.4 -6.3
v 1.6 3.4 -6.4
v 1.6 3.4 -6.5
v 1.7 3.2 -6.2
v 1.7 3.2 -6.3
v 1.7 3.2 -6.4
v 1.7 3.2 -6.5
v 1.7 3.3 -6.2
v 1.7 3.3 -6.3
v 1.7 3.3 -6.4
v 1.7 3.3 -6.5
v 2 3.3 -6.2
v 2 3.3 -6.3
v 2 3.3 -6.4
v 2 3.3 -6.5
v 2 3.4 -6.2
v 2 3.4 -6.3
v 2 3.4 -6.4
v 2 3.4 -6.5
v 2.1 3.2 -6.2
v 2.1 3.2 -6.3
v 2.1 3.2 -6.4
v 2.1 3.2 -6.5
v 2.1 3.3 -6.2
v 2.1 3.3 -6.3
v 2.1 3.3 -6.4
v 2.1 3.3 -6.5
v 2.4 1.5 -6.2
v 2.4 1.5 -6.5
v 2.4 5.3 -6.2
v 2.4 5.3 -6.3
v 2.4 5.3 -6.4
v 2.4 5.3 -6.5
v 2.4 5.4 -6.3
v 2.4 5.4 -6.4
v 0.3 1.5 -6.2
v 0.3 5.2 -6.2
v 0.4 1.6 -6.2
v 0.4 3.1 -6.2
v 0.4 3.2 -6.2
v 0.4 3.4 -6.2
v 0.4 3.5 -6.2
v 0.4 5.2 -6.2
v 0.4 5.3 -6.2
v 0.6 3.3 -6.2
v 0.6 3.4 -6.2
v 0.7 3.2 -6.2
v 0.7 3.3 -6.2
v 0.8 3.3 -6.2
v 0.8 3.4 -6.2
v 0.9 3.2 -6.2
v 0.9 3.3 -6.2
v 1 3.3 -6.2
v 1 3.4 -6.2
v 1.1 3.2 -6.2
v 1.1 3.3 -6.2
v 1.2 3.3 -6.2
v 1.2 3.4 -6.2
v 1.3 3.2 -6.2
v 1.3 3.3 -6.2
v 1.4 3.3 -6.2
v 1.4 3.4 -6.2
v 1.5 3.2 -6.2
v 1.5 3.3 -6.2
v 1.6 3.3 -6.2
v 1.6 3.4 -6.2
v 1.7 3.2 -6.2
v 1.7 3.3 -6.2
v 1.8 3.3 -6.2
v 1.8 3.4 -6.2
v 1.9 3.2 -6.2
v 1.9 3.3 -6.2
v 2 3.3 -6.2
v 2 3.4 -6.2
v 2.1 3.2 -6.2
v 2.1 3.3 -6.2
v 2.2 1.6 -6.2
v 2.2 3.1 -6.2
v 2.2 3.2 -6.2
v 2.2 3.4 -6.2
v 2.2 3.5 -6.2
v 2.2 5.2 -6.2
v 2.4 1.5 -6.2
v 2.4 5.3 -6.2
v 0.2 1.5 -6.3
v 0.2 5.2 -6.3
v 0.3 1.5 -6.3
v 0.3 5.2 -6.3
v 0.3 5.3 -6.3
v 0.4 1.6 -6.3
v 0.4 1.7 -6.3
v 0.4 5.2 -6.3
v 0.4 5.3 -6.3
v 0.4 5.4 -6.3
v 2.2 1.6 -6.3
v 2.2 1.7 -6.3
v 2.4 5.3 -6.3
v 2.4 5.4 -6.3
v 0.4 3.1 -6.4
v 0.4 3.2 -6.4
v 0.4 3.4 -6.4
v 0.4 3.5 -6.4
v 0.6 3.3 -6.4
v 0.6 3.4 -6.4
v 0.7 3.2 -6.4
v 0.7 3.3 -6.4
v 0.8 3.3 -6.4
v 0.8 3.4 -6.4
v 0.9 3.2 -6.4
v 0.9 3.3 -6.4
v 1 3.3 -6.4
v 1 3.4 -6.4
v 1.1 3.2 -6.4
v 1.1 3.3 -6.4
v 1.2 3.3 -6.4
v 1.2 3.4 -6.4
v 1.3 3.2 -6.4
v 1.3 3.3 -6.4
v 1.4 3.3 -6.4
v 1.4 3.4 -6.4
v 1.5 3.2 -6.4
v 1.5 3.3 -6.4
v 1.6 3.3 -6.4
v 1.6 3.4 -6.4
v 1.7 3.2 -6.4
v 1.7 3.3 -6.4
v 1.8 3.3 -6.4
v 1.8 3.4 -6.4
v 1.9 3.2 -6.4
v 1.9 3.3 -6.4
v 2 3.3 -6.4
v 2 3.4 -6.4
v 2.1 3.2 -6.4
v 2.1 3.3 -6.4
v 2.2 3.1 -6.4
v 2.2 3.2 -6.4
v 2.2 3.4 -6.4
v 2.2 3.5 -6.4
v 0.4 3.1 -6.3
v 0.4 3.2 -6.3
v 0.4 3.4 -6.3
v 0.4 3.5 -6.3
v 0.6 3.3 -6.3
v 0.6 3.4 -6.3
v 0.7 3.2 -6.3
v 0.7 3.3 -6.3
v 0.8 3.3 -6.3
v 0.8 3.4 -6.3
v 0.9 3.2 -6.3
v 0.9 3.3 -6.3
v 1 3.3 -6.3
v 1 3.4 -6.3
v 1.1 3.2 -6.3
v 1.1 3.3 -6.3
v 1.2 3.3 -6.3
v 1.2 3.4 -6.3
v 1.3 3.2 -6.3
v 1.3 3.3 -6.3
v 1.4 3.3 -6.3
v 1.4 3.4 -6.3
v 1.5 3.2 -6.3
v 1.5 3.3 -6.3
v 1.6 3.3 -6.3
v 1.6 3.4 -6.3
v 1.7 3.2 -6.3
v 1.7 3.3 -6.3
v 1.8 3.3 -6.3
v 1.8 3.4 -6.3
v 1.9 3.2 -6.3
v 1.9 3.3 -6.3
v 2 3.3 -6.3
v 2 3.4 -6.3
v 2.1 3.2 -6.3
v 2.1 3.3 -6.3
v 2.2 3.1 -6.3
v 2.2 3.2 -6.3
v 2.2 3.4 -6.3
v 2.2 3.5 -6.3
v 0.2 1.5 -6.4
v 0.2 5.2 -6.4
v 0.3 1.5 -6.4
v 0.3 5.2 -6.4
v 0.3 5.3 -6.4
v 0.4 1.6 -6.4
v 0.4 1.7 -6.4
v 0.4 5.2 -6.4
v 0.4 5.3 -6.4
v 0.4 5.4 -6.4
v 2.2 1.6 -6.4
v 2.2 1.7 -6.4
v 2.4 5.3 -6.4
v 2.4 5.4 -6.4
v 0.3 1.5 -6.5
v 0.3 5.2 -6.5
v 0.4 1.6 -6.5
v 0.4 3.1 -6.5
v 0.4 3.2 -6.5
v 0.4 3.4 -6.5
v 0.4 3.5 -6.5
v 0.4 5.2 -6.5
v 0.4 5.3 -6.5
v 0.6 3.3 -6.5
v 0.6 3.4 -6.5
v 0.7 3.2 -6.5
v 0.7 3.3 -6.5
v 0.8 3.3 -6.5
v 0.8 3.4 -6.5
v 0.9 3.2 -6.5
v 0.9 3.3 -6.5
v 1 3.3 -6.5
v 1 3.4 -6.5
v 1.1 3.2 -6.5
v 1.1 3.3 -6.5
v 1.2 3.3 -6.5
v 1.2 3.4 -6.5
v 1.3 3.2 -6.5
v 1.3 3.3 -6.5
v 1.4 3.3 -6.5
v 1.4 3.4 -6.5
v 1.5 3.2 -6.5
v 1.5 3.3 -6.5
v 1.6 3.3 -6.5
v 1.6 3.4 -6.5
v 1.7 3.2 -6.5
v 1.7 3.3 -6.5
v 1.8 3.3 -6.5
v 1.8 3.4 -6.5
v 1.9 3.2 -6.5
v 1.9 3.3 -6.5
v 2 3.3 -6.5
v 2 3.4 -6.5
v 2.1 3.2 -6.5
v 2.1 3.3 -6.5
v 2.2 1.6 -6.5
v 2.2 3.1 -6.5
v 2.2 3.2 -6.5
v 2.2 3.4 -6.5
v 2.2 3.5 -6.5
v 2.2 5.2 -6.5
v 2.4 1.5 -6.5
v 2.4 5.3 -6.5
v 0.3 1.5 -6.2
v 2.4 1.5 -6.2
v 0.2 1.5 -6.3
v 0.3 1.5 -6.3
v 0.2 1.5 -6.4
v 0.3 1.5 -6.4
v 0.3 1.5 -6.5
v 2.4 1.5 -6.5
v 0.4 3.1 -6.2
v 2.2 3.1 -6.2
v 0.4 3.1 -6.3
v 2.2 3.1 -6.3
v 0.4 3.1 -6.4
v 2.2 3.1 -6.4
v 0.4 3.1 -6.5
v 2.2 3.1 -6.5
v 0.6 3.3 -6.2
v 0.7 3.3 -6.2
v 1 3.3 -6.2
v 1.1 3.3 -6.2
v 1.4 3.3 -6.2
v 1.5 3.3 -6.2
v 1.8 3.3 -6.2
v 1.9 3.3 -6.2
v 0.6 3.3 -6.3
v 0.7 3.3 -6.3
v 1 3.3 -6.3
v 1.1 3.3 -6.3
v 1.4 3.3 -6.3
v 1.5 3.3 -6.3
v 1.8 3.3 -6.3
v 1.9 3.3 -6.3
v 0.6 3.3 -6.4
v 0.7 3.3 -6.4
v 1 3.3 -6.4
v 1.1 3.3 -6.4
v 1.4 3.3 -6.4
v 1.5 3.3 -6.4
v 1.8 3.3 -6.4
v 1.9 3.3 -6.4
v 0.6 3.3 -6.5
v 0.7 3.3 -6.5
v 1 3.3 -6.5
v 1.1 3.3 -6.5
v 1.4 3.3 -6.5
v 1.5 3.3 -6.5
v 1.8 3.3 -6.5
v 1.9 3.3 -6.5
v 0.4 3.4 -6.2
v 0.6 3.4 -6.2
v 0.8 3.4 -6.2
v 1 3.4 -6.2
v 1.2 3.4 -6.2
v 1.4 3.4 -6.2
v 1.6 3.4 -6.2
v 1.8 3.4 -6.2
v 2 3.4 -6.2
v 2.2 3.4 -6.2
v 0.4 3.4 -6.3
v 0.6 3.4 -6.3
v 0.8 3.4 -6.3
v 1 3.4 -6.3
v 1.2 3.4 -6.3
v 1.4 3.4 -6.3
v 1.6 3.4 -6.3
v 1.8 3.4 -6.3
v 2 3.4 -6.3
v 2.2 3.4 -6.3
v 0.4 3.4 -6.4
v 0.6 3.4 -6.4
v 0.8 3.4 -6.4
v 1 3.4 -6.4
v 1.2 3.4 -6.4
v 1.4 3.4 -6.4
v 1.6 3.4 -6.4
v 1.8 3.4 -6.4
v 2 3.4 -6.4
v 2.2 3.4 -6.4
v 0.4 3.4 -6.5
v 0.6 3.4 -6.5
v 0.8 3.4 -6.5
v 1 3.4 -6.5
v 1.2 3.4 -6.5
v 1.4 3.4 -6.5
v 1.6 3.4 -6.5
v 1.8 3.4 -6.5
v 2 3.4 -6.5
v 2.2 3.4 -6.5
v 0.4 5.2 -6.2
v 2.2 5.2 -6.2
v 0.4 5.2 -6.5
v 2.2 5.2 -6.5
v 0.4 1.6 -6.2
v 2.2 1.6 -6.2
v 0.4 1.6 -6.3
v 2.2 1.6 -6.3
v 0.4 1.6 -6.4
v 2.2 1.6 -6.4
v 0.4 1.6 -6.5
v 2.2 1.6 -6.5
v 0.4 1.7 -6.3
v 2.2 1.7 -6.3
v 0.4 1.7 -6.4
v 2.2 1.7 -6.4
v 0.4 3.2 -6.2
v 0.7 3.2 -6.2
v 0.9 3.2 -6.2
v 1.1 3.2 -6.2
v 1.3 3.2 -6.2
v 1.5 3.2 -6.2
v 1.7 3.2 -6.2
v 1.9 3.2 -6.2
v 2.1 3.2 -6.2
v 2.2 3.2 -6.2
v 0.4 3.2 -6.3
v 0.7 3.2 -6.3
v 0.9 3.2 -6.3
v 1.1 3.2 -6.3
v 1.3 3.2 -6.3
v 1.5 3.2 -6.3
v 1.7 3.2 -6.3
v 1.9 3.2 -6.3
v 2.1 3.2 -6.3
v 2.2 3.2 -6.3
v 0.4 3.2 -6.4
v 0.7 3.2 -6.4
v 0.9 3.2 -6.4
v 1.1 3.2 -6.4
v 1.3 3.2 -6.4
v 1.5 3.2 -6.4
v 1.7 3.2 -6.4
v 1.9 3.2 -6.4
v 2.1 3.2 -6.4
v 2.2 3.2 -6.4
v 0.4 3.2 -6.5
v 0.7 3.2 -6.5
v 0.9 3.2 -6.5
v 1.1 3.2 -6.5
v 1.3 3.2 -6.5
v 1.5 3.2 -6.5
v 1.7 3.2 -6.5
v 1.9 3.2 -6.5
v 2.1 3.2 -6.5
v 2.2 3.2 -6.5
v 0.8 3.3 -6.2
v 0.9 3.3 -6.2
v 1.2 3.3 -6.2
v 1.3 3.3 -6.2
v 1.6 3.3 -6.2
v 1.7 3.3 -6.2
v 2 3.3 -6.2
v 2.1 3.3 -6.2
v 0.8 3.3 -6.3
v 0.9 3.3 -6.3
v 1.2 3.3 -6.3
v 1.3 3.3 -6.3
v 1.6 3.3 -6.3
v 1.7 3.3 -6.3
v 2 3.3 -6.3
v 2.1 3.3 -6.3
v 0.8 3.3 -6.4
v 0.9 3.3 -6.4
v 1.2 3.3 -6.4
v 1.3 3.3 -6.4
v 1.6 3.3 -6.4
v 1.7 3.3 -6.4
v 2 3.3 -6.4
v 2.1 3.3 -6.4
v 0.8 3.3 -6.5
v 0.9 3.3 -6.5
v 1.2 3.3 -6.5
v 1.3 3.3 -6.5
v 1.6 3.3 -6.5
v 1.7 3.3 -6.5
v 2 3.3 -6.5
v 2.1 3.3 -6.5
v 0.4 3.5 -6.2
v 2.2 3.5 -6.2
v 0.4 3.5 -6.3
v 2.2 3.5 -6.3
v 0.4 3.5 -6.4
v 2.2 3.5 -6.4
v 0.4 3.5 -6.5
v 2.2 3.5 -6.5
v 0.3 5.2 -6.2
v 0.4 5.2 -6.2
v 0.2 5.2 -6.3
v 0.3 5.2 -6.3
v 0.4 5.2 -6.3
v 0.2 5.2 -6.4
v 0.3 5.2 -6.4
v 0.4 5.2 -6.4
v 0.3 5.2 -6.5
v 0.4 5.2 -6.5
v 0.4 5.3 -6.2
v 2.4 5.3 -6.2
v 0.3 5.3 -6.3
v 0.4 5.3 -6.3
v 2.4 5.3 -6.3
v 0.3 5.3 -6.4
v 0.4 5.3 -6.4
v 2.4 5.3 -6.4
v 0.4 5.3 -6.5
v 2.4 5.3 -6.5
v 0.4 5.4 -6.3
v 2.4 5.4 -6.3
v 0.4 5.4 -6.4
v 2.4 5.4 -6.4

# faces
f 3/2/1 2/2/1 1/2/1
f 4/2/1 2/2/1 3/2/1
f 9/2/1 6/2/1 5/2/1
f 10/2/1 6/2/1 9/2/1
f 11/2/1 8/2/1 7/2/1
f 12/2/1 8/2/1 11/2/1
f 13/2/1 11/2/1 10/2/1
f 14/2/1 11/2/1 13/2/1
f 19/2/1 16/2/1 15/2/1
f 20/2/1 16/2/1 19/2/1
f 21/2/1 18/2/1 17/2/1
f 22/2/1 18/2/1 21/2/1
f 23/2/1 21/2/1 20/2/1
f 24/2/1 21/2/1 23/2/1
f 29/1/1 26/1/1 25/1/1
f 30/1/1 26/1/1 29/1/1
f 31/1/1 28/1/1 27/1/1
f 32/1/1 28/1/1 31/1/1
f 37/1/1 34/1/1 33/1/1
f 38/1/1 34/1/1 37/1/1
f 39/1/1 36/1/1 35/1/1
f 40/1/1 36/1/1 39/1/1
f 45/1/1 42/1/1 41/1/1
f 46/1/1 42/1/1 45/1/1
f 47/1/1 44/1/1 43/1/1
f 48/1/1 44/1/1 47/1/1
f 53/1/1 50/1/1 49/1/1
f 54/1/1 50/1/1 53/1/1
f 55/1/1 52/1/1 51/1/1
f 56/1/1 52/1/1 55/1/1
f 61/1/1 58/1/1 57/1/1
f 62/1/1 58/1/1 61/1/1
f 63/1/1 60/1/1 59/1/1
f 64/1/1 60/1/1 63/1/1
f 69/1/1 66/1/1 65/1/1
f 70/1/1 66/1/1 69/1/1
f 71/1/1 68/1/1 67/1/1
f 72/1/1 68/1/1 71/1/1
f 77/1/1 74/1/1 73/1/1
f 78/1/1 74/1/1 77/1/1
f 79/1/1 76/1/1 75/1/1
f 80/1/1 76/1/1 79/1/1
f 85/1/1 82/1/1 81/1/1
f 86/1/1 82/1/1 85/1/1
f 87/1/1 84/1/1 83/1/1
f 88/1/1 84/1/1 87/1/1
f 93/2/1 90/2/1 89/2/1
f 94/2/1 92/2/1 91/2/1
f 95/2/1 93/2/1 89/2/1
f 95/2/1 94/2/1 93/2/1
f 96/2/1 94/2/1 95/2/1
f 97/2/1 92/2/1 94/2/1
f 97/2/1 94/2/1 96/2/1
f 98/2/1 92/2/1 97/2/1
f 100/2/1 97/2/1 96/2/1
f 101/2/1 97/2/1 100/2/1
f 103/2/1 100/2/1 99/2/1
f 103/2/1 102/2/1 101/2/1
f 103/2/1 101/2/1 100/2/1
f 104/2/1 102/2/1 103/2/1
f 105/2/1 102/2/1 104/2/1
f 106/2/1 102/2/1 105/2/1
f 108/2/1 105/2/1 104/2/1
f 109/2/1 105/2/1 108/2/1
f 111/2/1 108/2/1 107/2/1
f 111/2/1 110/2/1 109/2/1
f 111/2/1 109/2/1 108/2/1
f 112/2/1 110/2/1 111/2/1
f 113/2/2 114/2/2 117/2/2
f 115/2/2 116/2/2 118/2/2
f 113/2/2 117/2/2 119/2/2
f 117/2/2 118/2/2 119/2/2
f 119/2/2 118/2/2 120/2/2
f 118/2/2 116/2/2 121/2/2
f 120/2/2 118/2/2 121/2/2
f 121/2/2 116/2/2 122/2/2
f 120/2/2 121/2/2 124/2/2
f 124/2/2 121/2/2 125/2/2
f 123/2/2 124/2/2 127/2/2
f 125/2/2 126/2/2 127/2/2
f 124/2/2 125/2/2 127/2/2
f 127/2/2 126/2/2 128/2/2
f 128/2/2 126/2/2 129/2/2
f 129/2/2 126/2/2 130/2/2
f 128/2/2 129/2/2 132/2/2
f 132/2/2 129/2/2 133/2/2
f 131/2/2 132/2/2 135/2/2
f 133/2/2 134/2/2 135/2/2
f 132/2/2 133/2/2 135/2/2
f 135/2/2 134/2/2 136/2/2
f 137/1/2 138/1/2 141/1/2
f 141/1/2 138/1/2 142/1/2
f 139/1/2 140/1/2 143/1/2
f 143/1/2 140/1/2 144/1/2
f 145/1/2 146/1/2 149/1/2
f 149/1/2 146/1/2 150/1/2
f 147/1/2 148/1/2 151/1/2
f 151/1/2 148/1/2 152/1/2
f 153/1/2 154/1/2 157/1/2
f 157/1/2 154/1/2 158/1/2
f 155/1/2 156/1/2 159/1/2
f 159/1/2 156/1/2 160/1/2
f 161/1/2 162/1/2 165/1/2
f 165/1/2 162/1/2 166/1/2
f 163/1/2 164/1/2 167/1/2
f 167/1/2 164/1/2 168/1/2
f 169/1/2 170/1/2 173/1/2
f 173/1/2 170/1/2 174/1/2
f 171/1/2 172/1/2 175/1/2
f 175/1/2 172/1/2 176/1/2
f 177/1/2 178/1/2 181/1/2
f 181/1/2 178/1/2 182/1/2
f 179/1/2 180/1/2 183/1/2
f 183/1/2 180/1/2 184/1/2
f 185/1/2 186/1/2 189/1/2
f 189/1/2 186/1/2 190/1/2
f 187/1/2 188/1/2 191/1/2
f 191/1/2 188/1/2 192/1/2
f 193/1/2 194/1/2 197/1/2
f 197/1/2 194/1/2 198/1/2
f 195/1/2 196/1/2 199/1/2
f 199/1/2 196/1/2 200/1/2
f 201/2/2 202/2/2 203/2/2
f 203/2/2 202/2/2 204/2/2
f 204/2/2 202/2/2 205/2/2
f 205/2/2 202/2/2 206/2/2
f 204/2/2 205/2/2 207/2/2
f 207/2/2 205/2/2 208/2/2
f 211/2/3 210/2/3 209/2/3
f 212/2/3 210/2/3 211/2/3
f 213/2/3 210/2/3 212/2/3
f 214/2/3 210/2/3 213/2/3
f 215/2/3 210/2/3 214/2/3
f 216/2/3 210/2/3 215/2/3
f 219/1/3 215/1/3 214/1/3
f 220/1/3 213/1/3 212/1/3
f 221/1/3 219/1/3 218/1/3
f 222/1/3 219/1/3 221/1/3
f 222/1/3 221/1/3 220/1/3
f 223/1/3 215/1/3 219/1/3
f 223/1/3 219/1/3 222/1/3
f 224/1/3 220/1/3 212/1/3
f 224/1/3 222/1/3 220/1/3
f 225/1/3 222/1/3 224/1/3
f 227/1/3 215/1/3 223/1/3
f 228/1/3 224/1/3 212/1/3
f 229/1/3 227/1/3 226/1/3
f 230/1/3 227/1/3 229/1/3
f 230/1/3 229/1/3 228/1/3
f 231/1/3 215/1/3 227/1/3
f 231/1/3 227/1/3 230/1/3
f 232/1/3 228/1/3 212/1/3
f 232/1/3 230/1/3 228/1/3
f 233/1/3 230/1/3 232/1/3
f 235/1/3 215/1/3 231/1/3
f 236/1/3 232/1/3 212/1/3
f 237/1/3 235/1/3 234/1/3
f 238/1/3 235/1/3 237/1/3
f 238/1/3 237/1/3 236/1/3
f 239/1/3 215/1/3 235/1/3
f 239/1/3 235/1/3 238/1/3
f 240/1/3 236/1/3 212/1/3
f 240/1/3 238/1/3 236/1/3
f 241/1/3 238/1/3 240/1/3
f 243/1/3 215/1/3 239/1/3
f 244/1/3 240/1/3 212/1/3
f 245/1/3 243/1/3 242/1/3
f 246/1/3 243/1/3 245/1/3
f 246/1/3 245/1/3 244/1/3
f 247/1/3 215/1/3 243/1/3
f 247/1/3 243/1/3 246/1/3
f 248/1/3 244/1/3 212/1/3
f 248/1/3 246/1/3 244/1/3
f 249/1/3 246/1/3 248/1/3
f 250/2/3 211/2/3 209/2/3
f 251/1/3 248/1/3 212/1/3
f 252/1/3 248/1/3 251/1/3
f 253/1/3 215/1/3 247/1/3
f 254/1/3 215/1/3 253/1/3
f 255/2/3 217/2/3 216/2/3
f 256/2/3 252/2/3 251/2/3
f 256/2/3 255/2/3 254/2/3
f 256/2/3 254/2/3 253/2/3
f 256/2/3 251/2/3 250/2/3
f 256/2/3 253/2/3 252/2/3
f 256/2/3 250/2/3 209/2/3
f 257/2/3 217/2/3 255/2/3
f 257/2/3 255/2/3 256/2/3
f 260/2/3 259/2/3 258/2/3
f 261/2/3 259/2/3 260/2/3
f 265/2/3 262/2/3 261/2/3
f 266/2/3 262/2/3 265/2/3
f 268/2/3 264/2/3 263/2/3
f 269/2/3 264/2/3 268/2/3
f 270/2/3 267/2/3 266/2/3
f 271/2/3 267/2/3 270/2/3
f 277/1/3 275/1/3 274/1/3
f 278/1/3 273/1/3 272/1/3
f 279/1/3 277/1/3 276/1/3
f 280/1/3 277/1/3 279/1/3
f 280/1/3 279/1/3 278/1/3
f 281/1/3 275/1/3 277/1/3
f 281/1/3 277/1/3 280/1/3
f 282/1/3 278/1/3 272/1/3
f 282/1/3 280/1/3 278/1/3
f 283/1/3 280/1/3 282/1/3
f 285/1/3 275/1/3 281/1/3
f 286/1/3 282/1/3 272/1/3
f 287/1/3 285/1/3 284/1/3
f 288/1/3 285/1/3 287/1/3
f 288/1/3 287/1/3 286/1/3
f 289/1/3 275/1/3 285/1/3
f 289/1/3 285/1/3 288/1/3
f 290/1/3 286/1/3 272/1/3
f 290/1/3 288/1/3 286/1/3
f 291/1/3 288/1/3 290/1/3
f 293/1/3 275/1/3 289/1/3
f 294/1/3 290/1/3 272/1/3
f 295/1/3 293/1/3 292/1/3
f 296/1/3 293/1/3 295/1/3
f 296/1/3 295/1/3 294/1/3
f 297/1/3 275/1/3 293/1/3
f 297/1/3 293/1/3 296/1/3
f 298/1/3 294/1/3 272/1/3
f 298/1/3 296/1/3 294/1/3
f 299/1/3 296/1/3 298/1/3
f 301/1/3 275/1/3 297/1/3
f 302/1/3 298/1/3 272/1/3
f 303/1/3 301/1/3 300/1/3
f 304/1/3 301/1/3 303/1/3
f 304/1/3 303/1/3 302/1/3
f 305/1/3 275/1/3 301/1/3
f 305/1/3 301/1/3 304/1/3
f 306/1/3 302/1/3 272/1/3
f 306/1/3 304/1/3 302/1/3
f 307/1/3 304/1/3 306/1/3
f 308/1/3 306/1/3 272/1/3
f 309/1/3 306/1/3 308/1/3
f 310/1/3 275/1/3 305/1/3
f 311/1/3 275/1/3 310/1/3
f 314/1/4 315/1/4 317/1/4
f 312/1/4 313/1/4 318/1/4
f 316/1/4 317/1/4 319/1/4
f 319/1/4 317/1/4 320/1/4
f 318/1/4 319/1/4 320/1/4
f 317/1/4 315/1/4 321/1/4
f 320/1/4 317/1/4 321/1/4
f 312/1/4 318/1/4 322/1/4
f 318/1/4 320/1/4 322/1/4
f 322/1/4 320/1/4 323/1/4
f 321/1/4 315/1/4 325/1/4
f 312/1/4 322/1/4 326/1/4
f 324/1/4 325/1/4 327/1/4
f 327/1/4 325/1/4 328/1/4
f 326/1/4 327/1/4 328/1/4
f 325/1/4 315/1/4 329/1/4
f 328/1/4 325/1/4 329/1/4
f 312/1/4 326/1/4 330/1/4
f 326/1/4 328/1/4 330/1/4
f 330/1/4 328/1/4 331/1/4
f 329/1/4 315/1/4 333/1/4
f 312/1/4 330/1/4 334/1/4
f 332/1/4 333/1/4 335/1/4
f 335/1/4 333/1/4 336/1/4
f 334/1/4 335/1/4 336/1/4
f 333/1/4 315/1/4 337/1/4
f 336/1/4 333/1/4 337/1/4
f 312/1/4 334/1/4 338/1/4
f 334/1/4 336/1/4 338/1/4
f 338/1/4 336/1/4 339/1/4
f 337/1/4 315/1/4 341/1/4
f 312/1/4 338/1/4 342/1/4
f 340/1/4 341/1/4 343/1/4
f 343/1/4 341/1/4 344/1/4
f 342/1/4 343/1/4 344/1/4
f 341/1/4 315/1/4 345/1/4
f 344/1/4 341/1/4 345/1/4
f 312/1/4 342/1/4 346/1/4
f 342/1/4 344/1/4 346/1/4
f 346/1/4 344/1/4 347/1/4
f 312/1/4 346/1/4 348/1/4
f 348/1/4 346/1/4 349/1/4
f 345/1/4 315/1/4 350/1/4
f 350/1/4 315/1/4 351/1/4
f 352/2/4 353/2/4 354/2/4
f 354/2/4 353/2/4 355/2/4
f 355/2/4 356/2/4 359/2/4
f 359/2/4 356/2/4 360/2/4
f 357/2/4 358/2/4 362/2/4
f 362/2/4 358/2/4 363/2/4
f 360/2/4 361/2/4 364/2/4
f 364/2/4 361/2/4 365/2/4
f 366/2/4 367/2/4 368/2/4
f 368/2/4 367/2/4 369/2/4
f 369/2/4 367/2/4 370/2/4
f 370/2/4 367/2/4 371/2/4
f 371/2/4 367/2/4 372/2/4
f 372/2/4 367/2/4 373/2/4
f 371/1/4 372/1/4 376/1/4
f 369/1/4 370/1/4 377/1/4
f 375/1/4 376/1/4 378/1/4
f 378/1/4 376/1/4 379/1/4
f 377/1/4 378/1/4 379/1/4
f 376/1/4 372/1/4 380/1/4
f 379/1/4 376/1/4 380/1/4
f 369/1/4 377/1/4 381/1/4
f 377/1/4 379/1/4 381/1/4
f 381/1/4 379/1/4 382/1/4
f 380/1/4 372/1/4 384/1/4
f 369/1/4 381/1/4 385/1/4
f 383/1/4 384/1/4 386/1/4
f 386/1/4 384/1/4 387/1/4
f 385/1/4 386/1/4 387/1/4
f 384/1/4 372/1/4 388/1/4
f 387/1/4 384/1/4 388/1/4
f 369/1/4 385/1/4 389/1/4
f 385/1/4 387/1/4 389/1/4
f 389/1/4 387/1/4 390/1/4
f 388/1/4 372/1/4 392/1/4
f 369/1/4 389/1/4 393/1/4
f 391/1/4 392/1/4 394/1/4
f 394/1/4 392/1/4 395/1/4
f 393/1/4 394/1/4 395/1/4
f 392/1/4 372/1/4 396/1/4
f 395/1/4 392/1/4 396/1/4
f 369/1/4 393/1/4 397/1/4
f 393/1/4 395/1/4 397/1/4
f 397/1/4 395/1/4 398/1/4
f 396/1/4 372/1/4 400/1/4
f 369/1/4 397/1/4 401/1/4
f 399/1/4 400/1/4 402/1/4
f 402/1/4 400/1/4 403/1/4
f 401/1/4 402/1/4 403/1/4
f 400/1/4 372/1/4 404/1/4
f 403/1/4 400/1/4 404/1/4
f 369/1/4 401/1/4 405/1/4
f 401/1/4 403/1/4 405/1/4
f 405/1/4 403/1/4 406/1/4
f 366/2/4 368/2/4 407/2/4
f 369/1/4 405/1/4 408/1/4
f 408/1/4 405/1/4 409/1/4
f 404/1/4 372/1/4 410/1/4
f 410/1/4 372/1/4 411/1/4
f 373/2/4 374/2/4 412/2/4
f 408/2/4 409/2/4 413/2/4
f 411/2/4 412/2/4 413/2/4
f 410/2/4 411/2/4 413/2/4
f 407/2/4 408/2/4 413/2/4
f 409/2/4 410/2/4 413/2/4
f 366/2/4 407/2/4 413/2/4
f 412/2/4 374/2/4 414/2/4
f 413/2/4 412/2/4 414/2/4
f 418/2/5 416/2/5 415/2/5
f 419/2/5 418/2/5 417/2/5
f 420/2/5 416/2/5 418/2/5
f 420/2/5 418/2/5 419/2/5
f 421/2/5 416/2/5 420/2/5
f 422/2/5 416/2/5 421/2/5
f 425/1/5 424/1/5 423/1/5
f 426/1/5 424/1/5 425/1/5
f 429/1/5 428/1/5 427/1/5
f 430/1/5 428/1/5 429/1/5
f 439/1/5 432/1/5 431/1/5
f 440/1/5 432/1/5 439/1/5
f 441/1/5 434/1/5 433/1/5
f 442/1/5 434/1/5 441/1/5
f 443/1/5 436/1/5 435/1/5
f 444/1/5 436/1/5 443/1/5
f 445/1/5 438/1/5 437/1/5
f 446/1/5 438/1/5 445/1/5
f 455/1/5 448/1/5 447/1/5
f 456/1/5 448/1/5 455/1/5
f 457/1/5 450/1/5 449/1/5
f 458/1/5 450/1/5 457/1/5
f 459/1/5 452/1/5 451/1/5
f 460/1/5 452/1/5 459/1/5
f 461/1/5 454/1/5 453/1/5
f 462/1/5 454/1/5 461/1/5
f 473/1/5 464/1/5 463/1/5
f 474/1/5 464/1/5 473/1/5
f 475/1/5 466/1/5 465/1/5
f 476/1/5 466/1/5 475/1/5
f 477/1/5 468/1/5 467/1/5
f 478/1/5 468/1/5 477/1/5
f 479/1/5 470/1/5 469/1/5
f 480/1/5 470/1/5 479/1/5
f 481/1/5 472/1/5 471/1/5
f 482/1/5 472/1/5 481/1/5
f 493/1/5 484/1/5 483/1/5
f 494/1/5 484/1/5 493/1/5
f 495/1/5 486/1/5 485/1/5
f 496/1/5 486/1/5 495/1/5
f 497/1/5 488/1/5 487/1/5
f 498/1/5 488/1/5 497/1/5
f 499/1/5 490/1/5 489/1/5
f 500/1/5 490/1/5 499/1/5
f 501/1/5 492/1/5 491/1/5
f 502/1/5 492/1/5 501/1/5
f 505/2/5 504/2/5 503/2/5
f 506/2/5 504/2/5 505/2/5
f 507/2/6 508/2/6 509/2/6
f 509/2/6 508/2/6 510/2/6
f 511/2/6 512/2/6 513/2/6
f 513/2/6 512/2/6 514/2/6
f 515/2/6 516/2/6 517/2/6
f 517/2/6 516/2/6 518/2/6
f 519/1/6 520/1/6 529/1/6
f 529/1/6 520/1/6 530/1/6
f 521/1/6 522/1/6 531/1/6
f 531/1/6 522/1/6 532/1/6
f 523/1/6 524/1/6 533/1/6
f 533/1/6 524/1/6 534/1/6
f 525/1/6 526/1/6 535/1/6
f 535/1/6 526/1/6 536/1/6
f 527/1/6 528/1/6 537/1/6
f 537/1/6 528/1/6 538/1/6
f 539/1/6 540/1/6 549/1/6
f 549/1/6 540/1/6 550/1/6
f 541/1/6 542/1/6 551/1/6
f 551/1/6 542/1/6 552/1/6
f 543/1/6 544/1/6 553/1/6
f 553/1/6 544/1/6 554/1/6
f 545/1/6 546/1/6 555/1/6
f 555/1/6 546/1/6 556/1/6
f 547/1/6 548/1/6 557/1/6
f 557/1/6 548/1/6 558/1/6
f 559/1/6 560/1/6 567/1/6
f 567/1/6 560/1/6 568/1/6
f 561/1/6 562/1/6 569/1/6
f 569/1/6 562/1/6 570/1/6
f 563/1/6 564/1/6 571/1/6
f 571/1/6 564/1/6 572/1/6
f 565/1/6 566/1/6 573/1/6
f 573/1/6 566/1/6 574/1/6
f 575/1/6 576/1/6 583/1/6
f 583/1/6 576/1/6 584/1/6
f 577/1/6 578/1/6 585/1/6
f 585/1/6 578/1/6 586/1/6
f 579/1/6 580/1/6 587/1/6
f 587/1/6 580/1/6 588/1/6
f 581/1/6 582/1/6 589/1/6
f 589/1/6 582/1/6 590/1/6
f 591/1/6 592/1/6 593/1/6
f 593/1/6 592/1/6 594/1/6
f 595/1/6 596/1/6 597/1/6
f 597/1/6 596/1/6 598/1/6
f 599/2/6 600/2/6 602/2/6
f 602/2/6 600/2/6 603/2/6
f 601/2/6 602/2/6 604/2/6
f 604/2/6 602/2/6 605/2/6
f 605/2/6 606/2/6 607/2/6
f 607/2/6 606/2/6 608/2/6
f 609/2/6 610/2/6 612/2/6
f 612/2/6 610/2/6 613/2/6
f 611/2/6 612/2/6 614/2/6
f 614/2/6 612/2/6 615/2/6
f 615/2/6 616/2/6 617/2/6
f 617/2/6 616/2/6 618/2/6
f 619/2/6 620/2/6 621/2/6
f 621/2/6 620/2/6 622/2/6
