# MagicaVoxel @ Ephtracy

# group
o 

# material
mtllib Item_magazine3.mtl
usemtl palette

# normals
vn -1 0 0
vn 1 0 0
vn 0 0 1
vn 0 0 -1
vn 0 -1 0
vn 0 1 0

# texcoords
vt 0.533203 0.5
vt 0.548828 0.5
vt 0.572266 0.5

# verts
v -0.2 -2 1.3
v -0.2 -2 1
v -0.2 -2 -1.3
v -0.2 -1.6 1.19209e-07
v -0.2 -1.6 -0.6
v -0.2 -1.5 1.19209e-07
v -0.2 -1.5 -0.6
v -0.2 -1.3 0.4
v -0.2 -1.3 0.2
v -0.2 -1.2 0.4
v -0.2 -1.2 0.3
v -0.2 -1.2 0.2
v -0.2 -1.2 -0.0999999
v -0.2 -1.1 0.3
v -0.2 -1.1 1.19209e-07
v -0.2 -1.1 -0.0999999
v -0.2 -1.1 -0.5
v -0.2 -1 1.19209e-07
v -0.2 -1 -0.5
v -0.2 -0.7 0.1
v -0.2 -0.7 1.19209e-07
v -0.2 -0.6 0.1
v -0.2 -0.6 1.19209e-07
v -0.2 -0.6 -0.5
v -0.2 -0.5 1.19209e-07
v -0.2 -0.5 -0.5
v -0.2 -0.3 0.3
v -0.2 -0.3 -0.4
v -0.2 -0.2 0.3
v -0.2 -0.2 -0.4
v -0.2 0.2 0.2
v -0.2 0.2 -0.0999999
v -0.2 0.3 0.2
v -0.2 0.3 1.19209e-07
v -0.2 0.3 -0.0999999
v -0.2 0.3 -0.7
v -0.2 0.4 1.19209e-07
v -0.2 0.4 -0.7
v -0.2 0.7 0.2
v -0.2 0.7 -0.7
v -0.2 0.8 0.2
v -0.2 0.8 -0.7
v -0.2 1.3 0.6
v -0.2 1.3 0.5
v -0.2 1.4 0.5
v -0.2 1.4 -0.6
v -0.2 1.5 0.6
v -0.2 1.5 -0.6
v -0.2 2.1 1.3
v -0.2 2.1 1
v -0.2 2.1 -1.3
v 0.2 -2 1.3
v 0.2 -2 1
v 0.2 -2 -1.3
v 0.2 -1.6 -0.3
v 0.2 -1.6 -0.7
v 0.2 -1.5 -0.2
v 0.2 -1.5 -0.3
v 0.2 -1.5 -0.4
v 0.2 -1.5 -0.6
v 0.2 -1.5 -0.7
v 0.2 -1.5 -0.8
v 0.2 -1.4 -0.0999999
v 0.2 -1.4 -0.2
v 0.2 -1.4 -0.4
v 0.2 -1.4 -0.6
v 0.2 -1.4 -0.8
v 0.2 -1.4 -0.9
v 0.2 -1.3 1.19209e-07
v 0.2 -1.3 -0.0999999
v 0.2 -1.3 -0.9
v 0.2 -1.3 -1
v 0.2 -1.2 -0.0999999
v 0.2 -1.2 -0.2
v 0.2 -1.2 -0.8
v 0.2 -1.2 -0.9
v 0.2 -1.2 -1
v 0.2 -1.2 -1.1
v 0.2 -1.1 -0.9
v 0.2 -1.1 -1.1
v 0.2 -0.9 -0.7
v 0.2 -0.9 -0.8
v 0.2 -0.8 -0.4
v 0.2 -0.8 -0.5
v 0.2 -0.8 -0.8
v 0.2 -0.8 -0.9
v 0.2 -0.7 1.19209e-07
v 0.2 -0.7 -0.0999999
v 0.2 -0.7 -0.7
v 0.2 -0.7 -0.8
v 0.2 -0.5 -0.5
v 0.2 -0.5 -0.6
v 0.2 -0.5 -0.8
v 0.2 -0.5 -0.9
v 0.2 -0.4 -0.4
v 0.2 -0.4 -0.6
v 0.2 0.3 -0.3
v 0.2 0.3 -0.4
v 0.2 0.6 0.5
v 0.2 0.6 0.4
v 0.2 0.7 0.4
v 0.2 0.7 -0.2
v 0.2 0.8 0.5
v 0.2 0.8 0.4
v 0.2 0.8 0.3
v 0.2 0.8 -0.0999999
v 0.2 0.8 -0.3
v 0.2 0.8 -0.4
v 0.2 0.9 1.19209e-07
v 0.2 0.9 -0.0999999
v 0.2 0.9 -0.8
v 0.2 0.9 -1.1
v 0.2 1 0.4
v 0.2 1 0.3
v 0.2 1 1.19209e-07
v 0.2 1 -0.0999999
v 0.2 1 -0.2
v 0.2 1 -0.4
v 0.2 1 -0.5
v 0.2 1 -0.9
v 0.2 1 -1
v 0.2 1.1 0.3
v 0.2 1.1 -0.0999999
v 0.2 1.1 -0.4
v 0.2 1.1 -0.5
v 0.2 1.1 -0.6
v 0.2 1.1 -0.7
v 0.2 1.1 -0.9
v 0.2 1.1 -1
v 0.2 1.2 -0.8
v 0.2 1.2 -0.9
v 0.2 1.3 0.1
v 0.2 1.3 -0.0999999
v 0.2 1.4 0.7
v 0.2 1.4 0.6
v 0.2 1.4 0.4
v 0.2 1.4 0.2
v 0.2 1.4 0.1
v 0.2 1.4 1.19209e-07
v 0.2 1.4 -0.2
v 0.2 1.4 -0.6
v 0.2 1.4 -0.9
v 0.2 1.4 -1.1
v 0.2 1.5 0.2
v 0.2 1.5 1.19209e-07
v 0.2 1.5 -0.0999999
v 0.2 1.5 -0.2
v 0.2 1.5 -0.3
v 0.2 1.5 -0.4
v 0.2 1.5 -0.5
v 0.2 1.5 -0.7
v 0.2 1.5 -0.9
v 0.2 1.6 0.4
v 0.2 1.6 0.3
v 0.2 1.6 0.2
v 0.2 1.6 1.19209e-07
v 0.2 1.6 -0.0999999
v 0.2 1.6 -0.2
v 0.2 1.6 -0.4
v 0.2 1.6 -0.5
v 0.2 1.6 -0.8
v 0.2 1.6 -0.9
v 0.2 1.6 -1
v 0.2 1.7 0.2
v 0.2 1.7 1.19209e-07
v 0.2 1.7 -0.3
v 0.2 1.7 -0.4
v 0.2 1.7 -0.8
v 0.2 1.7 -1
v 0.2 1.8 0.9
v 0.2 1.8 0.7
v 0.2 1.8 0.6
v 0.2 1.8 0.3
v 0.2 1.8 0.1
v 0.2 1.8 1.19209e-07
v 0.2 1.8 -0.0999999
v 0.2 1.9 0.9
v 0.2 1.9 0.3
v 0.2 1.9 0.1
v 0.2 1.9 1.19209e-07
v 0.2 1.9 -0.4
v 0.2 1.9 -0.5
v 0.2 2.1 1.3
v 0.2 2.1 1
v 0.2 2.1 -1.3
v -0.2 -2 1.3
v -0.2 2.1 1.3
v 0.2 -2 1.3
v 0.2 2.1 1.3
v -0.2 -2 -1.3
v -0.2 2.1 -1.3
v 0.2 -2 -1.3
v 0.2 2.1 -1.3
v -0.2 -2 1.3
v 0.2 -2 1.3
v -0.2 -2 1
v 0.2 -2 1
v -0.2 -2 -1.3
v 0.2 -2 -1.3
v -0.2 2.1 1.3
v 0.2 2.1 1.3
v -0.2 2.1 1
v 0.2 2.1 1
v -0.2 2.1 -1.3
v 0.2 2.1 -1.3

# faces
f 4/1/1 3/1/1 2/1/1
f 5/1/1 3/1/1 4/1/1
f 6/1/1 4/1/1 2/1/1
f 6/2/1 5/2/1 4/2/1
f 7/1/1 3/1/1 5/1/1
f 7/2/1 5/2/1 6/2/1
f 8/1/1 6/1/1 2/1/1
f 8/1/1 7/1/1 6/1/1
f 9/1/1 7/1/1 8/1/1
f 10/1/1 8/1/1 2/1/1
f 10/2/1 9/2/1 8/2/1
f 11/2/1 9/2/1 10/2/1
f 12/1/1 7/1/1 9/1/1
f 12/2/1 9/2/1 11/2/1
f 13/1/1 7/1/1 12/1/1
f 14/1/1 11/1/1 10/1/1
f 14/2/1 12/2/1 11/2/1
f 14/2/1 13/2/1 12/2/1
f 15/2/1 13/2/1 14/2/1
f 16/1/1 7/1/1 13/1/1
f 16/2/1 13/2/1 15/2/1
f 17/1/1 7/1/1 16/1/1
f 18/1/1 15/1/1 14/1/1
f 18/2/1 16/2/1 15/2/1
f 18/2/1 17/2/1 16/2/1
f 19/1/1 7/1/1 17/1/1
f 19/2/1 17/2/1 18/2/1
f 20/1/1 18/1/1 14/1/1
f 20/1/1 19/1/1 18/1/1
f 21/1/1 19/1/1 20/1/1
f 22/1/1 20/1/1 14/1/1
f 22/2/1 21/2/1 20/2/1
f 23/1/1 19/1/1 21/1/1
f 23/2/1 21/2/1 22/2/1
f 24/1/1 7/1/1 19/1/1
f 24/1/1 19/1/1 23/1/1
f 25/1/1 23/1/1 22/1/1
f 25/2/1 24/2/1 23/2/1
f 26/1/1 7/1/1 24/1/1
f 26/2/1 24/2/1 25/2/1
f 27/1/1 25/1/1 22/1/1
f 27/1/1 14/1/1 10/1/1
f 27/1/1 26/1/1 25/1/1
f 27/1/1 22/1/1 14/1/1
f 28/1/1 26/1/1 27/1/1
f 29/1/1 27/1/1 10/1/1
f 29/2/1 28/2/1 27/2/1
f 30/1/1 26/1/1 28/1/1
f 30/2/1 28/2/1 29/2/1
f 31/1/1 30/1/1 29/1/1
f 32/1/1 30/1/1 31/1/1
f 33/1/1 31/1/1 29/1/1
f 33/2/1 32/2/1 31/2/1
f 34/2/1 32/2/1 33/2/1
f 35/1/1 30/1/1 32/1/1
f 35/2/1 32/2/1 34/2/1
f 36/1/1 3/1/1 7/1/1
f 36/1/1 30/1/1 35/1/1
f 36/1/1 7/1/1 26/1/1
f 36/1/1 26/1/1 30/1/1
f 37/2/1 35/2/1 34/2/1
f 37/1/1 34/1/1 33/1/1
f 37/2/1 36/2/1 35/2/1
f 38/1/1 3/1/1 36/1/1
f 38/2/1 36/2/1 37/2/1
f 39/1/1 37/1/1 33/1/1
f 39/1/1 33/1/1 29/1/1
f 39/1/1 38/1/1 37/1/1
f 40/1/1 3/1/1 38/1/1
f 40/1/1 38/1/1 39/1/1
f 41/1/1 39/1/1 29/1/1
f 41/2/1 40/2/1 39/2/1
f 42/1/1 3/1/1 40/1/1
f 42/2/1 40/2/1 41/2/1
f 43/1/1 41/1/1 29/1/1
f 43/1/1 29/1/1 10/1/1
f 43/1/1 42/1/1 41/1/1
f 43/1/1 10/1/1 2/1/1
f 44/1/1 42/1/1 43/1/1
f 45/2/1 44/2/1 43/2/1
f 45/1/1 42/1/1 44/1/1
f 46/1/1 42/1/1 45/1/1
f 47/1/1 43/1/1 2/1/1
f 47/2/1 45/2/1 43/2/1
f 47/2/1 46/2/1 45/2/1
f 48/1/1 42/1/1 46/1/1
f 48/2/1 46/2/1 47/2/1
f 49/3/1 2/3/1 1/3/1
f 50/1/1 47/1/1 2/1/1
f 50/3/1 2/3/1 49/3/1
f 50/1/1 48/1/1 47/1/1
f 51/1/1 42/1/1 48/1/1
f 51/1/1 48/1/1 50/1/1
f 51/1/1 3/1/1 42/1/1
f 53/1/2 54/1/2 55/1/2
f 55/1/2 54/1/2 56/1/2
f 53/1/2 55/1/2 57/1/2
f 55/2/2 56/2/2 58/2/2
f 57/1/2 55/1/2 58/1/2
f 58/2/2 56/2/2 59/2/2
f 59/2/2 56/2/2 60/2/2
f 56/1/2 54/1/2 61/1/2
f 60/2/2 56/2/2 61/2/2
f 61/1/2 54/1/2 62/1/2
f 53/1/2 57/1/2 63/1/2
f 57/2/2 58/2/2 64/2/2
f 63/1/2 57/1/2 64/1/2
f 58/2/2 59/2/2 64/2/2
f 59/1/2 60/1/2 65/1/2
f 64/2/2 59/2/2 65/2/2
f 61/2/2 62/2/2 66/2/2
f 65/1/2 60/1/2 66/1/2
f 60/2/2 61/2/2 66/2/2
f 62/1/2 54/1/2 67/1/2
f 66/2/2 62/2/2 67/2/2
f 67/1/2 54/1/2 68/1/2
f 53/1/2 63/1/2 69/1/2
f 63/2/2 64/2/2 70/2/2
f 69/1/2 63/1/2 70/1/2
f 68/1/2 54/1/2 71/1/2
f 67/2/2 68/2/2 71/2/2
f 71/1/2 54/1/2 72/1/2
f 70/2/2 64/2/2 73/2/2
f 69/2/2 70/2/2 73/2/2
f 65/1/2 66/1/2 74/1/2
f 73/2/2 64/2/2 74/2/2
f 64/1/2 65/1/2 74/1/2
f 66/1/2 67/1/2 74/1/2
f 67/2/2 71/2/2 75/2/2
f 74/1/2 67/1/2 75/1/2
f 71/2/2 72/2/2 75/2/2
f 75/2/2 72/2/2 76/2/2
f 72/1/2 54/1/2 77/1/2
f 76/2/2 72/2/2 77/2/2
f 77/1/2 54/1/2 78/1/2
f 75/1/2 76/1/2 79/1/2
f 73/1/2 74/1/2 79/1/2
f 77/2/2 78/2/2 79/2/2
f 76/2/2 77/2/2 79/2/2
f 74/1/2 75/1/2 79/1/2
f 78/1/2 54/1/2 80/1/2
f 79/2/2 78/2/2 80/2/2
f 73/1/2 79/1/2 81/1/2
f 79/1/2 80/1/2 81/1/2
f 81/1/2 80/1/2 82/1/2
f 73/1/2 81/1/2 83/1/2
f 83/1/2 81/1/2 84/1/2
f 82/1/2 80/1/2 85/1/2
f 81/2/2 82/2/2 85/2/2
f 85/1/2 80/1/2 86/1/2
f 53/1/2 69/1/2 87/1/2
f 69/2/2 73/2/2 87/2/2
f 73/1/2 83/1/2 88/1/2
f 87/2/2 73/2/2 88/2/2
f 85/2/2 86/2/2 89/2/2
f 84/1/2 81/1/2 89/1/2
f 81/2/2 85/2/2 89/2/2
f 89/2/2 86/2/2 90/2/2
f 83/2/2 84/2/2 91/2/2
f 84/1/2 89/1/2 91/1/2
f 89/1/2 90/1/2 91/1/2
f 91/1/2 90/1/2 92/1/2
f 90/2/2 86/2/2 93/2/2
f 92/1/2 90/1/2 93/1/2
f 86/1/2 80/1/2 94/1/2
f 93/2/2 86/2/2 94/2/2
f 88/1/2 83/1/2 95/1/2
f 87/1/2 88/1/2 95/1/2
f 91/2/2 92/2/2 95/2/2
f 83/2/2 91/2/2 95/2/2
f 92/1/2 93/1/2 96/1/2
f 95/2/2 92/2/2 96/2/2
f 93/1/2 94/1/2 96/1/2
f 87/1/2 95/1/2 97/1/2
f 95/1/2 96/1/2 97/1/2
f 97/1/2 96/1/2 98/1/2
f 53/1/2 87/1/2 99/1/2
f 87/1/2 97/1/2 99/1/2
f 99/1/2 97/1/2 100/1/2
f 99/2/2 100/2/2 101/2/2
f 100/1/2 97/1/2 101/1/2
f 101/1/2 97/1/2 102/1/2
f 53/1/2 99/1/2 103/1/2
f 99/2/2 101/2/2 103/2/2
f 101/2/2 102/2/2 103/2/2
f 103/2/2 102/2/2 104/2/2
f 104/2/2 102/2/2 105/2/2
f 105/2/2 102/2/2 106/2/2
f 97/2/2 98/2/2 107/2/2
f 102/1/2 97/1/2 107/1/2
f 98/1/2 96/1/2 108/1/2
f 107/2/2 98/2/2 108/2/2
f 105/1/2 106/1/2 109/1/2
f 106/2/2 102/2/2 110/2/2
f 109/1/2 106/1/2 110/1/2
f 96/1/2 94/1/2 111/1/2
f 108/1/2 96/1/2 111/1/2
f 107/1/2 108/1/2 111/1/2
f 94/1/2 80/1/2 112/1/2
f 111/1/2 94/1/2 112/1/2
f 80/1/2 54/1/2 112/1/2
f 104/2/2 105/2/2 113/2/2
f 103/1/2 104/1/2 113/1/2
f 105/1/2 109/1/2 114/1/2
f 113/2/2 105/2/2 114/2/2
f 109/2/2 110/2/2 115/2/2
f 114/1/2 109/1/2 115/1/2
f 110/2/2 102/2/2 116/2/2
f 115/2/2 110/2/2 116/2/2
f 107/1/2 111/1/2 117/1/2
f 116/2/2 102/2/2 117/2/2
f 102/1/2 107/1/2 117/1/2
f 117/1/2 111/1/2 118/1/2
f 118/1/2 111/1/2 119/1/2
f 111/2/2 112/2/2 120/2/2
f 120/2/2 112/2/2 121/2/2
f 114/2/2 115/2/2 122/2/2
f 115/2/2 116/2/2 122/2/2
f 113/1/2 114/1/2 122/1/2
f 116/1/2 117/1/2 123/1/2
f 122/2/2 116/2/2 123/2/2
f 117/1/2 118/1/2 123/1/2
f 118/2/2 119/2/2 124/2/2
f 123/1/2 118/1/2 124/1/2
f 119/1/2 111/1/2 125/1/2
f 124/2/2 119/2/2 125/2/2
f 125/1/2 111/1/2 126/1/2
f 126/1/2 111/1/2 127/1/2
f 120/1/2 121/1/2 128/1/2
f 111/2/2 120/2/2 128/2/2
f 121/2/2 112/2/2 129/2/2
f 128/1/2 121/1/2 129/1/2
f 111/2/2 128/2/2 130/2/2
f 127/1/2 111/1/2 130/1/2
f 128/2/2 129/2/2 130/2/2
f 130/2/2 129/2/2 131/2/2
f 125/1/2 126/1/2 132/1/2
f 123/1/2 124/1/2 132/1/2
f 122/1/2 123/1/2 132/1/2
f 124/1/2 125/1/2 132/1/2
f 132/1/2 126/1/2 133/1/2
f 103/1/2 113/1/2 134/1/2
f 53/1/2 103/1/2 134/1/2
f 113/1/2 122/1/2 134/1/2
f 122/1/2 132/1/2 134/1/2
f 134/1/2 132/1/2 135/1/2
f 135/1/2 132/1/2 136/1/2
f 136/1/2 132/1/2 137/1/2
f 132/2/2 133/2/2 138/2/2
f 137/1/2 132/1/2 138/1/2
f 138/2/2 133/2/2 139/2/2
f 133/1/2 126/1/2 140/1/2
f 126/2/2 127/2/2 141/2/2
f 140/1/2 126/1/2 141/1/2
f 131/2/2 129/2/2 142/2/2
f 130/1/2 131/1/2 142/1/2
f 129/2/2 112/2/2 143/2/2
f 142/2/2 129/2/2 143/2/2
f 112/1/2 54/1/2 143/1/2
f 138/1/2 139/1/2 144/1/2
f 136/2/2 137/2/2 144/2/2
f 137/1/2 138/1/2 144/1/2
f 139/2/2 133/2/2 145/2/2
f 144/1/2 139/1/2 145/1/2
f 133/1/2 140/1/2 146/1/2
f 145/2/2 133/2/2 146/2/2
f 140/2/2 141/2/2 147/2/2
f 146/1/2 140/1/2 147/1/2
f 147/2/2 141/2/2 148/2/2
f 148/2/2 141/2/2 149/2/2
f 149/2/2 141/2/2 150/2/2
f 130/1/2 142/1/2 151/1/2
f 150/2/2 141/2/2 151/2/2
f 141/2/2 127/2/2 151/2/2
f 142/1/2 143/1/2 151/1/2
f 127/1/2 130/1/2 151/1/2
f 151/1/2 143/1/2 152/1/2
f 145/2/2 146/2/2 153/2/2
f 136/2/2 144/2/2 153/2/2
f 144/2/2 145/2/2 153/2/2
f 146/2/2 147/2/2 153/2/2
f 135/1/2 136/1/2 153/1/2
f 153/2/2 147/2/2 154/2/2
f 154/2/2 147/2/2 155/2/2
f 155/2/2 147/2/2 156/2/2
f 156/2/2 147/2/2 157/2/2
f 147/1/2 148/1/2 158/1/2
f 157/2/2 147/2/2 158/2/2
f 149/1/2 150/1/2 159/1/2
f 148/2/2 149/2/2 159/2/2
f 151/2/2 152/2/2 160/2/2
f 159/1/2 150/1/2 160/1/2
f 150/2/2 151/2/2 160/2/2
f 160/2/2 152/2/2 161/2/2
f 152/1/2 143/1/2 162/1/2
f 161/2/2 152/2/2 162/2/2
f 162/1/2 143/1/2 163/1/2
f 155/1/2 156/1/2 164/1/2
f 154/2/2 155/2/2 164/2/2
f 156/2/2 157/2/2 165/2/2
f 164/1/2 156/1/2 165/1/2
f 158/1/2 148/1/2 166/1/2
f 157/1/2 158/1/2 166/1/2
f 148/2/2 159/2/2 166/2/2
f 159/2/2 160/2/2 166/2/2
f 166/2/2 160/2/2 167/2/2
f 160/1/2 161/1/2 168/1/2
f 161/2/2 162/2/2 168/2/2
f 162/2/2 163/2/2 168/2/2
f 163/1/2 143/1/2 169/1/2
f 168/2/2 163/2/2 169/2/2
f 53/1/2 134/1/2 170/1/2
f 134/2/2 135/2/2 171/2/2
f 170/1/2 134/1/2 171/1/2
f 135/1/2 153/1/2 172/1/2
f 171/2/2 135/2/2 172/2/2
f 153/1/2 154/1/2 172/1/2
f 164/2/2 165/2/2 173/2/2
f 172/1/2 154/1/2 173/1/2
f 154/2/2 164/2/2 173/2/2
f 173/2/2 165/2/2 174/2/2
f 165/2/2 157/2/2 175/2/2
f 174/2/2 165/2/2 175/2/2
f 166/1/2 167/1/2 176/1/2
f 175/2/2 157/2/2 176/2/2
f 157/1/2 166/1/2 176/1/2
f 171/2/2 172/2/2 177/2/2
f 172/2/2 173/2/2 177/2/2
f 53/1/2 170/1/2 177/1/2
f 170/2/2 171/2/2 177/2/2
f 173/1/2 174/1/2 178/1/2
f 177/2/2 173/2/2 178/2/2
f 174/2/2 175/2/2 179/2/2
f 178/1/2 174/1/2 179/1/2
f 175/1/2 176/1/2 180/1/2
f 179/2/2 175/2/2 180/2/2
f 176/1/2 167/1/2 181/1/2
f 180/1/2 176/1/2 181/1/2
f 167/2/2 160/2/2 181/2/2
f 160/1/2 168/1/2 182/1/2
f 181/2/2 160/2/2 182/2/2
f 168/1/2 169/1/2 182/1/2
f 52/3/2 53/3/2 183/3/2
f 53/1/2 177/1/2 184/1/2
f 183/3/2 53/3/2 184/3/2
f 179/1/2 180/1/2 184/1/2
f 181/1/2 182/1/2 184/1/2
f 178/1/2 179/1/2 184/1/2
f 180/1/2 181/1/2 184/1/2
f 177/1/2 178/1/2 184/1/2
f 182/1/2 169/1/2 185/1/2
f 184/1/2 182/1/2 185/1/2
f 169/1/2 143/1/2 185/1/2
f 143/1/2 54/1/2 185/1/2
f 188/3/3 187/3/3 186/3/3
f 189/3/3 187/3/3 188/3/3
f 190/1/4 191/1/4 192/1/4
f 192/1/4 191/1/4 193/1/4
f 196/3/5 195/3/5 194/3/5
f 197/3/5 195/3/5 196/3/5
f 198/1/5 197/1/5 196/1/5
f 199/1/5 197/1/5 198/1/5
f 200/3/6 201/3/6 202/3/6
f 202/3/6 201/3/6 203/3/6
f 202/1/6 203/1/6 204/1/6
f 204/1/6 203/1/6 205/1/6
