# MagicaVoxel @ Ephtracy

# group
o 

# material
mtllib Item_sodaDrinks.mtl
usemtl palette

# normals
vn -1 0 0
vn 1 0 0
vn 0 0 1
vn 0 0 -1
vn 0 -1 0
vn 0 1 0

# texcoords
vt 0.580078 0.5
vt 0.658203 0.5
vt 0.724609 0.5
vt 0.748047 0.5
vt 0.814453 0.5

# verts
v 0.3 8.1 1.9
v 0.3 8.1 1.7
v 0.3 8.1 1.3
v 0.3 8.1 1.1
v 0.3 8.2 1.7
v 0.3 8.2 1.3
v 0.3 9.1 1.9
v 0.3 9.1 1.1
v 0.3 10.1 2
v 0.3 10.1 1
v 0.3 10.4 2
v 0.3 10.4 1
v 0.4 8.1 2
v 0.4 8.1 1.9
v 0.4 8.1 1.1
v 0.4 8.1 1
v 0.4 9.1 2
v 0.4 9.1 1.9
v 0.4 9.1 1.1
v 0.4 9.1 1
v 0.4 9.2 1.8
v 0.4 9.2 1.6
v 0.4 9.2 1.5
v 0.4 9.2 1.2
v 0.4 9.4 1.8
v 0.4 9.4 1.6
v 0.4 9.4 1.5
v 0.4 9.4 1.2
v 0.4 9.5 1.8
v 0.4 9.5 1.2
v 0.4 9.6 1.8
v 0.4 9.6 1.2
v 0.4 9.7 1.8
v 0.4 9.7 1.2
v 0.4 9.8 1.8
v 0.4 9.8 1.2
v 0.4 9.9 1.8
v 0.4 9.9 1.2
v 0.4 10 1.8
v 0.4 10 1.2
v 0.4 10.1 1.9
v 0.4 10.1 1.1
v 0.4 10.4 1.9
v 0.4 10.4 1.1
v 0.4 10.7 1.9
v 0.4 10.7 1.1
v 0.5 10.7 1.8
v 0.5 10.7 1.2
v 0.5 11 1.8
v 0.5 11 1.2
v 0.6 11 1.7
v 0.6 11 1.3
v 0.6 11.3 1.7
v 0.6 11.3 1.3
v 1 8.1 2
v 1 8.1 1.7
v 1 8.1 1.3
v 1 8.1 1
v 1 8.2 2
v 1 8.2 1.7
v 1 8.2 1.3
v 1 8.2 1
v 0.6 8.1 2
v 0.6 8.1 1.7
v 0.6 8.1 1.3
v 0.6 8.1 1
v 0.6 8.2 2
v 0.6 8.2 1.7
v 0.6 8.2 1.3
v 0.6 8.2 1
v 1 11 1.7
v 1 11 1.3
v 1 11.3 1.7
v 1 11.3 1.3
v 1.1 10.7 1.8
v 1.1 10.7 1.2
v 1.1 11 1.8
v 1.1 11 1.2
v 1.2 8.1 2
v 1.2 8.1 1.9
v 1.2 8.1 1.1
v 1.2 8.1 1
v 1.2 9.1 2
v 1.2 9.1 1.9
v 1.2 9.1 1.1
v 1.2 9.1 1
v 1.2 10.1 1.9
v 1.2 10.1 1.1
v 1.2 10.4 1.9
v 1.2 10.4 1.1
v 1.2 10.7 1.9
v 1.2 10.7 1.1
v 1.3 8.1 1.9
v 1.3 8.1 1.7
v 1.3 8.1 1.3
v 1.3 8.1 1.1
v 1.3 8.2 1.7
v 1.3 8.2 1.3
v 1.3 9.1 1.9
v 1.3 9.1 1.1
v 1.3 10.1 2
v 1.3 10.1 1
v 1.3 10.4 2
v 1.3 10.4 1
v 0.3 10.1 2
v 0.3 10.4 2
v 0.4 8.1 2
v 0.4 9.1 2
v 0.6 8.1 2
v 0.6 8.2 2
v 1 8.1 2
v 1 8.2 2
v 1.2 8.1 2
v 1.2 9.1 2
v 1.3 10.1 2
v 1.3 10.4 2
v 0.3 8.1 1.9
v 0.3 9.1 1.9
v 0.4 8.1 1.9
v 0.4 9.1 1.9
v 0.4 10.1 1.9
v 0.4 10.4 1.9
v 0.4 10.7 1.9
v 0.5 9.3 1.9
v 0.5 10 1.9
v 0.6 9.4 1.9
v 0.6 9.5 1.9
v 0.6 9.6 1.9
v 0.6 9.7 1.9
v 0.6 9.8 1.9
v 0.6 9.9 1.9
v 1.1 9.3 1.9
v 1.1 9.4 1.9
v 1.1 9.5 1.9
v 1.1 9.6 1.9
v 1.1 9.7 1.9
v 1.1 9.8 1.9
v 1.1 9.9 1.9
v 1.1 10 1.9
v 1.2 8.1 1.9
v 1.2 9.1 1.9
v 1.2 10.1 1.9
v 1.2 10.4 1.9
v 1.2 10.7 1.9
v 1.3 8.1 1.9
v 1.3 9.1 1.9
v 0.5 10.7 1.8
v 0.5 11 1.8
v 1.1 10.7 1.8
v 1.1 11 1.8
v 0.6 11 1.7
v 0.6 11.3 1.7
v 1 11 1.7
v 1 11.3 1.7
v 0.3 8.1 1.3
v 0.3 8.2 1.3
v 0.6 8.1 1.3
v 0.6 8.2 1.3
v 1 8.1 1.3
v 1 8.2 1.3
v 1.3 8.1 1.3
v 1.3 8.2 1.3
v 0.3 8.1 1.7
v 0.3 8.2 1.7
v 0.6 8.1 1.7
v 0.6 8.2 1.7
v 1 8.1 1.7
v 1 8.2 1.7
v 1.3 8.1 1.7
v 1.3 8.2 1.7
v 0.6 11 1.3
v 0.6 11.3 1.3
v 1 11 1.3
v 1 11.3 1.3
v 0.5 10.7 1.2
v 0.5 11 1.2
v 1.1 10.7 1.2
v 1.1 11 1.2
v 0.3 8.1 1.1
v 0.3 9.1 1.1
v 0.4 8.1 1.1
v 0.4 9.1 1.1
v 0.4 10.1 1.1
v 0.4 10.4 1.1
v 0.4 10.7 1.1
v 1.2 8.1 1.1
v 1.2 9.1 1.1
v 1.2 10.1 1.1
v 1.2 10.4 1.1
v 1.2 10.7 1.1
v 1.3 8.1 1.1
v 1.3 9.1 1.1
v 0.3 10.1 1
v 0.3 10.4 1
v 0.4 8.1 1
v 0.4 9.1 1
v 0.6 8.1 1
v 0.6 8.2 1
v 1 8.1 1
v 1 8.2 1
v 1.2 8.1 1
v 1.2 9.1 1
v 1.3 10.1 1
v 1.3 10.4 1
v 0.4 8.1 2
v 0.6 8.1 2
v 1 8.1 2
v 1.2 8.1 2
v 0.3 8.1 1.9
v 0.4 8.1 1.9
v 1.2 8.1 1.9
v 1.3 8.1 1.9
v 0.3 8.1 1.7
v 0.6 8.1 1.7
v 1 8.1 1.7
v 1.3 8.1 1.7
v 0.3 8.1 1.3
v 0.6 8.1 1.3
v 1 8.1 1.3
v 1.3 8.1 1.3
v 0.3 8.1 1.1
v 0.4 8.1 1.1
v 1.2 8.1 1.1
v 1.3 8.1 1.1
v 0.4 8.1 1
v 0.6 8.1 1
v 1 8.1 1
v 1.2 8.1 1
v 0.6 8.2 2
v 1 8.2 2
v 0.3 8.2 1.7
v 0.6 8.2 1.7
v 1 8.2 1.7
v 1.3 8.2 1.7
v 0.3 8.2 1.3
v 0.6 8.2 1.3
v 1 8.2 1.3
v 1.3 8.2 1.3
v 0.6 8.2 1
v 1 8.2 1
v 0.3 10.1 2
v 1.3 10.1 2
v 0.4 10.1 1.9
v 1.2 10.1 1.9
v 0.4 10.1 1.1
v 1.2 10.1 1.1
v 0.3 10.1 1
v 1.3 10.1 1
v 0.4 9.1 2
v 1.2 9.1 2
v 0.3 9.1 1.9
v 0.4 9.1 1.9
v 1.2 9.1 1.9
v 1.3 9.1 1.9
v 0.3 9.1 1.1
v 0.4 9.1 1.1
v 1.2 9.1 1.1
v 1.3 9.1 1.1
v 0.4 9.1 1
v 1.2 9.1 1
v 0.3 10.4 2
v 1.3 10.4 2
v 0.4 10.4 1.9
v 1.2 10.4 1.9
v 0.4 10.4 1.1
v 1.2 10.4 1.1
v 0.3 10.4 1
v 1.3 10.4 1
v 0.4 10.7 1.9
v 1.2 10.7 1.9
v 0.5 10.7 1.8
v 1.1 10.7 1.8
v 0.5 10.7 1.2
v 1.1 10.7 1.2
v 0.4 10.7 1.1
v 1.2 10.7 1.1
v 0.5 11 1.8
v 1.1 11 1.8
v 0.6 11 1.7
v 1 11 1.7
v 0.6 11 1.3
v 1 11 1.3
v 0.5 11 1.2
v 1.1 11 1.2
v 0.6 11.3 1.7
v 1 11.3 1.7
v 0.6 11.3 1.3
v 1 11.3 1.3

# faces
f 5/5/1 2/5/1 1/5/1
f 6/5/1 4/5/1 3/5/1
f 7/5/1 5/5/1 1/5/1
f 7/5/1 6/5/1 5/5/1
f 8/5/1 4/5/1 6/5/1
f 8/5/1 6/5/1 7/5/1
f 11/5/1 10/5/1 9/5/1
f 12/5/1 10/5/1 11/5/1
f 17/5/1 14/5/1 13/5/1
f 18/5/1 14/5/1 17/5/1
f 19/5/1 16/5/1 15/5/1
f 20/5/1 16/5/1 19/5/1
f 21/4/1 19/4/1 18/4/1
f 22/4/1 19/4/1 21/4/1
f 23/4/1 19/4/1 22/4/1
f 24/4/1 19/4/1 23/4/1
f 25/4/1 21/4/1 18/4/1
f 25/1/1 22/1/1 21/1/1
f 26/4/1 23/4/1 22/4/1
f 26/1/1 22/1/1 25/1/1
f 27/1/1 24/1/1 23/1/1
f 27/4/1 23/4/1 26/4/1
f 28/4/1 19/4/1 24/4/1
f 28/1/1 24/1/1 27/1/1
f 29/4/1 27/4/1 26/4/1
f 29/4/1 26/4/1 25/4/1
f 29/4/1 28/4/1 27/4/1
f 29/4/1 25/4/1 18/4/1
f 30/4/1 19/4/1 28/4/1
f 30/4/1 28/4/1 29/4/1
f 31/4/1 29/4/1 18/4/1
f 31/1/1 30/1/1 29/1/1
f 32/4/1 19/4/1 30/4/1
f 32/1/1 30/1/1 31/1/1
f 33/4/1 31/4/1 18/4/1
f 33/4/1 32/4/1 31/4/1
f 34/4/1 19/4/1 32/4/1
f 34/4/1 32/4/1 33/4/1
f 35/4/1 33/4/1 18/4/1
f 35/1/1 34/1/1 33/1/1
f 36/4/1 19/4/1 34/4/1
f 36/1/1 34/1/1 35/1/1
f 37/4/1 35/4/1 18/4/1
f 37/4/1 36/4/1 35/4/1
f 38/4/1 19/4/1 36/4/1
f 38/4/1 36/4/1 37/4/1
f 39/4/1 37/4/1 18/4/1
f 39/1/1 38/1/1 37/1/1
f 40/4/1 19/4/1 38/4/1
f 40/1/1 38/1/1 39/1/1
f 41/4/1 39/4/1 18/4/1
f 41/4/1 40/4/1 39/4/1
f 42/4/1 19/4/1 40/4/1
f 42/4/1 40/4/1 41/4/1
f 45/5/1 44/5/1 43/5/1
f 46/5/1 44/5/1 45/5/1
f 49/5/1 48/5/1 47/5/1
f 50/5/1 48/5/1 49/5/1
f 53/3/1 52/3/1 51/3/1
f 54/3/1 52/3/1 53/3/1
f 59/5/1 56/5/1 55/5/1
f 60/5/1 56/5/1 59/5/1
f 61/5/1 58/5/1 57/5/1
f 62/5/1 58/5/1 61/5/1
f 63/5/2 64/5/2 67/5/2
f 67/5/2 64/5/2 68/5/2
f 65/5/2 66/5/2 69/5/2
f 69/5/2 66/5/2 70/5/2
f 71/3/2 72/3/2 73/3/2
f 73/3/2 72/3/2 74/3/2
f 75/5/2 76/5/2 77/5/2
f 77/5/2 76/5/2 78/5/2
f 79/5/2 80/5/2 83/5/2
f 83/5/2 80/5/2 84/5/2
f 81/5/2 82/5/2 85/5/2
f 85/5/2 82/5/2 86/5/2
f 84/4/2 85/4/2 87/4/2
f 87/4/2 85/4/2 88/4/2
f 89/5/2 90/5/2 91/5/2
f 91/5/2 90/5/2 92/5/2
f 93/5/2 94/5/2 97/5/2
f 95/5/2 96/5/2 98/5/2
f 93/5/2 97/5/2 99/5/2
f 97/5/2 98/5/2 99/5/2
f 98/5/2 96/5/2 100/5/2
f 99/5/2 98/5/2 100/5/2
f 101/5/2 102/5/2 103/5/2
f 103/5/2 102/5/2 104/5/2
f 109/5/3 108/5/3 107/5/3
f 110/5/3 108/5/3 109/5/3
f 112/5/3 108/5/3 110/5/3
f 113/5/3 112/5/3 111/5/3
f 114/5/3 108/5/3 112/5/3
f 114/5/3 112/5/3 113/5/3
f 115/5/3 106/5/3 105/5/3
f 116/5/3 106/5/3 115/5/3
f 119/5/3 118/5/3 117/5/3
f 120/5/3 118/5/3 119/5/3
f 124/4/3 121/4/3 120/4/3
f 125/4/3 121/4/3 124/4/3
f 126/2/3 125/2/3 124/2/3
f 127/2/3 125/2/3 126/2/3
f 128/2/3 125/2/3 127/2/3
f 129/2/3 125/2/3 128/2/3
f 130/2/3 125/2/3 129/2/3
f 131/2/3 125/2/3 130/2/3
f 132/4/3 124/4/3 120/4/3
f 132/2/3 126/2/3 124/2/3
f 133/4/3 127/4/3 126/4/3
f 133/2/3 126/2/3 132/2/3
f 134/1/3 128/1/3 127/1/3
f 134/4/3 127/4/3 133/4/3
f 135/4/3 129/4/3 128/4/3
f 135/1/3 128/1/3 134/1/3
f 136/1/3 130/1/3 129/1/3
f 136/4/3 129/4/3 135/4/3
f 137/4/3 131/4/3 130/4/3
f 137/1/3 130/1/3 136/1/3
f 138/2/3 125/2/3 131/2/3
f 138/4/3 131/4/3 137/4/3
f 139/4/3 121/4/3 125/4/3
f 139/2/3 125/2/3 138/2/3
f 141/4/3 137/4/3 136/4/3
f 141/4/3 138/4/3 137/4/3
f 141/4/3 139/4/3 138/4/3
f 141/4/3 135/4/3 134/4/3
f 141/4/3 134/4/3 133/4/3
f 141/4/3 133/4/3 132/4/3
f 141/4/3 132/4/3 120/4/3
f 141/4/3 136/4/3 135/4/3
f 142/4/3 121/4/3 139/4/3
f 142/4/3 139/4/3 141/4/3
f 143/5/3 123/5/3 122/5/3
f 144/5/3 123/5/3 143/5/3
f 145/5/3 141/5/3 140/5/3
f 146/5/3 141/5/3 145/5/3
f 149/5/3 148/5/3 147/5/3
f 150/5/3 148/5/3 149/5/3
f 153/3/3 152/3/3 151/3/3
f 154/3/3 152/3/3 153/3/3
f 157/5/3 156/5/3 155/5/3
f 158/5/3 156/5/3 157/5/3
f 161/5/3 160/5/3 159/5/3
f 162/5/3 160/5/3 161/5/3
f 163/5/4 164/5/4 165/5/4
f 165/5/4 164/5/4 166/5/4
f 167/5/4 168/5/4 169/5/4
f 169/5/4 168/5/4 170/5/4
f 171/3/4 172/3/4 173/3/4
f 173/3/4 172/3/4 174/3/4
f 175/5/4 176/5/4 177/5/4
f 177/5/4 176/5/4 178/5/4
f 179/5/4 180/5/4 181/5/4
f 181/5/4 180/5/4 182/5/4
f 182/4/4 183/4/4 187/4/4
f 187/4/4 183/4/4 188/4/4
f 184/5/4 185/5/4 189/5/4
f 189/5/4 185/5/4 190/5/4
f 186/5/4 187/5/4 191/5/4
f 191/5/4 187/5/4 192/5/4
f 195/5/4 196/5/4 197/5/4
f 197/5/4 196/5/4 198/5/4
f 198/5/4 196/5/4 200/5/4
f 199/5/4 200/5/4 201/5/4
f 200/5/4 196/5/4 202/5/4
f 201/5/4 200/5/4 202/5/4
f 193/5/4 194/5/4 203/5/4
f 203/5/4 194/5/4 204/5/4
f 210/5/5 206/5/5 205/5/5
f 211/5/5 208/5/5 207/5/5
f 213/5/5 210/5/5 209/5/5
f 214/5/5 206/5/5 210/5/5
f 214/5/5 210/5/5 213/5/5
f 215/5/5 212/5/5 211/5/5
f 215/5/5 211/5/5 207/5/5
f 216/5/5 212/5/5 215/5/5
f 221/5/5 218/5/5 217/5/5
f 222/5/5 218/5/5 221/5/5
f 223/5/5 220/5/5 219/5/5
f 224/5/5 220/5/5 223/5/5
f 225/5/5 218/5/5 222/5/5
f 226/5/5 218/5/5 225/5/5
f 227/5/5 223/5/5 219/5/5
f 228/5/5 223/5/5 227/5/5
f 232/5/5 230/5/5 229/5/5
f 233/5/5 230/5/5 232/5/5
f 235/5/5 232/5/5 231/5/5
f 235/5/5 234/5/5 233/5/5
f 235/5/5 233/5/5 232/5/5
f 236/5/5 234/5/5 235/5/5
f 237/5/5 234/5/5 236/5/5
f 238/5/5 234/5/5 237/5/5
f 239/5/5 237/5/5 236/5/5
f 240/5/5 237/5/5 239/5/5
f 243/5/5 242/5/5 241/5/5
f 244/5/5 242/5/5 243/5/5
f 245/5/5 243/5/5 241/5/5
f 246/5/5 242/5/5 244/5/5
f 247/5/5 245/5/5 241/5/5
f 247/5/5 246/5/5 245/5/5
f 248/5/5 242/5/5 246/5/5
f 248/5/5 246/5/5 247/5/5
f 249/5/6 250/5/6 252/5/6
f 252/5/6 250/5/6 253/5/6
f 251/5/6 252/5/6 255/5/6
f 255/5/6 252/5/6 256/5/6
f 253/5/6 254/5/6 257/5/6
f 257/5/6 254/5/6 258/5/6
f 256/5/6 257/5/6 259/5/6
f 259/5/6 257/5/6 260/5/6
f 261/5/6 262/5/6 263/5/6
f 263/5/6 262/5/6 264/5/6
f 261/5/6 263/5/6 265/5/6
f 264/5/6 262/5/6 266/5/6
f 261/5/6 265/5/6 267/5/6
f 265/5/6 266/5/6 267/5/6
f 266/5/6 262/5/6 268/5/6
f 267/5/6 266/5/6 268/5/6
f 269/5/6 270/5/6 271/5/6
f 271/5/6 270/5/6 272/5/6
f 269/5/6 271/5/6 273/5/6
f 272/5/6 270/5/6 274/5/6
f 269/5/6 273/5/6 275/5/6
f 273/5/6 274/5/6 275/5/6
f 274/5/6 270/5/6 276/5/6
f 275/5/6 274/5/6 276/5/6
f 277/5/6 278/5/6 279/5/6
f 279/5/6 278/5/6 280/5/6
f 277/5/6 279/5/6 281/5/6
f 280/5/6 278/5/6 282/5/6
f 277/5/6 281/5/6 283/5/6
f 281/5/6 282/5/6 283/5/6
f 282/5/6 278/5/6 284/5/6
f 283/5/6 282/5/6 284/5/6
f 285/3/6 286/3/6 287/3/6
f 287/3/6 286/3/6 288/3/6
