# MagicaVoxel @ Ephtracy

# group
o 

# material
mtllib Item_waterDrinks.mtl
usemtl palette

# normals
vn -1 0 0
vn 1 0 0
vn 0 0 1
vn 0 0 -1
vn 0 -1 0
vn 0 1 0

# texcoords
vt 0.275391 0.5
vt 0.576172 0.5
vt 0.580078 0.5

# verts
v 0.3 8.1 2
v 0.3 8.1 1
v 0.3 9.1 2
v 0.3 9.1 1
v 0.3 9.2 1.9
v 0.3 9.2 1.6
v 0.3 9.2 1.5
v 0.3 9.2 1.1
v 0.3 9.4 1.9
v 0.3 9.4 1.6
v 0.3 9.4 1.5
v 0.3 9.4 1.1
v 0.3 9.5 1.9
v 0.3 9.5 1.1
v 0.3 9.6 1.9
v 0.3 9.6 1.1
v 0.3 9.7 1.9
v 0.3 9.7 1.1
v 0.3 9.8 1.9
v 0.3 9.8 1.1
v 0.3 9.9 1.9
v 0.3 9.9 1.1
v 0.3 10 1.9
v 0.3 10 1.1
v 0.3 10.1 2
v 0.3 10.1 1
v 0.3 11 2
v 0.3 11 1
v 0.6 11 1.7
v 0.6 11 1.3
v 0.6 11.3 1.7
v 0.6 11.3 1.3
v 1 11 1.7
v 1 11 1.3
v 1 11.3 1.7
v 1 11.3 1.3
v 1.3 8.1 2
v 1.3 8.1 1
v 1.3 9.1 2
v 1.3 9.1 1
v 1.3 9.3 1.5
v 1.3 9.3 1
v 1.3 9.4 1.6
v 1.3 9.4 1.5
v 1.3 9.5 1.6
v 1.3 9.5 1
v 1.3 9.7 1.9
v 1.3 9.7 1.8
v 1.3 9.7 1.7
v 1.3 9.7 1.6
v 1.3 9.7 1.5
v 1.3 9.7 1.4
v 1.3 9.9 1.9
v 1.3 9.9 1.8
v 1.3 9.9 1.7
v 1.3 9.9 1.6
v 1.3 9.9 1.5
v 1.3 9.9 1.4
v 1.3 9.9 1.2
v 1.3 10 1.8
v 1.3 10 1.7
v 1.3 10 1.6
v 1.3 10 1.5
v 1.3 10 1.4
v 1.3 10 1.2
v 1.3 10.1 2
v 1.3 10.1 1
v 1.3 10.3 1.8
v 1.3 10.3 1.2
v 1.3 10.4 1.9
v 1.3 10.4 1.8
v 1.3 10.4 1.2
v 1.3 10.4 1.1
v 1.3 10.6 1.9
v 1.3 10.6 1.8
v 1.3 10.6 1.2
v 1.3 10.6 1.1
v 1.3 10.7 1.7
v 1.3 10.7 1.6
v 1.3 10.7 1.4
v 1.3 10.7 1.3
v 1.3 10.8 1.7
v 1.3 10.8 1.6
v 1.3 10.8 1.4
v 1.3 10.8 1.3
v 1.3 11 2
v 1.3 11 1
v 0.3 8.1 2
v 0.3 9.1 2
v 0.3 10.1 2
v 0.3 11 2
v 0.4 9.3 2
v 0.4 10 2
v 0.5 9.3 2
v 0.5 10 2
v 0.6 9.3 2
v 0.6 9.4 2
v 0.6 9.5 2
v 0.6 9.6 2
v 0.6 9.7 2
v 0.6 9.8 2
v 0.6 9.9 2
v 0.6 10 2
v 1 9.3 2
v 1 9.4 2
v 1 9.5 2
v 1 9.6 2
v 1 9.7 2
v 1 9.8 2
v 1 9.9 2
v 1 10 2
v 1.1 9.3 2
v 1.1 9.4 2
v 1.1 9.5 2
v 1.1 9.6 2
v 1.1 9.7 2
v 1.1 9.8 2
v 1.1 9.9 2
v 1.1 10 2
v 1.2 9.3 2
v 1.2 9.4 2
v 1.2 9.5 2
v 1.2 9.6 2
v 1.2 9.7 2
v 1.2 9.8 2
v 1.2 9.9 2
v 1.2 10 2
v 1.3 8.1 2
v 1.3 9.1 2
v 1.3 10.1 2
v 1.3 11 2
v 0.6 11 1.7
v 0.6 11.3 1.7
v 1 11 1.7
v 1 11.3 1.7
v 0.6 11 1.3
v 0.6 11.3 1.3
v 1 11 1.3
v 1 11.3 1.3
v 0.3 8.1 1
v 0.3 9.1 1
v 0.3 10.1 1
v 0.3 11 1
v 0.4 9.6 1
v 0.4 10 1
v 0.5 9.3 1
v 0.5 9.5 1
v 0.7 9.6 1
v 0.7 10 1
v 0.9 9.6 1
v 0.9 10 1
v 1 9.6 1
v 1 10 1
v 1.1 9.6 1
v 1.1 10 1
v 1.2 9.6 1
v 1.2 10 1
v 1.3 8.1 1
v 1.3 9.1 1
v 1.3 9.3 1
v 1.3 9.5 1
v 1.3 10.1 1
v 1.3 11 1
v 0.3 8.1 2
v 1.3 8.1 2
v 0.3 8.1 1
v 1.3 8.1 1
v 0.3 11 2
v 1.3 11 2
v 0.6 11 1.7
v 1 11 1.7
v 0.6 11 1.3
v 1 11 1.3
v 0.3 11 1
v 1.3 11 1
v 0.6 11.3 1.7
v 1 11.3 1.7
v 0.6 11.3 1.3
v 1 11.3 1.3

# faces
f 3/1/1 2/1/1 1/1/1
f 4/1/1 2/1/1 3/1/1
f 5/2/1 4/2/1 3/2/1
f 6/2/1 4/2/1 5/2/1
f 7/2/1 4/2/1 6/2/1
f 8/2/1 4/2/1 7/2/1
f 9/2/1 5/2/1 3/2/1
f 9/3/1 6/3/1 5/3/1
f 10/2/1 7/2/1 6/2/1
f 10/3/1 6/3/1 9/3/1
f 11/3/1 8/3/1 7/3/1
f 11/2/1 7/2/1 10/2/1
f 12/2/1 4/2/1 8/2/1
f 12/3/1 8/3/1 11/3/1
f 13/2/1 11/2/1 10/2/1
f 13/2/1 10/2/1 9/2/1
f 13/2/1 12/2/1 11/2/1
f 13/2/1 9/2/1 3/2/1
f 14/2/1 4/2/1 12/2/1
f 14/2/1 12/2/1 13/2/1
f 15/2/1 13/2/1 3/2/1
f 15/3/1 14/3/1 13/3/1
f 16/2/1 4/2/1 14/2/1
f 16/3/1 14/3/1 15/3/1
f 17/2/1 15/2/1 3/2/1
f 17/2/1 16/2/1 15/2/1
f 18/2/1 4/2/1 16/2/1
f 18/2/1 16/2/1 17/2/1
f 19/2/1 17/2/1 3/2/1
f 19/3/1 18/3/1 17/3/1
f 20/2/1 4/2/1 18/2/1
f 20/3/1 18/3/1 19/3/1
f 21/2/1 19/2/1 3/2/1
f 21/2/1 20/2/1 19/2/1
f 22/2/1 4/2/1 20/2/1
f 22/2/1 20/2/1 21/2/1
f 23/2/1 21/2/1 3/2/1
f 23/3/1 22/3/1 21/3/1
f 24/2/1 4/2/1 22/2/1
f 24/3/1 22/3/1 23/3/1
f 25/2/1 23/2/1 3/2/1
f 25/2/1 24/2/1 23/2/1
f 26/2/1 4/2/1 24/2/1
f 26/2/1 24/2/1 25/2/1
f 27/1/1 26/1/1 25/1/1
f 28/1/1 26/1/1 27/1/1
f 31/3/1 30/3/1 29/3/1
f 32/3/1 30/3/1 31/3/1
f 33/3/2 34/3/2 35/3/2
f 35/3/2 34/3/2 36/3/2
f 37/1/2 38/1/2 39/1/2
f 39/1/2 38/1/2 40/1/2
f 39/2/2 40/2/2 41/2/2
f 41/2/2 40/2/2 42/2/2
f 39/2/2 41/2/2 43/2/2
f 41/3/2 42/3/2 44/3/2
f 43/2/2 41/2/2 44/2/2
f 39/2/2 43/2/2 45/2/2
f 43/3/2 44/3/2 45/3/2
f 44/3/2 42/3/2 46/3/2
f 45/3/2 44/3/2 46/3/2
f 39/2/2 45/2/2 47/2/2
f 45/2/2 46/2/2 47/2/2
f 47/2/2 46/2/2 48/2/2
f 48/2/2 46/2/2 49/2/2
f 49/2/2 46/2/2 50/2/2
f 50/2/2 46/2/2 51/2/2
f 51/2/2 46/2/2 52/2/2
f 39/2/2 47/2/2 53/2/2
f 47/3/2 48/3/2 53/3/2
f 48/2/2 49/2/2 54/2/2
f 53/3/2 48/3/2 54/3/2
f 49/3/2 50/3/2 55/3/2
f 54/2/2 49/2/2 55/2/2
f 50/2/2 51/2/2 56/2/2
f 55/3/2 50/3/2 56/3/2
f 51/3/2 52/3/2 57/3/2
f 56/2/2 51/2/2 57/2/2
f 52/2/2 46/2/2 58/2/2
f 57/3/2 52/3/2 58/3/2
f 58/2/2 46/2/2 59/2/2
f 53/2/2 54/2/2 60/2/2
f 54/3/2 55/3/2 60/3/2
f 55/2/2 56/2/2 61/2/2
f 60/3/2 55/3/2 61/3/2
f 56/3/2 57/3/2 62/3/2
f 61/2/2 56/2/2 62/2/2
f 57/2/2 58/2/2 63/2/2
f 62/3/2 57/3/2 63/3/2
f 58/3/2 59/3/2 64/3/2
f 63/2/2 58/2/2 64/2/2
f 59/2/2 46/2/2 65/2/2
f 64/3/2 59/3/2 65/3/2
f 60/2/2 61/2/2 66/2/2
f 53/2/2 60/2/2 66/2/2
f 64/2/2 65/2/2 66/2/2
f 61/2/2 62/2/2 66/2/2
f 62/2/2 63/2/2 66/2/2
f 63/2/2 64/2/2 66/2/2
f 39/2/2 53/2/2 66/2/2
f 65/2/2 46/2/2 67/2/2
f 66/2/2 65/2/2 67/2/2
f 66/1/2 67/1/2 68/1/2
f 68/1/2 67/1/2 69/1/2
f 66/1/2 68/1/2 70/1/2
f 68/2/2 69/2/2 71/2/2
f 70/1/2 68/1/2 71/1/2
f 69/1/2 67/1/2 72/1/2
f 71/2/2 69/2/2 72/2/2
f 72/1/2 67/1/2 73/1/2
f 70/2/2 71/2/2 74/2/2
f 66/1/2 70/1/2 74/1/2
f 71/1/2 72/1/2 75/1/2
f 74/2/2 71/2/2 75/2/2
f 72/2/2 73/2/2 76/2/2
f 75/1/2 72/1/2 76/1/2
f 73/1/2 67/1/2 77/1/2
f 76/2/2 73/2/2 77/2/2
f 75/1/2 76/1/2 78/1/2
f 74/1/2 75/1/2 78/1/2
f 76/1/2 77/1/2 78/1/2
f 78/1/2 77/1/2 79/1/2
f 79/1/2 77/1/2 80/1/2
f 80/1/2 77/1/2 81/1/2
f 74/1/2 78/1/2 82/1/2
f 78/2/2 79/2/2 82/2/2
f 79/1/2 80/1/2 83/1/2
f 82/2/2 79/2/2 83/2/2
f 80/2/2 81/2/2 84/2/2
f 83/1/2 80/1/2 84/1/2
f 81/1/2 77/1/2 85/1/2
f 84/2/2 81/2/2 85/2/2
f 66/1/2 74/1/2 86/1/2
f 83/1/2 84/1/2 86/1/2
f 84/1/2 85/1/2 86/1/2
f 74/1/2 82/1/2 86/1/2
f 82/1/2 83/1/2 86/1/2
f 77/1/2 67/1/2 87/1/2
f 86/1/2 85/1/2 87/1/2
f 85/1/2 77/1/2 87/1/2
f 92/2/3 90/2/3 89/2/3
f 93/2/3 90/2/3 92/2/3
f 94/2/3 92/2/3 89/2/3
f 94/3/3 93/3/3 92/3/3
f 95/2/3 90/2/3 93/2/3
f 95/3/3 93/3/3 94/3/3
f 96/2/3 94/2/3 89/2/3
f 96/2/3 95/2/3 94/2/3
f 97/2/3 95/2/3 96/2/3
f 98/2/3 95/2/3 97/2/3
f 99/2/3 95/2/3 98/2/3
f 100/2/3 95/2/3 99/2/3
f 101/2/3 95/2/3 100/2/3
f 102/2/3 95/2/3 101/2/3
f 103/2/3 90/2/3 95/2/3
f 103/2/3 95/2/3 102/2/3
f 104/2/3 96/2/3 89/2/3
f 104/3/3 97/3/3 96/3/3
f 105/2/3 98/2/3 97/2/3
f 105/3/3 97/3/3 104/3/3
f 106/3/3 99/3/3 98/3/3
f 106/2/3 98/2/3 105/2/3
f 107/2/3 100/2/3 99/2/3
f 107/3/3 99/3/3 106/3/3
f 108/3/3 101/3/3 100/3/3
f 108/2/3 100/2/3 107/2/3
f 109/2/3 102/2/3 101/2/3
f 109/3/3 101/3/3 108/3/3
f 110/3/3 103/3/3 102/3/3
f 110/2/3 102/2/3 109/2/3
f 111/2/3 90/2/3 103/2/3
f 111/3/3 103/3/3 110/3/3
f 112/2/3 108/2/3 107/2/3
f 112/2/3 110/2/3 109/2/3
f 112/2/3 111/2/3 110/2/3
f 112/2/3 107/2/3 106/2/3
f 112/2/3 106/2/3 105/2/3
f 112/2/3 105/2/3 104/2/3
f 112/2/3 104/2/3 89/2/3
f 112/2/3 109/2/3 108/2/3
f 113/2/3 111/2/3 112/2/3
f 114/2/3 111/2/3 113/2/3
f 115/2/3 111/2/3 114/2/3
f 116/2/3 111/2/3 115/2/3
f 117/2/3 111/2/3 116/2/3
f 118/2/3 111/2/3 117/2/3
f 119/2/3 90/2/3 111/2/3
f 119/2/3 111/2/3 118/2/3
f 120/2/3 112/2/3 89/2/3
f 120/3/3 113/3/3 112/3/3
f 121/2/3 114/2/3 113/2/3
f 121/3/3 113/3/3 120/3/3
f 122/3/3 115/3/3 114/3/3
f 122/2/3 114/2/3 121/2/3
f 123/2/3 116/2/3 115/2/3
f 123/3/3 115/3/3 122/3/3
f 124/3/3 117/3/3 116/3/3
f 124/2/3 116/2/3 123/2/3
f 125/2/3 118/2/3 117/2/3
f 125/3/3 117/3/3 124/3/3
f 126/3/3 119/3/3 118/3/3
f 126/2/3 118/2/3 125/2/3
f 127/2/3 90/2/3 119/2/3
f 127/3/3 119/3/3 126/3/3
f 128/1/3 89/1/3 88/1/3
f 129/2/3 124/2/3 123/2/3
f 129/1/3 89/1/3 128/1/3
f 129/2/3 126/2/3 125/2/3
f 129/2/3 127/2/3 126/2/3
f 129/2/3 123/2/3 122/2/3
f 129/2/3 122/2/3 121/2/3
f 129/2/3 121/2/3 120/2/3
f 129/2/3 120/2/3 89/2/3
f 129/2/3 125/2/3 124/2/3
f 130/2/3 90/2/3 127/2/3
f 130/2/3 127/2/3 129/2/3
f 130/1/3 91/1/3 90/1/3
f 131/1/3 91/1/3 130/1/3
f 134/3/3 133/3/3 132/3/3
f 135/3/3 133/3/3 134/3/3
f 136/3/4 137/3/4 138/3/4
f 138/3/4 137/3/4 139/3/4
f 141/2/4 142/2/4 144/2/4
f 144/2/4 142/2/4 145/2/4
f 141/2/4 144/2/4 146/2/4
f 146/2/4 144/2/4 147/2/4
f 144/3/4 145/3/4 148/3/4
f 147/2/4 144/2/4 148/2/4
f 145/2/4 142/2/4 149/2/4
f 148/3/4 145/3/4 149/3/4
f 147/2/4 148/2/4 150/2/4
f 148/2/4 149/2/4 150/2/4
f 149/2/4 142/2/4 151/2/4
f 150/2/4 149/2/4 151/2/4
f 147/2/4 150/2/4 152/2/4
f 150/3/4 151/3/4 152/3/4
f 151/2/4 142/2/4 153/2/4
f 152/3/4 151/3/4 153/3/4
f 147/2/4 152/2/4 154/2/4
f 152/2/4 153/2/4 154/2/4
f 153/2/4 142/2/4 155/2/4
f 154/2/4 153/2/4 155/2/4
f 147/2/4 154/2/4 156/2/4
f 154/3/4 155/3/4 156/3/4
f 155/2/4 142/2/4 157/2/4
f 156/3/4 155/3/4 157/3/4
f 140/1/4 141/1/4 158/1/4
f 141/2/4 146/2/4 159/2/4
f 158/1/4 141/1/4 159/1/4
f 146/3/4 147/3/4 160/3/4
f 159/2/4 146/2/4 160/2/4
f 147/2/4 156/2/4 161/2/4
f 160/3/4 147/3/4 161/3/4
f 156/2/4 157/2/4 161/2/4
f 157/2/4 142/2/4 162/2/4
f 161/2/4 157/2/4 162/2/4
f 142/1/4 143/1/4 162/1/4
f 162/1/4 143/1/4 163/1/4
f 166/1/5 165/1/5 164/1/5
f 167/1/5 165/1/5 166/1/5
f 168/1/6 169/1/6 170/1/6
f 170/1/6 169/1/6 171/1/6
f 168/1/6 170/1/6 172/1/6
f 171/1/6 169/1/6 173/1/6
f 168/1/6 172/1/6 174/1/6
f 172/1/6 173/1/6 174/1/6
f 173/1/6 169/1/6 175/1/6
f 174/1/6 173/1/6 175/1/6
f 176/3/6 177/3/6 178/3/6
f 178/3/6 177/3/6 179/3/6
