# MagicaVoxel @ Ephtracy

# group
o 

# material
mtllib Item_magazine1.mtl
usemtl palette

# normals
vn -1 0 0
vn 1 0 0
vn 0 0 1
vn 0 0 -1
vn 0 -1 0
vn 0 1 0

# texcoords
vt 0.541016 0.5
vt 0.572266 0.5
vt 0.576172 0.5
vt 0.580078 0.5
vt 0.587891 0.5

# verts
v -3.9 13.5 6.3
v -3.9 13.5 6
v -3.9 13.5 3.8
v -3.9 13.5 3.7
v -3.9 14 5.9
v -3.9 14 4.1
v -3.9 14.5 5.9
v -3.9 14.5 4.1
v -3.9 14.6 5.9
v -3.9 14.6 4.1
v -3.9 15.1 5.9
v -3.9 15.1 4.1
v -3.9 15.5 4.7
v -3.9 15.5 4.1
v -3.9 15.6 4.7
v -3.9 15.6 4.1
v -3.9 15.8 4.7
v -3.9 15.8 4.1
v -3.9 15.9 4.7
v -3.9 15.9 4.1
v -3.9 16.1 5.9
v -3.9 16.1 5.1
v -3.9 16.1 4.8
v -3.9 16.1 4.1
v -3.9 16.2 4.8
v -3.9 16.2 4.1
v -3.9 16.3 4.8
v -3.9 16.3 4.1
v -3.9 16.4 4.8
v -3.9 16.4 4.1
v -3.9 16.7 4.7
v -3.9 16.7 4.2
v -3.9 16.8 4.7
v -3.9 16.8 4.2
v -3.9 17 4.9
v -3.9 17 4.1
v -3.9 17.1 4.9
v -3.9 17.1 4.1
v -3.9 17.2 4.8
v -3.9 17.2 4.1
v -3.9 17.3 5.9
v -3.9 17.3 5.1
v -3.9 17.3 4.8
v -3.9 17.3 4.1
v -3.9 17.6 6.3
v -3.9 17.6 6
v -3.9 17.6 3.8
v -3.9 17.6 3.7
v -3.5 13.5 6.3
v -3.5 13.5 6
v -3.5 13.5 3.8
v -3.5 13.5 3.7
v -3.5 13.9 5
v -3.5 13.9 4.9
v -3.5 14 5
v -3.5 14 4.9
v -3.5 14 4.8
v -3.5 14.1 4.9
v -3.5 14.1 4.8
v -3.5 14.1 4.7
v -3.5 14.3 4.8
v -3.5 14.3 4.7
v -3.5 14.3 4.5
v -3.5 14.4 4.7
v -3.5 14.4 4.5
v -3.5 14.4 4.4
v -3.5 14.5 4.4
v -3.5 14.5 4.3
v -3.5 14.6 4.5
v -3.5 14.6 4.4
v -3.5 14.7 4.3
v -3.5 14.7 4.2
v -3.5 14.8 4.4
v -3.5 14.8 4.3
v -3.5 14.9 4.7
v -3.5 14.9 4.3
v -3.5 14.9 4.2
v -3.5 14.9 3.9
v -3.5 15.2 4.8
v -3.5 15.2 4.7
v -3.5 15.2 3.9
v -3.5 15.2 3.8
v -3.5 15.9 4.8
v -3.5 15.9 4.7
v -3.5 15.9 3.9
v -3.5 15.9 3.8
v -3.5 16.1 4.7
v -3.5 16.1 3.9
v -3.5 16.6 5.9
v -3.5 16.6 5.4
v -3.5 16.6 5
v -3.5 16.6 4.9
v -3.5 16.7 5.9
v -3.5 16.7 5.7
v -3.5 16.7 5.6
v -3.5 16.7 5.4
v -3.5 17.3 5.9
v -3.5 17.3 5.7
v -3.5 17.3 5.6
v -3.5 17.3 5.4
v -3.5 17.3 5.2
v -3.5 17.3 5
v -3.5 17.3 4.9
v -3.5 17.3 4.7
v -3.5 17.4 5.9
v -3.5 17.4 5.4
v -3.5 17.4 5.2
v -3.5 17.4 4.7
v -3.5 17.6 6.3
v -3.5 17.6 6
v -3.5 17.6 3.8
v -3.5 17.6 3.7
v -3.9 13.5 6.3
v -3.9 17.6 6.3
v -3.8 13.7 6.3
v -3.8 14.1 6.3
v -3.8 14.4 6.3
v -3.8 15.3 6.3
v -3.8 15.5 6.3
v -3.8 17.4 6.3
v -3.7 13.7 6.3
v -3.7 14.1 6.3
v -3.7 14.4 6.3
v -3.7 15.3 6.3
v -3.7 15.5 6.3
v -3.7 17.4 6.3
v -3.5 13.5 6.3
v -3.5 17.6 6.3
v -3.9 13.5 3.7
v -3.9 17.6 3.7
v -3.5 13.5 3.7
v -3.5 17.6 3.7
v -3.9 13.5 6.3
v -3.5 13.5 6.3
v -3.9 13.5 6
v -3.5 13.5 6
v -3.9 13.5 3.8
v -3.5 13.5 3.8
v -3.9 13.5 3.7
v -3.5 13.5 3.7
v -3.9 17.6 6.3
v -3.5 17.6 6.3
v -3.9 17.6 6
v -3.5 17.6 6
v -3.9 17.6 3.8
v -3.5 17.6 3.8
v -3.9 17.6 3.7
v -3.5 17.6 3.7

# faces
f 5/1/1 3/1/1 2/1/1
f 6/1/1 3/1/1 5/1/1
f 7/1/1 5/1/1 2/1/1
f 7/4/1 6/4/1 5/4/1
f 8/1/1 3/1/1 6/1/1
f 8/4/1 6/4/1 7/4/1
f 9/1/1 7/1/1 2/1/1
f 9/1/1 8/1/1 7/1/1
f 10/1/1 3/1/1 8/1/1
f 10/1/1 8/1/1 9/1/1
f 11/1/1 9/1/1 2/1/1
f 11/4/1 10/4/1 9/4/1
f 12/1/1 3/1/1 10/1/1
f 12/4/1 10/4/1 11/4/1
f 13/1/1 12/1/1 11/1/1
f 14/1/1 3/1/1 12/1/1
f 14/1/1 12/1/1 13/1/1
f 15/1/1 13/1/1 11/1/1
f 15/4/1 14/4/1 13/4/1
f 16/1/1 3/1/1 14/1/1
f 16/4/1 14/4/1 15/4/1
f 17/1/1 15/1/1 11/1/1
f 17/1/1 16/1/1 15/1/1
f 18/1/1 3/1/1 16/1/1
f 18/1/1 16/1/1 17/1/1
f 19/1/1 17/1/1 11/1/1
f 19/4/1 18/4/1 17/4/1
f 20/1/1 3/1/1 18/1/1
f 20/4/1 18/4/1 19/4/1
f 21/1/1 11/1/1 2/1/1
f 21/1/1 19/1/1 11/1/1
f 21/1/1 20/1/1 19/1/1
f 22/1/1 20/1/1 21/1/1
f 23/1/1 20/1/1 22/1/1
f 24/1/1 3/1/1 20/1/1
f 24/1/1 20/1/1 23/1/1
f 25/1/1 23/1/1 22/1/1
f 25/4/1 24/4/1 23/4/1
f 26/1/1 3/1/1 24/1/1
f 26/4/1 24/4/1 25/4/1
f 27/1/1 25/1/1 22/1/1
f 27/1/1 26/1/1 25/1/1
f 28/1/1 3/1/1 26/1/1
f 28/1/1 26/1/1 27/1/1
f 29/1/1 27/1/1 22/1/1
f 29/4/1 28/4/1 27/4/1
f 30/1/1 3/1/1 28/1/1
f 30/4/1 28/4/1 29/4/1
f 31/1/1 30/1/1 29/1/1
f 32/1/1 30/1/1 31/1/1
f 33/1/1 31/1/1 29/1/1
f 33/4/1 32/4/1 31/4/1
f 34/1/1 30/1/1 32/1/1
f 34/4/1 32/4/1 33/4/1
f 35/1/1 29/1/1 22/1/1
f 35/1/1 33/1/1 29/1/1
f 35/1/1 34/1/1 33/1/1
f 36/1/1 30/1/1 34/1/1
f 36/1/1 34/1/1 35/1/1
f 36/1/1 3/1/1 30/1/1
f 37/1/1 35/1/1 22/1/1
f 37/4/1 36/4/1 35/4/1
f 38/1/1 3/1/1 36/1/1
f 38/4/1 36/4/1 37/4/1
f 39/1/1 38/1/1 37/1/1
f 40/1/1 3/1/1 38/1/1
f 40/1/1 38/1/1 39/1/1
f 41/1/1 21/1/1 2/1/1
f 41/4/1 22/4/1 21/4/1
f 42/1/1 37/1/1 22/1/1
f 42/4/1 22/4/1 41/4/1
f 42/1/1 39/1/1 37/1/1
f 43/4/1 40/4/1 39/4/1
f 43/1/1 39/1/1 42/1/1
f 44/1/1 3/1/1 40/1/1
f 44/4/1 40/4/1 43/4/1
f 45/2/1 2/2/1 1/2/1
f 46/1/1 41/1/1 2/1/1
f 46/2/1 2/2/1 45/2/1
f 46/1/1 43/1/1 42/1/1
f 46/1/1 44/1/1 43/1/1
f 46/1/1 42/1/1 41/1/1
f 47/1/1 3/1/1 44/1/1
f 47/1/1 44/1/1 46/1/1
f 47/3/1 4/3/1 3/3/1
f 48/3/1 4/3/1 47/3/1
f 50/1/2 51/1/2 53/1/2
f 53/1/2 51/1/2 54/1/2
f 50/1/2 53/1/2 55/1/2
f 53/4/2 54/4/2 55/4/2
f 54/1/2 51/1/2 56/1/2
f 55/4/2 54/4/2 56/4/2
f 56/1/2 51/1/2 57/1/2
f 55/1/2 56/1/2 58/1/2
f 56/4/2 57/4/2 58/4/2
f 57/1/2 51/1/2 59/1/2
f 58/4/2 57/4/2 59/4/2
f 59/1/2 51/1/2 60/1/2
f 58/1/2 59/1/2 61/1/2
f 59/4/2 60/4/2 61/4/2
f 60/1/2 51/1/2 62/1/2
f 61/4/2 60/4/2 62/4/2
f 62/1/2 51/1/2 63/1/2
f 61/1/2 62/1/2 64/1/2
f 62/4/2 63/4/2 64/4/2
f 63/1/2 51/1/2 65/1/2
f 64/4/2 63/4/2 65/4/2
f 65/1/2 51/1/2 66/1/2
f 65/4/2 66/4/2 67/4/2
f 66/1/2 51/1/2 67/1/2
f 67/1/2 51/1/2 68/1/2
f 64/1/2 65/1/2 69/1/2
f 65/4/2 67/4/2 69/4/2
f 67/4/2 68/4/2 69/4/2
f 69/4/2 68/4/2 70/4/2
f 68/1/2 51/1/2 71/1/2
f 70/4/2 68/4/2 71/4/2
f 71/1/2 51/1/2 72/1/2
f 69/1/2 70/1/2 73/1/2
f 70/4/2 71/4/2 73/4/2
f 71/4/2 72/4/2 73/4/2
f 73/4/2 72/4/2 74/4/2
f 61/1/2 64/1/2 75/1/2
f 64/1/2 69/1/2 75/1/2
f 73/1/2 74/1/2 75/1/2
f 69/1/2 73/1/2 75/1/2
f 74/4/2 72/4/2 76/4/2
f 75/1/2 74/1/2 76/1/2
f 72/1/2 51/1/2 77/1/2
f 76/4/2 72/4/2 77/4/2
f 77/1/2 51/1/2 78/1/2
f 58/1/2 61/1/2 79/1/2
f 61/1/2 75/1/2 79/1/2
f 77/5/2 78/5/2 80/5/2
f 79/1/2 75/1/2 80/1/2
f 75/5/2 76/5/2 80/5/2
f 76/5/2 77/5/2 80/5/2
f 78/1/2 51/1/2 81/1/2
f 80/5/2 78/5/2 81/5/2
f 51/3/2 52/3/2 82/3/2
f 81/1/2 51/1/2 82/1/2
f 80/5/2 81/5/2 83/5/2
f 79/5/2 80/5/2 83/5/2
f 81/5/2 82/5/2 83/5/2
f 58/1/2 79/1/2 83/1/2
f 83/5/2 82/5/2 84/5/2
f 84/5/2 82/5/2 85/5/2
f 82/3/2 52/3/2 86/3/2
f 85/5/2 82/5/2 86/5/2
f 84/5/2 85/5/2 87/5/2
f 83/1/2 84/1/2 87/1/2
f 85/1/2 86/1/2 88/1/2
f 87/5/2 85/5/2 88/5/2
f 50/1/2 55/1/2 89/1/2
f 55/1/2 58/1/2 89/1/2
f 87/1/2 88/1/2 89/1/2
f 83/1/2 87/1/2 89/1/2
f 58/1/2 83/1/2 89/1/2
f 89/1/2 88/1/2 90/1/2
f 90/1/2 88/1/2 91/1/2
f 91/1/2 88/1/2 92/1/2
f 50/1/2 89/1/2 93/1/2
f 89/4/2 90/4/2 93/4/2
f 93/4/2 90/4/2 94/4/2
f 94/4/2 90/4/2 95/4/2
f 90/1/2 91/1/2 96/1/2
f 95/4/2 90/4/2 96/4/2
f 50/1/2 93/1/2 97/1/2
f 93/1/2 94/1/2 97/1/2
f 94/4/2 95/4/2 98/4/2
f 97/1/2 94/1/2 98/1/2
f 95/1/2 96/1/2 99/1/2
f 98/4/2 95/4/2 99/4/2
f 96/1/2 91/1/2 100/1/2
f 99/1/2 96/1/2 100/1/2
f 100/1/2 91/1/2 101/1/2
f 91/4/2 92/4/2 102/4/2
f 101/1/2 91/1/2 102/1/2
f 92/1/2 88/1/2 103/1/2
f 102/4/2 92/4/2 103/4/2
f 103/1/2 88/1/2 104/1/2
f 50/1/2 97/1/2 105/1/2
f 98/4/2 99/4/2 105/4/2
f 97/4/2 98/4/2 105/4/2
f 99/4/2 100/4/2 105/4/2
f 100/1/2 101/1/2 106/1/2
f 105/4/2 100/4/2 106/4/2
f 101/4/2 102/4/2 107/4/2
f 106/1/2 101/1/2 107/1/2
f 103/4/2 104/4/2 107/4/2
f 102/4/2 103/4/2 107/4/2
f 104/1/2 88/1/2 108/1/2
f 107/4/2 104/4/2 108/4/2
f 49/2/2 50/2/2 109/2/2
f 105/1/2 106/1/2 110/1/2
f 109/2/2 50/2/2 110/2/2
f 50/1/2 105/1/2 110/1/2
f 107/1/2 108/1/2 110/1/2
f 106/1/2 107/1/2 110/1/2
f 108/1/2 88/1/2 111/1/2
f 110/1/2 108/1/2 111/1/2
f 86/3/2 52/3/2 111/3/2
f 88/1/2 86/1/2 111/1/2
f 111/3/2 52/3/2 112/3/2
f 115/2/3 114/2/3 113/2/3
f 116/2/3 114/2/3 115/2/3
f 117/2/3 114/2/3 116/2/3
f 118/2/3 114/2/3 117/2/3
f 119/2/3 114/2/3 118/2/3
f 120/2/3 114/2/3 119/2/3
f 121/2/3 115/2/3 113/2/3
f 121/1/3 116/1/3 115/1/3
f 122/2/3 117/2/3 116/2/3
f 122/1/3 116/1/3 121/1/3
f 123/1/3 118/1/3 117/1/3
f 123/2/3 117/2/3 122/2/3
f 124/2/3 119/2/3 118/2/3
f 124/1/3 118/1/3 123/1/3
f 125/1/3 120/1/3 119/1/3
f 125/2/3 119/2/3 124/2/3
f 126/2/3 114/2/3 120/2/3
f 126/1/3 120/1/3 125/1/3
f 127/2/3 125/2/3 124/2/3
f 127/2/3 124/2/3 123/2/3
f 127/2/3 126/2/3 125/2/3
f 127/2/3 123/2/3 122/2/3
f 127/2/3 122/2/3 121/2/3
f 127/2/3 121/2/3 113/2/3
f 128/2/3 114/2/3 126/2/3
f 128/2/3 126/2/3 127/2/3
f 129/3/4 130/3/4 131/3/4
f 131/3/4 130/3/4 132/3/4
f 135/2/5 134/2/5 133/2/5
f 136/2/5 134/2/5 135/2/5
f 137/1/5 136/1/5 135/1/5
f 138/1/5 136/1/5 137/1/5
f 139/3/5 138/3/5 137/3/5
f 140/3/5 138/3/5 139/3/5
f 141/2/6 142/2/6 143/2/6
f 143/2/6 142/2/6 144/2/6
f 143/1/6 144/1/6 145/1/6
f 145/1/6 144/1/6 146/1/6
f 145/3/6 146/3/6 147/3/6
f 147/3/6 146/3/6 148/3/6
