# MagicaVoxel @ Ephtracy

# group
o 

# material
mtllib Item_MicroOnde.mtl
usemtl palette

# normals
vn -1 0 0
vn 1 0 0
vn 0 0 1
vn 0 0 -1
vn 0 -1 0
vn 0 1 0

# texcoords
vt 0.689453 0.5
vt 0.720703 0.5
vt 0.728516 0.5

# verts
v -0.2 -2 1.3
v -0.2 -2 -1.3
v -0.2 2.1 1.3
v -0.2 2.1 -1.3
v 0.3 -1.5 0.6
v 0.3 -1.5 0.5
v 0.3 -1.5 -0.5
v 0.3 -1.5 -0.6
v 0.3 -0.6 0.6
v 0.3 -0.6 0.5
v 0.3 -0.6 -0.5
v 0.3 -0.6 -0.6
v 0.1 -2 1.3
v 0.1 -2 -1.3
v 0.1 -0.6 0.8
v 0.1 -0.6 0.3
v 0.1 -0.6 -0.3
v 0.1 -0.6 -0.8
v 0.1 1.8 0.8
v 0.1 1.8 0.3
v 0.1 1.8 -0.3
v 0.1 1.8 -0.8
v 0.1 2.1 1.3
v 0.1 2.1 -1.3
v 0.4 -1.5 0.6
v 0.4 -1.5 0.5
v 0.4 -1.5 -0.5
v 0.4 -1.5 -0.6
v 0.4 -0.6 0.6
v 0.4 -0.6 0.5
v 0.4 -0.6 -0.5
v 0.4 -0.6 -0.6
v 0.6 -0.6 0.8
v 0.6 -0.6 0.3
v 0.6 -0.6 -0.3
v 0.6 -0.6 -0.8
v 0.6 1.8 0.8
v 0.6 1.8 0.3
v 0.6 1.8 -0.3
v 0.6 1.8 -0.8
v -0.2 -2 1.3
v -0.2 2.1 1.3
v 0.1 -2 1.3
v 0.1 2.1 1.3
v 0.1 -0.6 0.8
v 0.1 1.8 0.8
v 0.6 -0.6 0.8
v 0.6 1.8 0.8
v 0.3 -1.5 0.6
v 0.3 -0.6 0.6
v 0.4 -1.5 0.6
v 0.4 -0.6 0.6
v 0.1 -0.6 -0.3
v 0.1 1.8 -0.3
v 0.6 -0.6 -0.3
v 0.6 1.8 -0.3
v 0.3 -1.5 -0.5
v 0.3 -0.6 -0.5
v 0.4 -1.5 -0.5
v 0.4 -0.6 -0.5
v 0.3 -1.5 0.5
v 0.3 -0.6 0.5
v 0.4 -1.5 0.5
v 0.4 -0.6 0.5
v 0.1 -0.6 0.3
v 0.1 1.8 0.3
v 0.6 -0.6 0.3
v 0.6 1.8 0.3
v 0.3 -1.5 -0.6
v 0.3 -0.6 -0.6
v 0.4 -1.5 -0.6
v 0.4 -0.6 -0.6
v 0.1 -0.6 -0.8
v 0.1 1.8 -0.8
v 0.6 -0.6 -0.8
v 0.6 1.8 -0.8
v -0.2 -2 -1.3
v -0.2 2.1 -1.3
v 0.1 -2 -1.3
v 0.1 2.1 -1.3
v -0.2 -2 1.3
v 0.1 -2 1.3
v -0.2 -2 -1.3
v 0.1 -2 -1.3
v 0.3 -1.5 0.6
v 0.4 -1.5 0.6
v 0.3 -1.5 0.5
v 0.4 -1.5 0.5
v 0.3 -1.5 -0.5
v 0.4 -1.5 -0.5
v 0.3 -1.5 -0.6
v 0.4 -1.5 -0.6
v 0.1 -0.6 0.8
v 0.6 -0.6 0.8
v 0.3 -0.6 0.6
v 0.4 -0.6 0.6
v 0.3 -0.6 0.5
v 0.4 -0.6 0.5
v 0.1 -0.6 0.3
v 0.6 -0.6 0.3
v 0.1 -0.6 -0.3
v 0.6 -0.6 -0.3
v 0.3 -0.6 -0.5
v 0.4 -0.6 -0.5
v 0.3 -0.6 -0.6
v 0.4 -0.6 -0.6
v 0.1 -0.6 -0.8
v 0.6 -0.6 -0.8
v 0.1 1.8 0.8
v 0.6 1.8 0.8
v 0.1 1.8 0.3
v 0.6 1.8 0.3
v 0.1 1.8 -0.3
v 0.6 1.8 -0.3
v 0.1 1.8 -0.8
v 0.6 1.8 -0.8
v -0.2 2.1 1.3
v 0.1 2.1 1.3
v -0.2 2.1 -1.3
v 0.1 2.1 -1.3

# faces
f 3/3/1 2/3/1 1/3/1
f 4/3/1 2/3/1 3/3/1
f 9/1/1 6/1/1 5/1/1
f 10/1/1 6/1/1 9/1/1
f 11/1/1 8/1/1 7/1/1
f 12/1/1 8/1/1 11/1/1
f 13/3/2 14/3/2 15/3/2
f 15/3/2 14/3/2 16/3/2
f 16/3/2 14/3/2 17/3/2
f 17/3/2 14/3/2 18/3/2
f 13/3/2 15/3/2 19/3/2
f 16/3/2 17/3/2 20/3/2
f 20/3/2 17/3/2 21/3/2
f 18/3/2 14/3/2 22/3/2
f 20/3/2 21/3/2 23/3/2
f 21/3/2 22/3/2 23/3/2
f 13/3/2 19/3/2 23/3/2
f 19/3/2 20/3/2 23/3/2
f 22/3/2 14/3/2 24/3/2
f 23/3/2 22/3/2 24/3/2
f 25/1/2 26/1/2 29/1/2
f 29/1/2 26/1/2 30/1/2
f 27/1/2 28/1/2 31/1/2
f 31/1/2 28/1/2 32/1/2
f 33/2/2 34/2/2 37/2/2
f 37/2/2 34/2/2 38/2/2
f 35/2/2 36/2/2 39/2/2
f 39/2/2 36/2/2 40/2/2
f 43/3/3 42/3/3 41/3/3
f 44/3/3 42/3/3 43/3/3
f 47/2/3 46/2/3 45/2/3
f 48/2/3 46/2/3 47/2/3
f 51/1/3 50/1/3 49/1/3
f 52/1/3 50/1/3 51/1/3
f 55/2/3 54/2/3 53/2/3
f 56/2/3 54/2/3 55/2/3
f 59/1/3 58/1/3 57/1/3
f 60/1/3 58/1/3 59/1/3
f 61/1/4 62/1/4 63/1/4
f 63/1/4 62/1/4 64/1/4
f 65/2/4 66/2/4 67/2/4
f 67/2/4 66/2/4 68/2/4
f 69/1/4 70/1/4 71/1/4
f 71/1/4 70/1/4 72/1/4
f 73/2/4 74/2/4 75/2/4
f 75/2/4 74/2/4 76/2/4
f 77/3/4 78/3/4 79/3/4
f 79/3/4 78/3/4 80/3/4
f 83/3/5 82/3/5 81/3/5
f 84/3/5 82/3/5 83/3/5
f 87/1/5 86/1/5 85/1/5
f 88/1/5 86/1/5 87/1/5
f 91/1/5 90/1/5 89/1/5
f 92/1/5 90/1/5 91/1/5
f 95/2/5 94/2/5 93/2/5
f 96/2/5 94/2/5 95/2/5
f 97/2/5 95/2/5 93/2/5
f 98/2/5 94/2/5 96/2/5
f 99/2/5 97/2/5 93/2/5
f 99/2/5 98/2/5 97/2/5
f 100/2/5 94/2/5 98/2/5
f 100/2/5 98/2/5 99/2/5
f 103/2/5 102/2/5 101/2/5
f 104/2/5 102/2/5 103/2/5
f 105/2/5 103/2/5 101/2/5
f 106/2/5 102/2/5 104/2/5
f 107/2/5 105/2/5 101/2/5
f 107/2/5 106/2/5 105/2/5
f 108/2/5 102/2/5 106/2/5
f 108/2/5 106/2/5 107/2/5
f 109/2/6 110/2/6 111/2/6
f 111/2/6 110/2/6 112/2/6
f 113/2/6 114/2/6 115/2/6
f 115/2/6 114/2/6 116/2/6
f 117/3/6 118/3/6 119/3/6
f 119/3/6 118/3/6 120/3/6
