# MagicaVoxel @ Ephtracy

# group
o 

# material
mtllib Item_SugarSnack.mtl
usemtl palette

# normals
vn -1 0 0
vn 1 0 0
vn 0 0 1
vn 0 0 -1
vn 0 -1 0
vn 0 1 0

# texcoords
vt 0.732422 0.5
vt 0.736328 0.5

# verts
v 2.4 10 13.3
v 2.4 10 11.3
v 2.4 10.1 13.3
v 2.4 10.1 11.3
v 2.4 10.6 13.1
v 2.4 10.6 13
v 2.4 10.6 12.6
v 2.4 10.6 12
v 2.4 10.6 11.6
v 2.4 10.6 11.5
v 2.4 10.7 13
v 2.4 10.7 12.9
v 2.4 10.7 12.7
v 2.4 10.7 12.6
v 2.4 10.7 12
v 2.4 10.7 11.9
v 2.4 10.7 11.7
v 2.4 10.7 11.6
v 2.4 10.8 13.1
v 2.4 10.8 13
v 2.4 10.8 12.9
v 2.4 10.8 12.8
v 2.4 10.8 11.8
v 2.4 10.8 11.7
v 2.4 10.8 11.6
v 2.4 10.8 11.5
v 2.4 10.9 12.8
v 2.4 10.9 12.7
v 2.4 10.9 11.9
v 2.4 10.9 11.8
v 2.4 11.1 12.8
v 2.4 11.1 12.7
v 2.4 11.1 11.9
v 2.4 11.1 11.8
v 2.4 11.2 13.1
v 2.4 11.2 13
v 2.4 11.2 12.9
v 2.4 11.2 12.8
v 2.4 11.2 11.8
v 2.4 11.2 11.7
v 2.4 11.2 11.6
v 2.4 11.2 11.5
v 2.4 11.3 13
v 2.4 11.3 12.9
v 2.4 11.3 12.7
v 2.4 11.3 12.6
v 2.4 11.3 12
v 2.4 11.3 11.9
v 2.4 11.3 11.7
v 2.4 11.3 11.6
v 2.4 11.4 13.1
v 2.4 11.4 13
v 2.4 11.4 12.6
v 2.4 11.4 12
v 2.4 11.4 11.6
v 2.4 11.4 11.5
v 2.4 11.9 13.3
v 2.4 11.9 11.3
v 2.4 12 13.3
v 2.4 12 11.3
v 4.4 10 13.3
v 4.4 10 11.3
v 4.4 10.1 13.3
v 4.4 10.1 11.3
v 4.4 10.6 13.1
v 4.4 10.6 13
v 4.4 10.6 12.6
v 4.4 10.6 12
v 4.4 10.6 11.6
v 4.4 10.6 11.5
v 4.4 10.7 13
v 4.4 10.7 12.9
v 4.4 10.7 12.7
v 4.4 10.7 12.6
v 4.4 10.7 12
v 4.4 10.7 11.9
v 4.4 10.7 11.7
v 4.4 10.7 11.6
v 4.4 10.8 13.1
v 4.4 10.8 13
v 4.4 10.8 12.9
v 4.4 10.8 12.8
v 4.4 10.8 11.8
v 4.4 10.8 11.7
v 4.4 10.8 11.6
v 4.4 10.8 11.5
v 4.4 10.9 12.8
v 4.4 10.9 12.7
v 4.4 10.9 11.9
v 4.4 10.9 11.8
v 4.4 11.1 12.8
v 4.4 11.1 12.7
v 4.4 11.1 11.9
v 4.4 11.1 11.8
v 4.4 11.2 13.1
v 4.4 11.2 13
v 4.4 11.2 12.9
v 4.4 11.2 12.8
v 4.4 11.2 11.8
v 4.4 11.2 11.7
v 4.4 11.2 11.6
v 4.4 11.2 11.5
v 4.4 11.3 13
v 4.4 11.3 12.9
v 4.4 11.3 12.7
v 4.4 11.3 12.6
v 4.4 11.3 12
v 4.4 11.3 11.9
v 4.4 11.3 11.7
v 4.4 11.3 11.6
v 4.4 11.4 13.1
v 4.4 11.4 13
v 4.4 11.4 12.6
v 4.4 11.4 12
v 4.4 11.4 11.6
v 4.4 11.4 11.5
v 4.4 11.9 13.3
v 4.4 11.9 11.3
v 4.4 12 13.3
v 4.4 12 11.3
v 2.4 10 13.3
v 2.4 10.1 13.3
v 2.4 11.9 13.3
v 2.4 12 13.3
v 2.6 10.7 13.3
v 2.6 11.3 13.3
v 2.8 10.7 13.3
v 2.8 10.8 13.3
v 2.8 11.2 13.3
v 2.8 11.3 13.3
v 2.9 10.8 13.3
v 2.9 10.9 13.3
v 2.9 11.1 13.3
v 2.9 11.2 13.3
v 3 10.7 13.3
v 3 10.9 13.3
v 3 11.1 13.3
v 3 11.3 13.3
v 3.8 10.7 13.3
v 3.8 10.9 13.3
v 3.8 11.1 13.3
v 3.8 11.3 13.3
v 3.9 10.8 13.3
v 3.9 10.9 13.3
v 3.9 11.1 13.3
v 3.9 11.2 13.3
v 4 10.7 13.3
v 4 10.8 13.3
v 4 11.2 13.3
v 4 11.3 13.3
v 4.2 10.7 13.3
v 4.2 11.3 13.3
v 4.4 10 13.3
v 4.4 10.1 13.3
v 4.4 11.9 13.3
v 4.4 12 13.3
v 2.4 10 11.3
v 2.4 10.1 11.3
v 2.4 11.9 11.3
v 2.4 12 11.3
v 2.6 10.6 11.3
v 2.6 10.8 11.3
v 2.6 11.2 11.3
v 2.6 11.4 11.3
v 2.7 10.6 11.3
v 2.7 10.7 11.3
v 2.7 10.8 11.3
v 2.7 11.2 11.3
v 2.7 11.3 11.3
v 2.7 11.4 11.3
v 2.8 10.7 11.3
v 2.8 10.8 11.3
v 2.8 11.2 11.3
v 2.8 11.3 11.3
v 2.9 10.8 11.3
v 2.9 10.9 11.3
v 2.9 11.1 11.3
v 2.9 11.2 11.3
v 3 10.7 11.3
v 3 10.9 11.3
v 3 11.1 11.3
v 3 11.3 11.3
v 3.1 10.6 11.3
v 3.1 10.7 11.3
v 3.1 11.3 11.3
v 3.1 11.4 11.3
v 3.7 10.6 11.3
v 3.7 10.7 11.3
v 3.7 11.3 11.3
v 3.7 11.4 11.3
v 3.8 10.7 11.3
v 3.8 10.9 11.3
v 3.8 11.1 11.3
v 3.8 11.3 11.3
v 3.9 10.8 11.3
v 3.9 10.9 11.3
v 3.9 11.1 11.3
v 3.9 11.2 11.3
v 4 10.7 11.3
v 4 10.8 11.3
v 4 11.2 11.3
v 4 11.3 11.3
v 4.1 10.6 11.3
v 4.1 10.7 11.3
v 4.1 10.8 11.3
v 4.1 11.2 11.3
v 4.1 11.3 11.3
v 4.1 11.4 11.3
v 4.2 10.6 11.3
v 4.2 10.8 11.3
v 4.2 11.2 11.3
v 4.2 11.4 11.3
v 4.4 10 11.3
v 4.4 10.1 11.3
v 4.4 11.9 11.3
v 4.4 12 11.3
v 2.4 10 13.3
v 4.4 10 13.3
v 2.4 10 11.3
v 4.4 10 11.3
v 2.4 12 13.3
v 4.4 12 13.3
v 2.4 12 11.3
v 4.4 12 11.3

# faces
f 3/2/1 2/2/1 1/2/1
f 4/2/1 2/2/1 3/2/1
f 5/1/1 4/1/1 3/1/1
f 6/1/1 4/1/1 5/1/1
f 7/1/1 4/1/1 6/1/1
f 8/1/1 4/1/1 7/1/1
f 9/1/1 4/1/1 8/1/1
f 10/1/1 4/1/1 9/1/1
f 11/2/1 6/2/1 5/2/1
f 11/1/1 7/1/1 6/1/1
f 12/1/1 7/1/1 11/1/1
f 13/1/1 7/1/1 12/1/1
f 14/2/1 8/2/1 7/2/1
f 14/1/1 7/1/1 13/1/1
f 15/1/1 9/1/1 8/1/1
f 15/2/1 8/2/1 14/2/1
f 16/1/1 9/1/1 15/1/1
f 17/1/1 9/1/1 16/1/1
f 18/2/1 10/2/1 9/2/1
f 18/1/1 9/1/1 17/1/1
f 19/1/1 5/1/1 3/1/1
f 19/2/1 11/2/1 5/2/1
f 19/2/1 12/2/1 11/2/1
f 20/2/1 12/2/1 19/2/1
f 21/1/1 13/1/1 12/1/1
f 21/2/1 12/2/1 20/2/1
f 22/1/1 13/1/1 21/1/1
f 23/1/1 17/1/1 16/1/1
f 24/2/1 18/2/1 17/2/1
f 24/1/1 17/1/1 23/1/1
f 25/2/1 10/2/1 18/2/1
f 25/2/1 18/2/1 24/2/1
f 26/1/1 4/1/1 10/1/1
f 26/2/1 10/2/1 25/2/1
f 27/1/1 13/1/1 22/1/1
f 27/2/1 21/2/1 20/2/1
f 27/2/1 22/2/1 21/2/1
f 28/2/1 14/2/1 13/2/1
f 28/1/1 13/1/1 27/1/1
f 28/2/1 16/2/1 15/2/1
f 28/2/1 15/2/1 14/2/1
f 29/1/1 23/1/1 16/1/1
f 29/2/1 16/2/1 28/2/1
f 30/2/1 24/2/1 23/2/1
f 30/1/1 23/1/1 29/1/1
f 30/2/1 25/2/1 24/2/1
f 31/2/1 29/2/1 28/2/1
f 31/2/1 27/2/1 20/2/1
f 31/2/1 30/2/1 29/2/1
f 31/2/1 28/2/1 27/2/1
f 32/2/1 30/2/1 31/2/1
f 33/2/1 30/2/1 32/2/1
f 34/2/1 25/2/1 30/2/1
f 34/2/1 30/2/1 33/2/1
f 35/1/1 19/1/1 3/1/1
f 35/1/1 20/1/1 19/1/1
f 36/2/1 31/2/1 20/2/1
f 36/1/1 20/1/1 35/1/1
f 37/2/1 31/2/1 36/2/1
f 38/1/1 32/1/1 31/1/1
f 38/2/1 31/2/1 37/2/1
f 39/2/1 25/2/1 34/2/1
f 39/1/1 34/1/1 33/1/1
f 40/2/1 25/2/1 39/2/1
f 41/1/1 26/1/1 25/1/1
f 41/2/1 25/2/1 40/2/1
f 42/1/1 4/1/1 26/1/1
f 42/1/1 26/1/1 41/1/1
f 43/2/1 37/2/1 36/2/1
f 43/2/1 36/2/1 35/2/1
f 44/1/1 38/1/1 37/1/1
f 44/2/1 37/2/1 43/2/1
f 45/2/1 33/2/1 32/2/1
f 45/1/1 38/1/1 44/1/1
f 45/1/1 32/1/1 38/1/1
f 46/2/1 33/2/1 45/2/1
f 47/2/1 33/2/1 46/2/1
f 48/1/1 39/1/1 33/1/1
f 48/2/1 33/2/1 47/2/1
f 48/1/1 40/1/1 39/1/1
f 49/2/1 41/2/1 40/2/1
f 49/1/1 40/1/1 48/1/1
f 49/2/1 42/2/1 41/2/1
f 50/2/1 42/2/1 49/2/1
f 51/2/1 43/2/1 35/2/1
f 51/1/1 35/1/1 3/1/1
f 52/1/1 44/1/1 43/1/1
f 52/2/1 43/2/1 51/2/1
f 52/1/1 46/1/1 45/1/1
f 52/1/1 45/1/1 44/1/1
f 53/2/1 47/2/1 46/2/1
f 53/1/1 46/1/1 52/1/1
f 54/1/1 48/1/1 47/1/1
f 54/2/1 47/2/1 53/2/1
f 54/1/1 49/1/1 48/1/1
f 54/1/1 50/1/1 49/1/1
f 55/2/1 42/2/1 50/2/1
f 55/1/1 50/1/1 54/1/1
f 56/1/1 4/1/1 42/1/1
f 56/2/1 42/2/1 55/2/1
f 57/1/1 51/1/1 3/1/1
f 57/1/1 52/1/1 51/1/1
f 57/1/1 56/1/1 55/1/1
f 57/1/1 55/1/1 54/1/1
f 57/1/1 54/1/1 53/1/1
f 57/1/1 53/1/1 52/1/1
f 58/1/1 4/1/1 56/1/1
f 58/1/1 56/1/1 57/1/1
f 59/2/1 58/2/1 57/2/1
f 60/2/1 58/2/1 59/2/1
f 61/2/2 62/2/2 63/2/2
f 63/2/2 62/2/2 64/2/2
f 63/1/2 64/1/2 65/1/2
f 65/1/2 64/1/2 66/1/2
f 66/1/2 64/1/2 67/1/2
f 67/1/2 64/1/2 68/1/2
f 68/1/2 64/1/2 69/1/2
f 69/1/2 64/1/2 70/1/2
f 65/2/2 66/2/2 71/2/2
f 66/1/2 67/1/2 71/1/2
f 71/1/2 67/1/2 72/1/2
f 72/1/2 67/1/2 73/1/2
f 67/2/2 68/2/2 74/2/2
f 73/1/2 67/1/2 74/1/2
f 68/1/2 69/1/2 75/1/2
f 74/2/2 68/2/2 75/2/2
f 75/1/2 69/1/2 76/1/2
f 76/1/2 69/1/2 77/1/2
f 69/2/2 70/2/2 78/2/2
f 77/1/2 69/1/2 78/1/2
f 63/1/2 65/1/2 79/1/2
f 65/2/2 71/2/2 79/2/2
f 71/2/2 72/2/2 79/2/2
f 79/2/2 72/2/2 80/2/2
f 72/1/2 73/1/2 81/1/2
f 80/2/2 72/2/2 81/2/2
f 81/1/2 73/1/2 82/1/2
f 76/1/2 77/1/2 83/1/2
f 77/2/2 78/2/2 84/2/2
f 83/1/2 77/1/2 84/1/2
f 78/2/2 70/2/2 85/2/2
f 84/2/2 78/2/2 85/2/2
f 70/1/2 64/1/2 86/1/2
f 85/2/2 70/2/2 86/2/2
f 82/1/2 73/1/2 87/1/2
f 80/2/2 81/2/2 87/2/2
f 81/2/2 82/2/2 87/2/2
f 73/2/2 74/2/2 88/2/2
f 87/1/2 73/1/2 88/1/2
f 75/2/2 76/2/2 88/2/2
f 74/2/2 75/2/2 88/2/2
f 76/1/2 83/1/2 89/1/2
f 88/2/2 76/2/2 89/2/2
f 83/2/2 84/2/2 90/2/2
f 89/1/2 83/1/2 90/1/2
f 84/2/2 85/2/2 90/2/2
f 88/2/2 89/2/2 91/2/2
f 80/2/2 87/2/2 91/2/2
f 89/2/2 90/2/2 91/2/2
f 87/2/2 88/2/2 91/2/2
f 91/2/2 90/2/2 92/2/2
f 92/2/2 90/2/2 93/2/2
f 90/2/2 85/2/2 94/2/2
f 93/2/2 90/2/2 94/2/2
f 63/1/2 79/1/2 95/1/2
f 79/1/2 80/1/2 95/1/2
f 80/2/2 91/2/2 96/2/2
f 95/1/2 80/1/2 96/1/2
f 96/2/2 91/2/2 97/2/2
f 91/1/2 92/1/2 98/1/2
f 97/2/2 91/2/2 98/2/2
f 94/2/2 85/2/2 99/2/2
f 93/1/2 94/1/2 99/1/2
f 99/2/2 85/2/2 100/2/2
f 85/1/2 86/1/2 101/1/2
f 100/2/2 85/2/2 101/2/2
f 86/1/2 64/1/2 102/1/2
f 101/1/2 86/1/2 102/1/2
f 96/2/2 97/2/2 103/2/2
f 95/2/2 96/2/2 103/2/2
f 97/1/2 98/1/2 104/1/2
f 103/2/2 97/2/2 104/2/2
f 92/2/2 93/2/2 105/2/2
f 104/1/2 98/1/2 105/1/2
f 98/1/2 92/1/2 105/1/2
f 105/2/2 93/2/2 106/2/2
f 106/2/2 93/2/2 107/2/2
f 93/1/2 99/1/2 108/1/2
f 107/2/2 93/2/2 108/2/2
f 99/1/2 100/1/2 108/1/2
f 100/2/2 101/2/2 109/2/2
f 108/1/2 100/1/2 109/1/2
f 101/2/2 102/2/2 109/2/2
f 109/2/2 102/2/2 110/2/2
f 95/2/2 103/2/2 111/2/2
f 63/1/2 95/1/2 111/1/2
f 103/1/2 104/1/2 112/1/2
f 111/2/2 103/2/2 112/2/2
f 105/1/2 106/1/2 112/1/2
f 104/1/2 105/1/2 112/1/2
f 106/2/2 107/2/2 113/2/2
f 112/1/2 106/1/2 113/1/2
f 107/1/2 108/1/2 114/1/2
f 113/2/2 107/2/2 114/2/2
f 108/1/2 109/1/2 114/1/2
f 109/1/2 110/1/2 114/1/2
f 110/2/2 102/2/2 115/2/2
f 114/1/2 110/1/2 115/1/2
f 102/1/2 64/1/2 116/1/2
f 115/2/2 102/2/2 116/2/2
f 63/1/2 111/1/2 117/1/2
f 111/1/2 112/1/2 117/1/2
f 115/1/2 116/1/2 117/1/2
f 114/1/2 115/1/2 117/1/2
f 113/1/2 114/1/2 117/1/2
f 112/1/2 113/1/2 117/1/2
f 116/1/2 64/1/2 118/1/2
f 117/1/2 116/1/2 118/1/2
f 117/2/2 118/2/2 119/2/2
f 119/2/2 118/2/2 120/2/2
f 125/1/3 123/1/3 122/1/3
f 126/1/3 123/1/3 125/1/3
f 127/1/3 125/1/3 122/1/3
f 127/2/3 126/2/3 125/2/3
f 128/2/3 126/2/3 127/2/3
f 129/2/3 126/2/3 128/2/3
f 130/1/3 123/1/3 126/1/3
f 130/2/3 126/2/3 129/2/3
f 131/2/3 129/2/3 128/2/3
f 131/1/3 128/1/3 127/1/3
f 132/2/3 129/2/3 131/2/3
f 133/2/3 129/2/3 132/2/3
f 134/1/3 130/1/3 129/1/3
f 134/2/3 129/2/3 133/2/3
f 135/1/3 127/1/3 122/1/3
f 135/1/3 131/1/3 127/1/3
f 135/1/3 132/1/3 131/1/3
f 136/2/3 133/2/3 132/2/3
f 136/1/3 132/1/3 135/1/3
f 137/1/3 134/1/3 133/1/3
f 137/2/3 133/2/3 136/2/3
f 138/1/3 123/1/3 130/1/3
f 138/1/3 134/1/3 137/1/3
f 138/1/3 130/1/3 134/1/3
f 139/2/3 137/2/3 136/2/3
f 139/2/3 136/2/3 135/2/3
f 139/2/3 138/2/3 137/2/3
f 139/1/3 135/1/3 122/1/3
f 140/2/3 138/2/3 139/2/3
f 141/2/3 138/2/3 140/2/3
f 142/1/3 123/1/3 138/1/3
f 142/2/3 138/2/3 141/2/3
f 143/1/3 140/1/3 139/1/3
f 144/2/3 141/2/3 140/2/3
f 144/1/3 140/1/3 143/1/3
f 145/1/3 142/1/3 141/1/3
f 145/2/3 141/2/3 144/2/3
f 146/1/3 142/1/3 145/1/3
f 147/1/3 143/1/3 139/1/3
f 147/1/3 139/1/3 122/1/3
f 148/2/3 146/2/3 145/2/3
f 148/1/3 143/1/3 147/1/3
f 148/2/3 144/2/3 143/2/3
f 148/2/3 145/2/3 144/2/3
f 149/1/3 142/1/3 146/1/3
f 149/2/3 146/2/3 148/2/3
f 150/1/3 123/1/3 142/1/3
f 150/1/3 142/1/3 149/1/3
f 151/2/3 148/2/3 147/2/3
f 151/1/3 147/1/3 122/1/3
f 151/2/3 150/2/3 149/2/3
f 151/2/3 149/2/3 148/2/3
f 152/1/3 123/1/3 150/1/3
f 152/2/3 150/2/3 151/2/3
f 153/2/3 122/2/3 121/2/3
f 154/1/3 151/1/3 122/1/3
f 154/2/3 122/2/3 153/2/3
f 154/1/3 152/1/3 151/1/3
f 155/1/3 123/1/3 152/1/3
f 155/1/3 152/1/3 154/1/3
f 155/2/3 124/2/3 123/2/3
f 156/2/3 124/2/3 155/2/3
f 158/1/4 159/1/4 161/1/4
f 161/1/4 159/1/4 162/1/4
f 162/1/4 159/1/4 163/1/4
f 163/1/4 159/1/4 164/1/4
f 158/1/4 161/1/4 165/1/4
f 161/2/4 162/2/4 165/2/4
f 165/2/4 162/2/4 166/2/4
f 162/1/4 163/1/4 167/1/4
f 166/2/4 162/2/4 167/2/4
f 163/2/4 164/2/4 168/2/4
f 167/1/4 163/1/4 168/1/4
f 168/2/4 164/2/4 169/2/4
f 164/1/4 159/1/4 170/1/4
f 169/2/4 164/2/4 170/2/4
f 168/2/4 169/2/4 171/2/4
f 166/2/4 167/2/4 171/2/4
f 165/1/4 166/1/4 171/1/4
f 167/2/4 168/2/4 171/2/4
f 171/2/4 169/2/4 172/2/4
f 172/2/4 169/2/4 173/2/4
f 169/1/4 170/1/4 174/1/4
f 173/2/4 169/2/4 174/2/4
f 172/2/4 173/2/4 175/2/4
f 171/1/4 172/1/4 175/1/4
f 175/2/4 173/2/4 176/2/4
f 176/2/4 173/2/4 177/2/4
f 173/1/4 174/1/4 178/1/4
f 177/2/4 173/2/4 178/2/4
f 165/1/4 171/1/4 179/1/4
f 171/1/4 175/1/4 179/1/4
f 175/1/4 176/1/4 179/1/4
f 176/2/4 177/2/4 180/2/4
f 179/1/4 176/1/4 180/1/4
f 177/1/4 178/1/4 181/1/4
f 180/2/4 177/2/4 181/2/4
f 174/1/4 170/1/4 182/1/4
f 181/1/4 178/1/4 182/1/4
f 178/1/4 174/1/4 182/1/4
f 158/1/4 165/1/4 183/1/4
f 165/1/4 179/1/4 183/1/4
f 180/2/4 181/2/4 184/2/4
f 183/1/4 179/1/4 184/1/4
f 179/2/4 180/2/4 184/2/4
f 181/2/4 182/2/4 184/2/4
f 182/1/4 170/1/4 185/1/4
f 184/2/4 182/2/4 185/2/4
f 170/1/4 159/1/4 186/1/4
f 185/1/4 170/1/4 186/1/4
f 184/2/4 185/2/4 187/2/4
f 158/1/4 183/1/4 187/1/4
f 185/2/4 186/2/4 187/2/4
f 183/2/4 184/2/4 187/2/4
f 187/2/4 186/2/4 188/2/4
f 188/2/4 186/2/4 189/2/4
f 186/1/4 159/1/4 190/1/4
f 189/2/4 186/2/4 190/2/4
f 188/2/4 189/2/4 191/2/4
f 187/1/4 188/1/4 191/1/4
f 191/2/4 189/2/4 192/2/4
f 192/2/4 189/2/4 193/2/4
f 189/1/4 190/1/4 194/1/4
f 193/2/4 189/2/4 194/2/4
f 191/1/4 192/1/4 195/1/4
f 192/2/4 193/2/4 196/2/4
f 195/1/4 192/1/4 196/1/4
f 193/1/4 194/1/4 197/1/4
f 196/2/4 193/2/4 197/2/4
f 197/1/4 194/1/4 198/1/4
f 191/1/4 195/1/4 199/1/4
f 187/1/4 191/1/4 199/1/4
f 197/2/4 198/2/4 200/2/4
f 199/1/4 195/1/4 200/1/4
f 195/2/4 196/2/4 200/2/4
f 196/2/4 197/2/4 200/2/4
f 198/1/4 194/1/4 201/1/4
f 200/2/4 198/2/4 201/2/4
f 194/1/4 190/1/4 202/1/4
f 201/1/4 194/1/4 202/1/4
f 158/1/4 187/1/4 203/1/4
f 187/1/4 199/1/4 203/1/4
f 199/2/4 200/2/4 204/2/4
f 203/1/4 199/1/4 204/1/4
f 201/2/4 202/2/4 204/2/4
f 200/2/4 201/2/4 204/2/4
f 204/2/4 202/2/4 205/2/4
f 205/2/4 202/2/4 206/2/4
f 202/1/4 190/1/4 207/1/4
f 206/2/4 202/2/4 207/2/4
f 190/1/4 159/1/4 208/1/4
f 207/1/4 190/1/4 208/1/4
f 158/1/4 203/1/4 209/1/4
f 203/2/4 204/2/4 209/2/4
f 204/2/4 205/2/4 209/2/4
f 205/1/4 206/1/4 210/1/4
f 209/2/4 205/2/4 210/2/4
f 206/2/4 207/2/4 211/2/4
f 210/1/4 206/1/4 211/1/4
f 207/2/4 208/2/4 211/2/4
f 208/1/4 159/1/4 212/1/4
f 211/2/4 208/2/4 212/2/4
f 157/2/4 158/2/4 213/2/4
f 209/1/4 210/1/4 214/1/4
f 213/2/4 158/2/4 214/2/4
f 158/1/4 209/1/4 214/1/4
f 211/1/4 212/1/4 214/1/4
f 210/1/4 211/1/4 214/1/4
f 212/1/4 159/1/4 215/1/4
f 214/1/4 212/1/4 215/1/4
f 159/2/4 160/2/4 215/2/4
f 215/2/4 160/2/4 216/2/4
f 219/2/5 218/2/5 217/2/5
f 220/2/5 218/2/5 219/2/5
f 221/2/6 222/2/6 223/2/6
f 223/2/6 222/2/6 224/2/6
