# MagicaVoxel @ Ephtracy

# group
o 

# material
mtllib Item_souvenir.mtl
usemtl palette

# normals
vn -1 0 0
vn 1 0 0
vn 0 0 1
vn 0 0 -1
vn 0 -1 0
vn 0 1 0

# texcoords
vt 0.599609 0.5
vt 0.658203 0.5
vt 0.767578 0.5

# verts
v 3.8 10.2 2.9
v 3.8 10.2 2.3
v 3.8 10.6 2.9
v 3.8 10.6 2.7
v 3.8 10.6 2.5
v 3.8 10.6 2.3
v 3.8 10.7 2.7
v 3.8 10.7 2.5
v 4 10.6 2.9
v 4 10.6 2.7
v 4 10.6 2.5
v 4 10.6 2.3
v 4 10.7 2.9
v 4 10.7 2.7
v 4 10.7 2.5
v 4 10.7 2.3
v 4 10.8 2.7
v 4 10.8 2.5
v 4.2 10.6 2.9
v 4.2 10.6 2.7
v 4.2 10.6 2.5
v 4.2 10.6 2.3
v 4.2 10.7 2.9
v 4.2 10.7 2.7
v 4.2 10.7 2.5
v 4.2 10.7 2.3
v 4.2 10.8 2.7
v 4.2 10.8 2.5
v 4.4 10.2 2.9
v 4.4 10.2 2.3
v 4.4 10.6 2.9
v 4.4 10.6 2.7
v 4.4 10.6 2.5
v 4.4 10.6 2.3
v 4.4 10.7 2.7
v 4.4 10.7 2.5
v 3.8 10.2 2.9
v 3.8 10.6 2.9
v 4 10.6 2.9
v 4 10.7 2.9
v 4.2 10.6 2.9
v 4.2 10.7 2.9
v 4.4 10.2 2.9
v 4.4 10.6 2.9
v 3.8 10.6 2.7
v 3.8 10.7 2.7
v 4 10.6 2.7
v 4 10.7 2.7
v 4 10.8 2.7
v 4.2 10.6 2.7
v 4.2 10.7 2.7
v 4.2 10.8 2.7
v 4.4 10.6 2.7
v 4.4 10.7 2.7
v 3.8 10.6 2.5
v 3.8 10.7 2.5
v 4 10.6 2.5
v 4 10.7 2.5
v 4 10.8 2.5
v 4.2 10.6 2.5
v 4.2 10.7 2.5
v 4.2 10.8 2.5
v 4.4 10.6 2.5
v 4.4 10.7 2.5
v 3.8 10.2 2.3
v 3.8 10.6 2.3
v 4 10.6 2.3
v 4 10.7 2.3
v 4.2 10.6 2.3
v 4.2 10.7 2.3
v 4.4 10.2 2.3
v 4.4 10.6 2.3
v 3.8 10.2 2.9
v 4.4 10.2 2.9
v 3.8 10.2 2.3
v 4.4 10.2 2.3
v 3.8 10.6 2.9
v 4 10.6 2.9
v 4.2 10.6 2.9
v 4.4 10.6 2.9
v 3.8 10.6 2.7
v 4 10.6 2.7
v 4.2 10.6 2.7
v 4.4 10.6 2.7
v 3.8 10.6 2.5
v 4 10.6 2.5
v 4.2 10.6 2.5
v 4.4 10.6 2.5
v 3.8 10.6 2.3
v 4 10.6 2.3
v 4.2 10.6 2.3
v 4.4 10.6 2.3
v 4 10.7 2.9
v 4.2 10.7 2.9
v 3.8 10.7 2.7
v 4 10.7 2.7
v 4.2 10.7 2.7
v 4.4 10.7 2.7
v 3.8 10.7 2.5
v 4 10.7 2.5
v 4.2 10.7 2.5
v 4.4 10.7 2.5
v 4 10.7 2.3
v 4.2 10.7 2.3
v 4 10.8 2.7
v 4.2 10.8 2.7
v 4 10.8 2.5
v 4.2 10.8 2.5

# faces
f 3/2/1 2/2/1 1/2/1
f 4/2/1 2/2/1 3/2/1
f 5/2/1 2/2/1 4/2/1
f 6/2/1 2/2/1 5/2/1
f 7/1/1 5/1/1 4/1/1
f 8/1/1 5/1/1 7/1/1
f 13/1/1 10/1/1 9/1/1
f 14/1/1 10/1/1 13/1/1
f 15/1/1 12/1/1 11/1/1
f 16/1/1 12/1/1 15/1/1
f 17/3/1 15/3/1 14/3/1
f 18/3/1 15/3/1 17/3/1
f 19/1/2 20/1/2 23/1/2
f 23/1/2 20/1/2 24/1/2
f 21/1/2 22/1/2 25/1/2
f 25/1/2 22/1/2 26/1/2
f 24/3/2 25/3/2 27/3/2
f 27/3/2 25/3/2 28/3/2
f 29/2/2 30/2/2 31/2/2
f 31/2/2 30/2/2 32/2/2
f 32/2/2 30/2/2 33/2/2
f 33/2/2 30/2/2 34/2/2
f 32/1/2 33/1/2 35/1/2
f 35/1/2 33/1/2 36/1/2
f 39/2/3 38/2/3 37/2/3
f 41/2/3 39/2/3 37/2/3
f 41/1/3 40/1/3 39/1/3
f 42/1/3 40/1/3 41/1/3
f 43/2/3 41/2/3 37/2/3
f 44/2/3 41/2/3 43/2/3
f 47/1/3 46/1/3 45/1/3
f 48/1/3 46/1/3 47/1/3
f 51/3/3 49/3/3 48/3/3
f 52/3/3 49/3/3 51/3/3
f 53/1/3 51/1/3 50/1/3
f 54/1/3 51/1/3 53/1/3
f 55/1/4 56/1/4 57/1/4
f 57/1/4 56/1/4 58/1/4
f 58/3/4 59/3/4 61/3/4
f 61/3/4 59/3/4 62/3/4
f 60/1/4 61/1/4 63/1/4
f 63/1/4 61/1/4 64/1/4
f 65/2/4 66/2/4 67/2/4
f 65/2/4 67/2/4 69/2/4
f 67/1/4 68/1/4 69/1/4
f 69/1/4 68/1/4 70/1/4
f 65/2/4 69/2/4 71/2/4
f 71/2/4 69/2/4 72/2/4
f 75/2/5 74/2/5 73/2/5
f 76/2/5 74/2/5 75/2/5
f 77/2/6 78/2/6 81/2/6
f 81/2/6 78/2/6 82/2/6
f 79/2/6 80/2/6 83/2/6
f 83/2/6 80/2/6 84/2/6
f 85/2/6 86/2/6 89/2/6
f 89/2/6 86/2/6 90/2/6
f 87/2/6 88/2/6 91/2/6
f 91/2/6 88/2/6 92/2/6
f 93/1/6 94/1/6 96/1/6
f 96/1/6 94/1/6 97/1/6
f 95/1/6 96/1/6 99/1/6
f 99/1/6 96/1/6 100/1/6
f 97/1/6 98/1/6 101/1/6
f 101/1/6 98/1/6 102/1/6
f 100/1/6 101/1/6 103/1/6
f 103/1/6 101/1/6 104/1/6
f 105/3/6 106/3/6 107/3/6
f 107/3/6 106/3/6 108/3/6
