# MagicaVoxel @ Ephtracy

# group
o 

# material
mtllib drinks-1.mtl
usemtl palette

# normals
vn 1 0 0
vn -1 0 0
vn 0 0 1
vn 0 0 -1
vn 0 -1 0
vn 0 1 0

# texcoords
vt 0.751953 0.5
vt 0.767578 0.5

# verts
v 13.9 0 9.7
v 13.9 0 -0.3
v 13.9 1.7 9.7
v 13.9 1.7 9.5
v 13.9 1.9 9.5
v 13.9 1.9 9.3
v 13.9 2.1 9.3
v 13.9 2.1 9.1
v 13.9 2.3 9.1
v 13.9 2.3 8.9
v 13.9 2.5 8.9
v 13.9 2.5 -0.3
v 13.9 6 7.7
v 13.9 6 1.7
v 13.9 6.5 7.7
v 13.9 6.5 1.7
v 13.9 10 7.7
v 13.9 10 1.7
v 13.9 10.5 7.7
v 13.9 10.5 1.7
v 13.9 14 7.7
v 13.9 14 1.7
v 13.9 14.5 7.7
v 13.9 14.5 1.7
v 13.9 18 7.7
v 13.9 18 1.7
v 13.9 18.5 7.7
v 13.9 18.5 1.7
v 13.9 22 9.2
v 13.9 22 -0.3
v 13.9 24 9.2
v 13.9 24 -0.3
v -4.1 0 9.7
v -4.1 0 -0.3
v -4.1 1.7 9.7
v -4.1 1.7 9.5
v -4.1 1.9 9.5
v -4.1 1.9 9.3
v -4.1 2.1 9.3
v -4.1 2.1 9.1
v -4.1 2.3 9.1
v -4.1 2.3 8.9
v -4.1 2.5 8.9
v -4.1 2.5 -0.3
v -4.1 6 7.7
v -4.1 6 1.7
v -4.1 6.5 7.7
v -4.1 6.5 1.7
v -4.1 10 7.7
v -4.1 10 1.7
v -4.1 10.5 7.7
v -4.1 10.5 1.7
v -4.1 14 7.7
v -4.1 14 1.7
v -4.1 14.5 7.7
v -4.1 14.5 1.7
v -4.1 18 7.7
v -4.1 18 1.7
v -4.1 18.5 7.7
v -4.1 18.5 1.7
v -4.1 22 9.2
v -4.1 22 -0.3
v -4.1 24 9.2
v -4.1 24 -0.3
v 13.9 0 9.7
v 13.9 1.7 9.7
v -4.1 0 9.7
v -4.1 1.7 9.7
v 13.9 1.7 9.5
v 13.9 1.9 9.5
v -4.1 1.7 9.5
v -4.1 1.9 9.5
v 13.9 1.9 9.3
v 13.9 2.1 9.3
v -4.1 1.9 9.3
v -4.1 2.1 9.3
v 13.9 22 9.2
v 13.9 24 9.2
v -4.1 22 9.2
v -4.1 24 9.2
v 13.9 2.1 9.1
v 13.9 2.3 9.1
v -4.1 2.1 9.1
v -4.1 2.3 9.1
v 13.9 2.3 8.9
v 13.9 2.5 8.9
v -4.1 2.3 8.9
v -4.1 2.5 8.9
v 13.9 6 7.7
v 13.9 6.5 7.7
v 13.9 10 7.7
v 13.9 10.5 7.7
v 13.9 14 7.7
v 13.9 14.5 7.7
v 13.9 18 7.7
v 13.9 18.5 7.7
v 13.7 6 7.7
v 13.7 6.5 7.7
v 13.7 10 7.7
v 13.7 10.5 7.7
v 13.7 14 7.7
v 13.7 14.5 7.7
v 13.7 18 7.7
v 13.7 18.5 7.7
v -3.9 6 7.7
v -3.9 6.5 7.7
v -3.9 10 7.7
v -3.9 10.5 7.7
v -3.9 14 7.7
v -3.9 14.5 7.7
v -3.9 18 7.7
v -3.9 18.5 7.7
v -4.1 6 7.7
v -4.1 6.5 7.7
v -4.1 10 7.7
v -4.1 10.5 7.7
v -4.1 14 7.7
v -4.1 14.5 7.7
v -4.1 18 7.7
v -4.1 18.5 7.7
v 13.9 6 1.7
v 13.9 6.5 1.7
v 13.9 10 1.7
v 13.9 10.5 1.7
v 13.9 14 1.7
v 13.9 14.5 1.7
v 13.9 18 1.7
v 13.9 18.5 1.7
v 13.7 6 1.7
v 13.7 6.5 1.7
v 13.7 10 1.7
v 13.7 10.5 1.7
v 13.7 14 1.7
v 13.7 14.5 1.7
v 13.7 18 1.7
v 13.7 18.5 1.7
v -3.9 6 1.7
v -3.9 6.5 1.7
v -3.9 10 1.7
v -3.9 10.5 1.7
v -3.9 14 1.7
v -3.9 14.5 1.7
v -3.9 18 1.7
v -3.9 18.5 1.7
v -4.1 6 1.7
v -4.1 6.5 1.7
v -4.1 10 1.7
v -4.1 10.5 1.7
v -4.1 14 1.7
v -4.1 14.5 1.7
v -4.1 18 1.7
v -4.1 18.5 1.7
v 13.9 0 -0.3
v 13.9 2.5 -0.3
v 13.9 22 -0.3
v 13.9 24 -0.3
v -4.1 0 -0.3
v -4.1 2.5 -0.3
v -4.1 22 -0.3
v -4.1 24 -0.3
v 13.9 0 9.7
v -4.1 0 9.7
v 13.8 0 7.7
v -4 0 7.7
v 13.8 0 1.8
v 13.7 0 1.8
v 13.7 0 1.7
v -4 0 1.7
v 13.9 0 -0.3
v -4.1 0 -0.3
v 13.9 6 7.7
v 13.7 6 7.7
v -3.9 6 7.7
v -4.1 6 7.7
v 13.9 6 1.7
v 13.7 6 1.7
v -3.9 6 1.7
v -4.1 6 1.7
v 13.9 10 7.7
v 13.7 10 7.7
v -3.9 10 7.7
v -4.1 10 7.7
v 13.9 10 1.7
v 13.7 10 1.7
v -3.9 10 1.7
v -4.1 10 1.7
v 13.9 14 7.7
v 13.7 14 7.7
v -3.9 14 7.7
v -4.1 14 7.7
v 13.9 14 1.7
v 13.7 14 1.7
v -3.9 14 1.7
v -4.1 14 1.7
v 13.9 18 7.7
v 13.7 18 7.7
v -3.9 18 7.7
v -4.1 18 7.7
v 13.9 18 1.7
v 13.7 18 1.7
v -3.9 18 1.7
v -4.1 18 1.7
v 13.9 22 9.2
v -4.1 22 9.2
v 13.9 22 -0.3
v -4.1 22 -0.3
v 13.9 1.7 9.7
v -4.1 1.7 9.7
v 13.9 1.7 9.5
v -4.1 1.7 9.5
v 13.9 1.9 9.5
v -4.1 1.9 9.5
v 13.9 1.9 9.3
v -4.1 1.9 9.3
v 13.9 2.1 9.3
v -4.1 2.1 9.3
v 13.9 2.1 9.1
v -4.1 2.1 9.1
v 13.9 2.3 9.1
v -4.1 2.3 9.1
v 13.9 2.3 8.9
v -4.1 2.3 8.9
v 13.9 2.5 8.9
v -4.1 2.5 8.9
v 13.7 2.5 7.7
v -3.9 2.5 7.7
v 13.7 2.5 1.7
v -3.9 2.5 1.7
v 13.9 2.5 -0.3
v -4.1 2.5 -0.3
v 13.9 6.5 7.7
v 13.7 6.5 7.7
v -3.9 6.5 7.7
v -4.1 6.5 7.7
v 13.9 6.5 1.7
v 13.7 6.5 1.7
v -3.9 6.5 1.7
v -4.1 6.5 1.7
v 13.9 10.5 7.7
v 13.7 10.5 7.7
v -3.9 10.5 7.7
v -4.1 10.5 7.7
v 13.9 10.5 1.7
v 13.7 10.5 1.7
v -3.9 10.5 1.7
v -4.1 10.5 1.7
v 13.9 14.5 7.7
v 13.7 14.5 7.7
v -3.9 14.5 7.7
v -4.1 14.5 7.7
v 13.9 14.5 1.7
v 13.7 14.5 1.7
v -3.9 14.5 1.7
v -4.1 14.5 1.7
v 13.9 18.5 7.7
v 13.7 18.5 7.7
v -3.9 18.5 7.7
v -4.1 18.5 7.7
v 13.9 18.5 1.7
v 13.7 18.5 1.7
v -3.9 18.5 1.7
v -4.1 18.5 1.7
v 13.9 24 9.2
v -4.1 24 9.2
v 13.9 24 -0.3
v -4.1 24 -0.3

# faces
f 1/2/1 2/2/1 3/2/1
f 3/2/1 2/2/1 4/2/1
f 4/2/1 2/2/1 5/2/1
f 5/2/1 2/2/1 6/2/1
f 6/2/1 2/2/1 7/2/1
f 7/2/1 2/2/1 8/2/1
f 8/2/1 2/2/1 9/2/1
f 9/2/1 2/2/1 10/2/1
f 10/2/1 2/2/1 11/2/1
f 11/2/1 2/2/1 12/2/1
f 13/2/1 14/2/1 15/2/1
f 15/2/1 14/2/1 16/2/1
f 17/2/1 18/2/1 19/2/1
f 19/2/1 18/2/1 20/2/1
f 21/2/1 22/2/1 23/2/1
f 23/2/1 22/2/1 24/2/1
f 25/2/1 26/2/1 27/2/1
f 27/2/1 26/2/1 28/2/1
f 29/2/1 30/2/1 31/2/1
f 31/2/1 30/2/1 32/2/1
f 35/2/2 34/2/2 33/2/2
f 36/2/2 34/2/2 35/2/2
f 37/2/2 34/2/2 36/2/2
f 38/2/2 34/2/2 37/2/2
f 39/2/2 34/2/2 38/2/2
f 40/2/2 34/2/2 39/2/2
f 41/2/2 34/2/2 40/2/2
f 42/2/2 34/2/2 41/2/2
f 43/2/2 34/2/2 42/2/2
f 44/2/2 34/2/2 43/2/2
f 47/2/2 46/2/2 45/2/2
f 48/2/2 46/2/2 47/2/2
f 51/2/2 50/2/2 49/2/2
f 52/2/2 50/2/2 51/2/2
f 55/2/2 54/2/2 53/2/2
f 56/2/2 54/2/2 55/2/2
f 59/2/2 58/2/2 57/2/2
f 60/2/2 58/2/2 59/2/2
f 63/2/2 62/2/2 61/2/2
f 64/2/2 62/2/2 63/2/2
f 65/2/3 66/2/3 67/2/3
f 67/2/3 66/2/3 68/2/3
f 69/2/3 70/2/3 71/2/3
f 71/2/3 70/2/3 72/2/3
f 73/2/3 74/2/3 75/2/3
f 75/2/3 74/2/3 76/2/3
f 77/2/3 78/2/3 79/2/3
f 79/2/3 78/2/3 80/2/3
f 81/2/3 82/2/3 83/2/3
f 83/2/3 82/2/3 84/2/3
f 85/2/3 86/2/3 87/2/3
f 87/2/3 86/2/3 88/2/3
f 89/2/3 90/2/3 97/2/3
f 97/2/3 90/2/3 98/2/3
f 91/2/3 92/2/3 99/2/3
f 99/2/3 92/2/3 100/2/3
f 93/2/3 94/2/3 101/2/3
f 101/2/3 94/2/3 102/2/3
f 95/2/3 96/2/3 103/2/3
f 103/2/3 96/2/3 104/2/3
f 97/1/3 98/1/3 105/1/3
f 105/1/3 98/1/3 106/1/3
f 99/1/3 100/1/3 107/1/3
f 107/1/3 100/1/3 108/1/3
f 101/1/3 102/1/3 109/1/3
f 109/1/3 102/1/3 110/1/3
f 103/1/3 104/1/3 111/1/3
f 111/1/3 104/1/3 112/1/3
f 105/2/3 106/2/3 113/2/3
f 113/2/3 106/2/3 114/2/3
f 107/2/3 108/2/3 115/2/3
f 115/2/3 108/2/3 116/2/3
f 109/2/3 110/2/3 117/2/3
f 117/2/3 110/2/3 118/2/3
f 111/2/3 112/2/3 119/2/3
f 119/2/3 112/2/3 120/2/3
f 129/2/4 122/2/4 121/2/4
f 130/2/4 122/2/4 129/2/4
f 131/2/4 124/2/4 123/2/4
f 132/2/4 124/2/4 131/2/4
f 133/2/4 126/2/4 125/2/4
f 134/2/4 126/2/4 133/2/4
f 135/2/4 128/2/4 127/2/4
f 136/2/4 128/2/4 135/2/4
f 137/1/4 130/1/4 129/1/4
f 138/1/4 130/1/4 137/1/4
f 139/1/4 132/1/4 131/1/4
f 140/1/4 132/1/4 139/1/4
f 141/1/4 134/1/4 133/1/4
f 142/1/4 134/1/4 141/1/4
f 143/1/4 136/1/4 135/1/4
f 144/1/4 136/1/4 143/1/4
f 145/2/4 138/2/4 137/2/4
f 146/2/4 138/2/4 145/2/4
f 147/2/4 140/2/4 139/2/4
f 148/2/4 140/2/4 147/2/4
f 149/2/4 142/2/4 141/2/4
f 150/2/4 142/2/4 149/2/4
f 151/2/4 144/2/4 143/2/4
f 152/2/4 144/2/4 151/2/4
f 157/2/4 154/2/4 153/2/4
f 158/2/4 154/2/4 157/2/4
f 159/2/4 156/2/4 155/2/4
f 160/2/4 156/2/4 159/2/4
f 161/2/5 162/2/5 163/2/5
f 163/2/5 162/2/5 164/2/5
f 161/2/5 163/2/5 165/2/5
f 163/1/5 164/1/5 165/1/5
f 165/1/5 164/1/5 166/1/5
f 165/2/5 166/2/5 167/2/5
f 166/1/5 164/1/5 167/1/5
f 164/2/5 162/2/5 168/2/5
f 167/1/5 164/1/5 168/1/5
f 165/2/5 167/2/5 169/2/5
f 161/2/5 165/2/5 169/2/5
f 167/2/5 168/2/5 169/2/5
f 168/2/5 162/2/5 170/2/5
f 169/2/5 168/2/5 170/2/5
f 171/2/5 172/2/5 175/2/5
f 172/1/5 173/1/5 176/1/5
f 175/2/5 172/2/5 176/2/5
f 173/2/5 174/2/5 177/2/5
f 176/1/5 173/1/5 177/1/5
f 177/2/5 174/2/5 178/2/5
f 179/2/5 180/2/5 183/2/5
f 180/1/5 181/1/5 184/1/5
f 183/2/5 180/2/5 184/2/5
f 181/2/5 182/2/5 185/2/5
f 184/1/5 181/1/5 185/1/5
f 185/2/5 182/2/5 186/2/5
f 187/2/5 188/2/5 191/2/5
f 188/1/5 189/1/5 192/1/5
f 191/2/5 188/2/5 192/2/5
f 189/2/5 190/2/5 193/2/5
f 192/1/5 189/1/5 193/1/5
f 193/2/5 190/2/5 194/2/5
f 195/2/5 196/2/5 199/2/5
f 196/1/5 197/1/5 200/1/5
f 199/2/5 196/2/5 200/2/5
f 197/2/5 198/2/5 201/2/5
f 200/1/5 197/1/5 201/1/5
f 201/2/5 198/2/5 202/2/5
f 203/2/5 204/2/5 205/2/5
f 205/2/5 204/2/5 206/2/5
f 209/2/6 208/2/6 207/2/6
f 210/2/6 208/2/6 209/2/6
f 213/2/6 212/2/6 211/2/6
f 214/2/6 212/2/6 213/2/6
f 217/2/6 216/2/6 215/2/6
f 218/2/6 216/2/6 217/2/6
f 221/2/6 220/2/6 219/2/6
f 222/2/6 220/2/6 221/2/6
f 225/2/6 224/2/6 223/2/6
f 226/2/6 224/2/6 225/2/6
f 227/2/6 225/2/6 223/2/6
f 227/1/6 226/1/6 225/1/6
f 228/2/6 224/2/6 226/2/6
f 228/1/6 226/1/6 227/1/6
f 229/2/6 227/2/6 223/2/6
f 229/2/6 228/2/6 227/2/6
f 230/2/6 224/2/6 228/2/6
f 230/2/6 228/2/6 229/2/6
f 235/2/6 232/2/6 231/2/6
f 236/1/6 233/1/6 232/1/6
f 236/2/6 232/2/6 235/2/6
f 237/2/6 234/2/6 233/2/6
f 237/1/6 233/1/6 236/1/6
f 238/2/6 234/2/6 237/2/6
f 243/2/6 240/2/6 239/2/6
f 244/1/6 241/1/6 240/1/6
f 244/2/6 240/2/6 243/2/6
f 245/2/6 242/2/6 241/2/6
f 245/1/6 241/1/6 244/1/6
f 246/2/6 242/2/6 245/2/6
f 251/2/6 248/2/6 247/2/6
f 252/1/6 249/1/6 248/1/6
f 252/2/6 248/2/6 251/2/6
f 253/2/6 250/2/6 249/2/6
f 253/1/6 249/1/6 252/1/6
f 254/2/6 250/2/6 253/2/6
f 259/2/6 256/2/6 255/2/6
f 260/1/6 257/1/6 256/1/6
f 260/2/6 256/2/6 259/2/6
f 261/2/6 258/2/6 257/2/6
f 261/1/6 257/1/6 260/1/6
f 262/2/6 258/2/6 261/2/6
f 265/2/6 264/2/6 263/2/6
f 266/2/6 264/2/6 265/2/6
